<?xml version="1.0" encoding="UTF-8"?> <svg xmlns="http://www.w3.org/2000/svg" width="553" height="430" viewBox="0 0 553 430" fill="none"> <path d="M54.0381 333.328C54.9835 333.274 55.9312 333.274 56.8765 333.328V332.732L53.1522 333.346L54.0381 333.328Z" fill="#E0DFE6"></path> <path d="M501.943 270.92L503.155 269.799C500.425 266.852 497.604 263.489 494.549 259.53C491.493 255.57 488.402 251.268 485.509 247.182C482.617 243.096 479.543 238.883 476.47 234.87C474.662 232.646 473.161 230.675 471.588 228.831L470.305 229.862L470.775 230.476C472.167 232.14 473.595 233.929 475.114 235.9C478.205 239.896 481.224 244.09 484.153 248.158C487.082 252.226 490.138 256.511 493.193 260.56C496.248 264.61 499.141 267.955 501.943 270.92Z" fill="#E0DFE6"></path> <path d="M474.36 262.386C470.274 257.703 465.628 252.388 464.055 250.345L462.753 251.357C464.344 253.437 469.009 258.77 473.113 263.471C476.276 267.086 479.278 270.521 480.073 271.552C480.869 272.583 481.465 273.36 482.062 274.336L483.454 273.432C482.821 272.492 482.152 271.534 481.375 270.54C480.597 269.545 477.687 266.182 474.36 262.386Z" fill="#E0DFE6"></path> <path d="M466.843 239.319L465.526 240.336L490.104 272.158L491.42 271.142L466.843 239.319Z" fill="#E0DFE6"></path> <path d="M448.534 263.812C449.709 263.812 450.74 263.812 451.698 263.812C452.656 263.812 453.506 263.812 454.554 263.812L454.663 262.167C453.657 262.113 452.649 262.113 451.644 262.167C450.703 262.167 449.709 262.167 448.57 262.167C447.498 262.103 446.424 262.103 445.352 262.167L445.515 263.812C446.52 263.757 447.528 263.757 448.534 263.812Z" fill="#E0DFE6"></path> <path d="M541.703 233.278H505.545V235.086H541.703V233.278Z" fill="#E0DFE6"></path> <path d="M527.891 241.975C531.62 241.587 535.373 241.472 539.119 241.632L539.245 239.987C535.415 239.807 531.577 239.922 527.765 240.33C525.089 240.547 522.341 240.782 519.647 240.782C517.119 240.812 514.595 240.551 512.126 240.005L511.747 241.614C514.34 242.189 516.991 242.462 519.647 242.427C522.413 242.427 525.198 242.21 527.891 241.975Z" fill="#E0DFE6"></path> <path d="M493.625 243.565C491.221 240.329 488.816 237.092 486.393 233.91C482.331 228.566 477.986 223.442 473.376 218.561L472.165 219.7C476.75 224.534 481.065 229.616 485.092 234.923C487.551 238.105 497.133 250.995 499.555 254.195C503.618 259.54 507.963 264.664 512.572 269.545L513.765 268.406C509.198 263.561 504.895 258.473 500.875 253.165C498.344 250.001 496.03 246.783 493.625 243.565Z" fill="#E0DFE6"></path> <path d="M476.142 209.775C484.223 219.05 492.522 229.229 501.453 240.872C508.45 249.911 515.916 259.981 524.956 272.474L526.294 271.498C517.254 258.987 509.715 248.935 502.791 239.859C493.751 228.18 485.435 217.983 477.335 208.69L476.142 209.775Z" fill="#E0DFE6"></path> <path d="M534.778 248.32H538.105V246.656H534.797C529.115 246.468 523.427 246.631 517.766 247.144L518.001 248.79C523.579 248.299 529.182 248.142 534.778 248.32Z" fill="#E0DFE6"></path> <path d="M531.629 269.689C530.998 269.636 530.363 269.636 529.731 269.689L529.966 271.334C530.495 271.281 531.028 271.281 531.557 271.334C532.424 271.402 533.296 271.335 534.142 271.136L533.672 269.545C533.003 269.698 532.314 269.747 531.629 269.689Z" fill="#E0DFE6"></path> <path d="M524.069 255.315C524.599 255.288 525.13 255.288 525.66 255.315C527.739 255.315 533.778 255.406 535.55 255.315V253.67C533.742 253.67 527.848 253.67 525.787 253.67C525.19 253.67 524.648 253.67 523.979 253.67C523.04 253.729 522.098 253.729 521.159 253.67V255.334H522.117C522.822 255.388 523.473 255.352 524.069 255.315Z" fill="#E0DFE6"></path> <path d="M527.751 263.812C528.926 263.812 529.957 263.812 530.915 263.812C531.873 263.812 532.723 263.812 533.772 263.812L533.88 262.167C532.874 262.113 531.867 262.113 530.861 262.167C529.921 262.167 528.926 262.167 527.787 262.167C526.71 262.103 525.629 262.103 524.551 262.167L524.732 263.812C525.738 263.757 526.746 263.757 527.751 263.812Z" fill="#E0DFE6"></path> <path d="M444.87 255.315C445.4 255.288 445.931 255.288 446.461 255.315C448.54 255.315 454.579 255.406 456.35 255.315V253.67C454.542 253.67 448.649 253.67 446.588 253.67C446.009 253.67 445.449 253.67 444.78 253.67C443.84 253.729 442.898 253.729 441.959 253.67V255.334H442.899C443.623 255.388 444.273 255.352 444.87 255.315Z" fill="#E0DFE6"></path> <path d="M452.014 269.688C451.51 269.634 451 269.634 450.496 269.688L450.821 271.315C451.187 271.27 451.558 271.27 451.924 271.315H452.593C453.08 271.328 453.564 271.248 454.021 271.08L453.407 269.526C452.959 269.676 452.485 269.732 452.014 269.688Z" fill="#E0DFE6"></path> <path d="M462.38 260.071L461.404 261.39C465.766 264.975 469.622 269.135 472.866 273.757L474.168 272.744C470.835 268.001 466.869 263.737 462.38 260.071Z" fill="#E0DFE6"></path> <path d="M462.139 233.278H425.981V235.086H462.139V233.278Z" fill="#E0DFE6"></path> <path d="M410.331 208.547L410.421 210.21C421.504 209.559 433.364 209.234 446.67 209.234C454.824 209.234 458.946 209.396 464.659 209.613L473.879 209.921V208.275C470.155 208.167 467.262 208.058 464.677 207.95C458.946 207.733 454.788 207.588 446.598 207.588C433.255 207.588 421.45 207.968 410.331 208.547Z" fill="#E0DFE6"></path> <path d="M468.448 224.401C464.832 224.726 460.872 224.889 456.335 224.889C451.797 224.889 447.06 224.726 442.504 224.563C437.948 224.401 433.283 224.238 428.691 224.238C426.16 224.238 423.864 224.238 421.677 224.383V226.046H422.418C424.388 226.046 426.449 225.937 428.691 225.937C433.247 225.937 437.93 226.1 442.45 226.245C446.969 226.389 451.724 226.57 456.335 226.57C460.945 226.57 464.94 226.408 468.592 226.082L468.448 224.401Z" fill="#E0DFE6"></path> <path d="M448.529 240.33C445.854 240.547 443.106 240.782 440.412 240.782C437.883 240.812 435.36 240.551 432.891 240.005L432.511 241.614C435.104 242.189 437.756 242.462 440.412 242.427C443.178 242.427 445.962 242.21 448.674 241.975C452.397 241.586 456.143 241.472 459.883 241.632L460.01 239.987C456.18 239.807 452.342 239.922 448.529 240.33Z" fill="#E0DFE6"></path> <path d="M456.771 266.816C457.979 267.947 459.036 269.229 459.917 270.63C460.477 271.426 461.092 272.438 461.996 273.505L463.298 272.492C462.43 271.353 461.833 270.468 461.291 269.69C460.332 268.198 459.197 266.826 457.91 265.604L456.771 266.816Z" fill="#E0DFE6"></path> <path d="M455.215 248.32H458.541V246.656H455.233C449.551 246.468 443.864 246.631 438.202 247.144L438.437 248.79C444.015 248.299 449.618 248.142 455.215 248.32Z" fill="#E0DFE6"></path> <path d="M469.673 216.464C466.718 216.767 463.741 216.803 460.778 216.572C458.881 216.367 456.963 216.514 455.119 217.006H433.316C427.281 216.274 421.181 216.274 415.146 217.006L415.327 218.651C421.307 217.932 427.357 218.011 433.316 218.886H455.119C456.902 218.277 458.798 218.073 460.67 218.29C463.728 218.539 466.803 218.503 469.854 218.181L469.673 216.464Z" fill="#E0DFE6"></path> <path d="M410.331 278.094L410.421 279.758C421.504 279.089 433.364 278.781 446.67 278.781C454.824 278.781 458.946 278.944 464.659 279.143C467.262 279.251 470.173 279.36 473.879 279.468V277.805L464.677 277.498C458.946 277.281 454.788 277.118 446.598 277.118C433.255 277.118 421.45 277.443 410.331 278.094Z" fill="#E0DFE6"></path> <path d="M425.981 301.979V303.209L429.47 301.979H425.981Z" fill="#E0DFE6"></path> <path d="M469.612 286.015C469.65 286.083 469.68 286.156 469.702 286.232V286.015H469.612Z" fill="#E0DFE6"></path> <path d="M428.691 292.939C426.16 292.939 423.864 292.939 421.677 293.084V294.747H422.418C424.388 294.747 426.449 294.639 428.691 294.639C433.247 294.639 437.93 294.801 442.45 294.946L447.783 295.127L451.29 293.554L442.504 293.301C437.966 293.102 433.265 292.939 428.691 292.939Z" fill="#E0DFE6"></path> <path d="M460.778 286.106C459.097 286.015 457.361 285.907 455.119 285.708H433.316C427.249 285.612 421.182 285.872 415.146 286.486L415.327 288.131C421.302 287.506 427.313 287.3 433.316 287.516H455.119C457.325 287.516 459.025 287.661 460.67 287.769L462.749 287.878L465.569 286.269C463.96 286.287 462.387 286.196 460.778 286.106Z" fill="#E0DFE6"></path> <path d="M289.71 241.975C293.439 241.586 297.192 241.471 300.938 241.631V241.052C296.99 241.167 293.04 240.937 289.132 240.365C286.601 240.564 283.979 240.781 281.412 240.781C278.889 240.812 276.372 240.551 273.909 240.004L273.529 241.613C276.116 242.19 278.762 242.463 281.412 242.427C284.214 242.427 287.017 242.21 289.71 241.975Z" fill="#E0DFE6"></path> <path d="M289.588 263.812C290.763 263.812 291.794 263.812 292.752 263.812C293.71 263.812 294.56 263.812 295.609 263.812V262.167C294.609 262.113 293.607 262.113 292.608 262.167C291.667 262.167 290.673 262.167 289.516 262.167C288.444 262.103 287.37 262.103 286.298 262.167L286.479 263.812C287.514 263.753 288.553 263.753 289.588 263.812Z" fill="#E0DFE6"></path> <path d="M298.928 265.604L297.789 266.816C298.987 267.956 300.043 269.237 300.935 270.63C301.477 271.426 302.11 272.438 302.996 273.505L304.316 272.492C303.448 271.353 302.833 270.468 302.309 269.69C301.35 268.198 300.215 266.826 298.928 265.604Z" fill="#E0DFE6"></path> <path d="M313.957 273.758L315.277 272.746C311.939 268.013 307.973 263.756 303.49 260.09L302.495 261.41C306.856 264.989 310.712 269.143 313.957 273.758Z" fill="#E0DFE6"></path> <path d="M285.888 255.315C286.449 255.315 286.955 255.315 287.479 255.315C289.558 255.315 295.615 255.406 297.387 255.315L297.296 253.67C295.488 253.67 289.576 253.67 287.515 253.67C286.937 253.67 286.395 253.67 285.708 253.67C284.762 253.729 283.814 253.729 282.869 253.67V255.334H283.827C284.659 255.388 285.31 255.352 285.888 255.315Z" fill="#E0DFE6"></path> <path d="M414.992 243.565C412.588 240.329 410.183 237.092 407.761 233.91C403.698 228.566 399.353 223.442 394.743 218.561L393.55 219.7C398.118 224.543 402.427 229.625 406.459 234.923C408.918 238.105 418.5 250.995 420.922 254.195C424.985 259.54 429.33 264.664 433.939 269.545L435.133 268.406C430.559 263.567 426.25 258.486 422.224 253.183C419.783 250.001 417.397 246.783 414.992 243.565Z" fill="#E0DFE6"></path> <path d="M325.095 248.138C328.042 252.242 331.098 256.491 334.225 260.54C337.353 264.59 340.173 267.953 342.939 270.918L344.151 269.797C341.421 266.85 338.6 263.487 335.527 259.528C332.453 255.569 329.38 251.266 326.487 247.18C323.974 243.708 321.407 240.147 318.785 236.694L316.978 237.164C319.78 240.762 322.474 244.504 325.095 248.138Z" fill="#E0DFE6"></path> <path d="M306.69 240.292L331.26 272.111L332.58 271.099L308.028 239.334H307.901L306.69 240.292Z" fill="#E0DFE6"></path> <path d="M384.884 209.612L394.104 209.919V208.274C390.398 208.165 382.352 207.858 381.141 207.822L378.483 209.395L384.884 209.612Z" fill="#E0DFE6"></path> <path d="M293.034 269.688C292.529 269.634 292.02 269.634 291.515 269.688L291.84 271.315C292.201 271.27 292.565 271.27 292.925 271.315H293.594C294.081 271.328 294.565 271.248 295.022 271.08L294.408 269.526C293.966 269.677 293.498 269.733 293.034 269.688Z" fill="#E0DFE6"></path> <path d="M266.891 234.146V235.086H269.386L266.891 234.146Z" fill="#E0DFE6"></path> <path d="M315.415 262.386C311.329 257.703 306.701 252.388 305.128 250.345L303.808 251.357C305.418 253.437 310.064 258.77 314.168 263.471C317.35 267.086 320.333 270.521 321.128 271.552C321.924 272.583 322.539 273.36 323.135 274.336L324.527 273.432C323.895 272.492 323.208 271.534 322.448 270.54C321.689 269.545 318.742 266.182 315.415 262.386Z" fill="#E0DFE6"></path> <path d="M296.124 248.32H299.45V246.656H296.142C290.46 246.468 284.772 246.631 279.111 247.144L279.346 248.79C284.924 248.299 290.527 248.142 296.124 248.32Z" fill="#E0DFE6"></path> <path d="M381.031 216.573C379.349 216.465 377.632 216.374 375.39 216.374C372.497 216.374 369.623 216.374 366.766 216.266L363.855 217.893C364.054 217.893 371.738 218.02 375.39 218.02C377.578 218.02 379.277 218.128 380.94 218.218C383.993 218.467 387.061 218.431 390.107 218.11L389.926 216.465C386.971 216.777 383.993 216.813 381.031 216.573Z" fill="#E0DFE6"></path> <path d="M368.751 263.812C369.945 263.812 370.957 263.812 371.933 263.812C372.91 263.812 373.741 263.812 374.772 263.812L374.88 262.167C373.875 262.113 372.867 262.113 371.861 262.167C370.939 262.167 369.945 262.167 368.788 262.167C367.716 262.103 366.641 262.103 365.569 262.167L365.75 263.812C366.75 263.757 367.752 263.757 368.751 263.812Z" fill="#E0DFE6"></path> <path d="M375.687 248.32H379.014V246.656H375.705C370.024 246.468 364.336 246.631 358.675 247.144L358.91 248.79C364.488 248.299 370.09 248.142 375.687 248.32Z" fill="#E0DFE6"></path> <path d="M376.4 226.046C380.974 226.046 384.987 225.884 388.657 225.558L388.495 223.913C384.879 224.238 380.938 224.401 376.4 224.401C371.862 224.401 367.107 224.238 362.569 224.076C359.279 223.967 355.916 223.859 352.571 223.805L352.192 224.003L349.263 225.414C353.656 225.414 358.14 225.576 362.515 225.721C366.89 225.866 371.771 226.046 376.4 226.046Z" fill="#E0DFE6"></path> <path d="M386.073 238.284L384.759 239.298L409.286 271.063L410.6 270.048L386.073 238.284Z" fill="#E0DFE6"></path> <path d="M326.076 234.924C328.535 238.106 338.135 250.997 340.54 254.197C344.603 259.546 348.954 264.67 353.575 269.546L354.768 268.407C350.195 263.568 345.886 258.487 341.86 253.184C339.401 250.002 329.873 237.202 327.396 234.056L325.733 234.599L326.076 234.924Z" fill="#E0DFE6"></path> <path d="M396.462 235.882C399.553 239.878 402.572 244.072 405.501 248.14C408.43 252.208 411.486 256.492 414.541 260.542C417.596 264.592 420.489 267.937 423.255 270.92L424.485 269.799C421.736 266.852 418.916 263.489 415.861 259.53C412.805 255.57 409.714 251.268 406.821 247.182C403.928 243.096 400.855 238.883 397.781 234.87C396.064 232.646 394.473 230.675 392.9 228.831L391.616 229.862L392.086 230.476C393.479 232.122 394.943 233.911 396.462 235.882Z" fill="#E0DFE6"></path> <path d="M379.114 265.495L378.265 266.923C380.51 268.548 382.363 270.654 383.688 273.088L385.207 272.419C383.73 269.677 381.646 267.308 379.114 265.495Z" fill="#E0DFE6"></path> <path d="M383.051 258.136L381.804 259.221L385.149 263.053C388.312 266.669 391.874 270.701 394.188 273.756L395.49 272.744C393.103 269.652 389.506 265.512 386.342 261.896L383.051 258.136Z" fill="#E0DFE6"></path> <path d="M382.613 233.278H346.454V235.086H382.613V233.278Z" fill="#E0DFE6"></path> <path d="M368.91 241.975C372.633 241.586 376.379 241.471 380.119 241.631L380.245 239.986C376.415 239.808 372.577 239.922 368.765 240.33C366.107 240.547 363.341 240.782 360.647 240.782C358.119 240.811 355.595 240.55 353.126 240.004L352.765 241.613C355.352 242.19 357.997 242.463 360.647 242.427C363.414 242.427 366.216 242.21 368.91 241.975Z" fill="#E0DFE6"></path> <path d="M365.087 255.315C365.617 255.289 366.148 255.289 366.678 255.315C368.757 255.315 374.813 255.406 376.567 255.315L376.476 253.67C374.759 253.67 368.775 253.67 366.714 253.67C366.135 253.67 365.593 253.67 364.906 253.67C363.961 253.729 363.013 253.729 362.067 253.67V255.334H363.026C363.857 255.388 364.526 255.352 365.087 255.315Z" fill="#E0DFE6"></path> <path d="M397.526 209.775C405.608 219.05 413.906 229.21 422.837 240.872C429.834 249.911 437.301 259.963 446.34 272.474L447.678 271.498C438.638 258.987 431.099 248.935 424.175 239.859C415.135 228.18 406.819 217.983 398.719 208.69L397.526 209.775Z" fill="#E0DFE6"></path> <path d="M396.81 263.615C394.821 261.427 392.742 259.167 390.916 256.799C389.09 254.431 387.101 252.116 385.094 249.983L383.883 251.104C385.854 253.219 387.951 255.66 389.614 257.811C391.278 259.963 393.574 262.53 395.599 264.736C397.623 266.941 399.666 269.183 401.492 271.552C402.234 272.51 402.885 273.36 403.481 274.336L404.873 273.432C404.24 272.474 403.572 271.533 402.794 270.539C400.932 268.117 398.889 265.821 396.81 263.615Z" fill="#E0DFE6"></path> <path d="M342.575 240.815C349.572 249.855 357.039 259.925 366.078 272.418L367.416 271.442C358.377 258.931 350.838 248.879 343.823 239.803C341.412 236.705 339.062 233.692 336.772 230.763L335.145 231.36C337.592 234.434 340.068 237.585 342.575 240.815Z" fill="#E0DFE6"></path> <path d="M372.703 269.689C372.065 269.636 371.424 269.636 370.786 269.689L371.021 271.334C371.556 271.281 372.095 271.281 372.631 271.334C373.491 271.401 374.357 271.334 375.198 271.136L374.746 269.545C374.076 269.698 373.387 269.747 372.703 269.689Z" fill="#E0DFE6"></path> <path d="M150.331 223.931C146.715 224.256 142.756 224.419 138.236 224.419C134.62 224.419 130.896 224.31 127.244 224.184C127.605 224.744 127.967 225.323 128.347 225.865C131.637 225.974 134.946 226.064 138.236 226.064C142.81 226.064 146.824 225.901 150.476 225.576L150.331 223.931Z" fill="#E0DFE6"></path> <path d="M142.155 239.985C141.179 239.985 140.148 239.894 139.1 239.894L140.51 241.576C141.016 241.576 141.54 241.576 142.028 241.576L142.155 239.985Z" fill="#E0DFE6"></path> <path d="M224.938 251.104C226.908 253.219 228.987 255.66 230.651 257.811C232.314 259.963 234.61 262.53 236.635 264.736C238.66 266.941 240.703 269.183 242.529 271.552C243.27 272.51 243.939 273.36 244.536 274.336L245.928 273.432C245.295 272.474 244.608 271.533 243.849 270.539C242.041 268.117 239.889 265.821 237.864 263.615C235.839 261.409 233.796 259.167 231.97 256.799C230.144 254.431 228.156 252.116 226.149 249.983L224.938 251.104Z" fill="#E0DFE6"></path> <path d="M233.143 230.458C234.553 232.122 235.981 233.911 237.5 235.882C240.573 239.878 243.611 244.072 246.54 248.14C249.468 252.208 252.542 256.492 255.67 260.542C258.797 264.592 261.618 267.937 264.384 270.92L265.595 269.799C262.865 266.852 260.045 263.489 256.971 259.53C253.898 255.57 250.824 251.268 247.932 247.182C245.039 243.096 241.965 238.883 238.892 234.87C237.193 232.646 235.583 230.675 234.029 228.831L232.745 229.862L233.215 230.476L233.143 230.458Z" fill="#E0DFE6"></path> <path d="M227.383 238.069L226.069 239.084L250.596 270.848L251.91 269.834L227.383 238.069Z" fill="#E0DFE6"></path> <path d="M151.793 216.463C148.837 216.766 145.86 216.802 142.898 216.571C141.217 216.463 139.481 216.372 137.239 216.372C133.623 216.372 124.041 216.21 122.866 216.192C123.137 216.752 123.391 217.312 123.68 217.855C124.548 217.855 133.605 218.018 137.239 218.018C139.445 218.018 141.144 218.126 142.79 218.216C145.848 218.466 148.922 218.429 151.974 218.108L151.793 216.463Z" fill="#E0DFE6"></path> <path d="M247.477 234.922C249.936 238.104 259.536 250.994 261.94 254.194C266.003 259.544 270.355 264.668 274.976 269.544L276.169 268.405C271.607 263.559 267.31 258.472 263.296 253.164C260.838 249.982 251.238 237.073 248.833 233.891C244.512 228.305 240.715 223.785 237.027 219.826L235.219 219.03L234.532 219.681C239.118 224.525 243.44 229.612 247.477 234.922Z" fill="#E0DFE6"></path> <path d="M213.615 271.352C214.501 271.456 215.398 271.419 216.272 271.243L215.802 269.652C215.132 269.8 214.443 269.842 213.759 269.779C213.158 269.73 212.553 269.73 211.951 269.779L212.186 271.424C212.659 271.357 213.137 271.332 213.615 271.352Z" fill="#E0DFE6"></path> <path d="M263.972 240.817C270.95 249.857 278.435 259.909 287.475 272.42L288.812 271.444C279.773 258.933 272.216 248.881 265.309 239.805C262.489 236.189 259.723 232.573 257.011 229.247L253.648 227.692C256.975 231.868 260.41 236.225 263.972 240.817Z" fill="#E0DFE6"></path> <path d="M215.845 263.777L215.954 262.132C214.948 262.078 213.94 262.078 212.934 262.132C211.994 262.132 211 262.132 209.861 262.132C208.783 262.067 207.703 262.067 206.625 262.132L206.806 263.777C207.811 263.721 208.819 263.721 209.825 263.777C211 263.777 212.031 263.777 212.989 263.777C213.947 263.777 214.869 263.723 215.845 263.777Z" fill="#E0DFE6"></path> <path d="M148.952 239.298L147.636 240.315L172.213 272.137L173.53 271.121L148.952 239.298Z" fill="#E0DFE6"></path> <path d="M183.981 270.92L185.21 269.799C182.462 266.852 179.642 263.489 176.586 259.53C173.531 255.57 170.439 251.268 167.547 247.182C164.654 243.096 161.58 238.883 158.507 234.87C156.789 232.646 155.199 230.675 153.626 228.831L152.342 229.862L152.812 230.476C154.204 232.14 155.632 233.929 157.169 235.9C160.243 239.896 163.262 244.09 166.209 248.158C169.156 252.226 172.193 256.511 175.248 260.56C178.304 264.61 181.215 267.955 183.981 270.92Z" fill="#E0DFE6"></path> <path d="M195.839 268.406C191.266 263.567 186.957 258.486 182.93 253.183C180.472 250.001 170.872 237.092 168.467 233.91C164.405 228.566 160.059 223.442 155.45 218.561L154.239 219.7C158.823 224.534 163.139 229.616 167.165 234.923C169.624 238.105 179.206 250.995 181.629 254.195C185.691 259.54 190.036 264.664 194.646 269.545L195.839 268.406Z" fill="#E0DFE6"></path> <path d="M217.55 253.617C215.742 253.617 209.848 253.617 207.787 253.617C207.191 253.617 206.648 253.617 205.979 253.617C205.04 253.675 204.098 253.675 203.159 253.617V255.28H204.117C204.913 255.28 205.563 255.28 206.16 255.28C206.69 255.253 207.221 255.253 207.751 255.28C209.83 255.28 215.869 255.37 217.64 255.28L217.55 253.617Z" fill="#E0DFE6"></path> <path d="M183.727 226.044C185.697 226.044 187.758 225.936 190 225.936C194.556 225.936 199.239 226.099 203.759 226.243C208.278 226.388 213.033 226.569 217.643 226.569C222.254 226.569 226.231 226.406 229.901 226.081L229.757 224.435C226.141 224.761 222.181 224.923 217.643 224.923C213.106 224.923 208.369 224.761 203.813 224.598C199.257 224.435 194.592 224.273 190 224.273C187.469 224.273 185.173 224.273 182.986 224.417V226.081L183.727 226.044Z" fill="#E0DFE6"></path> <path d="M171.693 210.208C182.776 209.557 194.636 209.232 207.852 209.232C210.509 209.232 212.715 209.232 214.722 209.232L211.449 207.533H207.834C194.491 207.533 182.523 207.84 171.494 208.491L171.693 210.208Z" fill="#E0DFE6"></path> <path d="M219.924 246.692H216.615C210.934 246.504 205.246 246.667 199.584 247.18L199.819 248.825C205.397 248.329 211 248.166 216.597 248.337H219.924V246.692Z" fill="#E0DFE6"></path> <path d="M194.608 218.815C188.83 216.699 182.611 216.077 176.528 217.007L176.709 218.652C181.952 218.092 187.683 217.839 194.698 217.08H216.502C218.248 217.865 220.138 218.277 222.052 218.291C225.11 218.54 228.185 218.504 231.236 218.182L231.128 217.188L229.935 216.646C227.347 216.845 224.748 216.845 222.161 216.646C221.103 216.475 220.019 216.593 219.023 216.988C218.027 217.383 217.156 218.039 216.502 218.887L194.608 218.815Z" fill="#E0DFE6"></path> <path d="M158.179 209.775C166.26 219.05 174.558 229.229 183.49 240.872C190.486 249.911 197.953 259.981 206.993 272.474L208.33 271.498C199.291 258.987 191.752 248.935 184.827 239.859C175.788 228.18 167.471 217.983 159.372 208.69L158.179 209.775Z" fill="#E0DFE6"></path> <path d="M224.816 273.052L226.317 272.384C224.842 269.634 222.75 267.264 220.206 265.459L219.356 266.887C221.61 268.513 223.475 270.619 224.816 273.052Z" fill="#E0DFE6"></path> <path d="M209.965 241.975C213.694 241.587 217.446 241.472 221.192 241.632L221.319 239.987C217.489 239.807 213.651 239.922 209.838 240.33C207.163 240.547 204.415 240.782 201.721 240.782C199.192 240.812 196.669 240.551 194.2 240.005L193.82 241.614C196.413 242.189 199.065 242.462 201.721 242.427C204.487 242.427 207.271 242.21 209.965 241.975Z" fill="#E0DFE6"></path> <path d="M236.58 272.745C234.176 269.654 230.596 265.514 227.432 261.898C226.203 260.506 225.046 259.186 224.088 258.065L222.822 259.15L226.185 262.983C229.331 266.598 232.91 270.63 235.224 273.685L236.58 272.745Z" fill="#E0DFE6"></path> <path d="M143.969 233.278H131.584L132.995 235.086H143.969V233.278Z" fill="#E0DFE6"></path> <path d="M128.752 209.234C136.906 209.234 141.028 209.396 146.831 209.613L156.052 209.921V208.275C152.345 208.167 149.453 208.058 146.849 207.95C141.118 207.733 136.96 207.588 128.77 207.588H119.984C120.092 208.149 120.219 208.691 120.363 209.252C123.093 209.252 125.914 209.234 128.752 209.234Z" fill="#E0DFE6"></path> <path d="M223.522 233.278H187.363V235.086H223.522V233.278Z" fill="#E0DFE6"></path> <path d="M310.747 286.016C307.785 286.323 304.801 286.353 301.834 286.106C300.17 286.015 298.435 285.907 296.193 285.708H274.389C268.317 285.612 262.244 285.871 256.202 286.486L256.382 288.131C262.387 287.502 268.428 287.297 274.462 287.516H296.265C298.453 287.516 300.17 287.661 301.816 287.769C304.868 288.018 307.936 287.982 310.982 287.661L310.747 286.016Z" fill="#E0DFE6"></path> <path d="M303.049 301.979H266.891V303.787H303.049V301.979Z" fill="#E0DFE6"></path> <path d="M326.473 316.732C323.526 312.646 320.507 308.434 317.434 304.42C315.734 302.197 314.125 300.226 312.57 298.364L311.287 299.412L311.757 300.027C313.149 301.69 314.595 303.462 316.114 305.451C319.187 309.428 322.225 313.641 325.153 317.709C326.636 319.77 328.137 321.849 329.655 323.928L331.572 323.729C329.818 321.379 328.118 319.028 326.473 316.732Z" fill="#E0DFE6"></path> <path d="M330.585 278.094L330.676 279.758C341.776 279.089 353.618 278.781 366.943 278.781C375.079 278.781 379.219 278.944 384.932 279.143C387.535 279.251 390.355 279.36 394.152 279.468V277.805L384.95 277.498C379.219 277.281 375.079 277.118 366.871 277.118C353.6 277.118 341.704 277.443 330.585 278.094Z" fill="#E0DFE6"></path> <path d="M305.128 319.894L303.808 320.906C304.514 321.828 305.851 323.401 307.424 325.245H309.558C307.587 322.913 305.942 320.961 305.128 319.894Z" fill="#E0DFE6"></path> <path d="M301.065 309.536C297.229 309.357 293.385 309.472 289.567 309.88C286.909 310.097 284.143 310.332 281.449 310.332C278.927 310.362 276.409 310.102 273.946 309.554L273.567 311.163C276.155 311.731 278.799 312.004 281.449 311.977C284.215 311.977 287.018 311.742 289.711 311.525C293.44 311.136 297.193 311.021 300.939 311.182L301.065 309.536Z" fill="#E0DFE6"></path> <path d="M296.124 317.872H299.45V316.227H296.142C290.46 316.038 284.772 316.201 279.111 316.715L279.346 318.36C284.923 317.854 290.526 317.691 296.124 317.872Z" fill="#E0DFE6"></path> <path d="M394.78 288.095L393.514 289.325C398.082 294.161 402.391 299.237 406.423 304.529C407.562 306.012 408.664 307.513 409.785 309.013L411.485 308.525C410.237 306.862 409.008 305.18 407.724 303.517C403.687 298.149 399.366 293.002 394.78 288.095Z" fill="#E0DFE6"></path> <path d="M375.705 316.226C370.024 316.038 364.336 316.202 358.675 316.715L358.91 318.36C362.806 317.935 366.725 317.766 370.643 317.854C373.427 317.329 376.23 316.805 379.014 316.244L375.705 316.226Z" fill="#E0DFE6"></path> <path d="M297.387 324.813L297.296 323.15C295.488 323.258 289.576 323.15 287.515 323.15C286.937 323.15 286.395 323.15 285.708 323.15C284.762 323.209 283.814 323.209 282.869 323.15V324.09C285.454 324.361 288.022 324.578 290.607 324.741C293.192 324.903 296.212 324.867 297.387 324.813Z" fill="#E0DFE6"></path> <path d="M307.882 308.832L306.581 309.844L318.133 324.814L320.14 324.706L307.882 308.832Z" fill="#E0DFE6"></path> <path d="M397.526 279.253C404.577 287.371 411.809 296.157 419.547 306.029L421.228 305.504C413.346 295.416 405.969 286.431 398.774 278.168L397.526 279.253Z" fill="#E0DFE6"></path> <path d="M309.356 293.102C305.741 293.427 301.781 293.59 297.243 293.59C292.705 293.59 287.969 293.427 283.413 293.265C278.857 293.102 274.192 292.939 269.6 292.939C267.069 292.939 264.773 292.939 262.585 293.084V294.747H263.327C265.297 294.747 267.358 294.639 269.6 294.639C274.156 294.639 278.839 294.801 283.358 294.946C287.878 295.091 292.633 295.271 297.243 295.271C301.854 295.271 305.849 295.109 309.501 294.783L309.356 293.102Z" fill="#E0DFE6"></path> <path d="M397.781 304.42C396.064 302.197 394.473 300.226 392.9 298.364L391.616 299.412L392.086 300.027C393.479 301.69 394.907 303.48 396.425 305.451C397.944 307.421 399.39 309.338 400.837 311.327L402.645 310.893C401.018 308.705 399.409 306.536 397.781 304.42Z" fill="#E0DFE6"></path> <path d="M343.845 309.355C334.806 297.676 326.507 287.479 318.408 278.168L317.16 279.253C325.242 288.546 333.54 298.725 342.471 310.368C345.129 313.803 347.895 317.401 350.715 321.215L352.523 320.926C349.576 316.84 346.666 313.007 343.845 309.355Z" fill="#E0DFE6"></path> <path d="M334.681 313.099C332.276 309.881 329.871 306.645 327.449 303.445C323.381 298.099 319.03 292.975 314.414 288.095L313.22 289.252C317.79 294.089 322.098 299.164 326.129 304.457C328.588 307.657 337.7 319.879 339.905 322.753L341.713 322.518C339.363 319.391 337.013 316.245 334.681 313.099Z" fill="#E0DFE6"></path> <path d="M251.35 278.094L251.459 279.758C262.541 279.089 274.401 278.781 287.707 278.781C295.843 278.781 299.983 278.944 305.696 279.143C308.3 279.251 311.12 279.36 314.917 279.468V277.805L305.714 277.498C299.983 277.281 295.843 277.118 287.635 277.118C274.365 277.118 262.469 277.443 251.35 278.094Z" fill="#E0DFE6"></path> <path d="M368.91 311.525C372.633 311.136 376.379 311.021 380.119 311.181L380.245 309.536C376.415 309.357 372.577 309.472 368.765 309.88C366.107 310.097 363.341 310.332 360.647 310.332C358.119 310.361 355.595 310.1 353.126 309.554L352.765 311.163C355.353 311.731 357.998 312.004 360.647 311.977C363.414 311.977 366.216 311.742 368.91 311.525Z" fill="#E0DFE6"></path> <path d="M388.304 308.832L386.984 309.844L390.111 313.894L391.919 313.497L388.304 308.832Z" fill="#E0DFE6"></path> <path d="M389.856 286.016C386.9 286.323 383.922 286.353 380.961 286.106C379.279 286.015 377.562 285.907 375.32 285.708H353.589C347.516 285.612 341.443 285.871 335.401 286.486L335.582 288.131C341.586 287.502 347.627 287.297 353.661 287.516H375.392C377.58 287.516 379.279 287.661 380.943 287.769C383.995 288.018 387.063 287.982 390.109 287.661L389.856 286.016Z" fill="#E0DFE6"></path> <path d="M382.613 301.979H346.454V303.787H382.613V301.979Z" fill="#E0DFE6"></path> <path d="M388.884 293.102C385.268 293.427 381.309 293.59 376.771 293.59C372.233 293.59 367.496 293.427 362.94 293.265C358.384 293.102 353.72 292.939 349.128 292.939C346.597 292.939 344.3 292.939 342.113 293.084V294.747H342.854C344.825 294.747 346.886 294.639 349.128 294.639C353.684 294.639 358.366 294.801 362.886 294.946C367.406 295.091 372.161 295.271 376.771 295.271C381.381 295.271 385.359 295.109 389.029 294.783L388.884 293.102Z" fill="#E0DFE6"></path> <path d="M247.75 316.533C244.857 312.502 241.874 308.362 238.819 304.42C237.119 302.197 235.51 300.226 233.955 298.364L232.672 299.412L233.142 300.027C234.552 301.69 235.98 303.48 237.499 305.451C240.03 308.741 242.525 312.158 244.966 315.557L247.262 316.389L247.75 316.533Z" fill="#E0DFE6"></path> <path d="M136.736 331.665C135.67 331.665 134.73 331.665 133.717 331.665C132.705 331.665 131.783 331.665 130.644 331.665C129.572 331.601 128.497 331.601 127.426 331.665L127.588 333.31C128.593 333.237 129.602 333.237 130.608 333.31C131.783 333.31 132.813 333.31 133.771 333.31C134.723 333.256 135.677 333.256 136.628 333.31L136.736 331.665Z" fill="#E0DFE6"></path> <path d="M247.477 304.457C249.936 307.657 257.674 317.998 259.138 319.951L261.705 320.602C259.807 318.107 251.256 306.645 248.797 303.445C244.729 298.099 240.377 292.976 235.762 288.095L234.568 289.252C239.142 294.085 243.451 299.16 247.477 304.457Z" fill="#E0DFE6"></path> <path d="M205.473 287.515C209.089 287.515 212.705 287.641 216.321 287.641C218.526 287.641 220.226 287.732 221.871 287.84C224.929 288.089 228.004 288.053 231.055 287.732L230.874 286.086C227.919 286.394 224.941 286.424 221.979 286.177C220.298 286.086 218.562 285.978 216.321 285.978C212.705 285.978 190.612 285.743 188.786 285.779L191.082 287.406H194.517C198.241 287.298 201.857 287.37 205.473 287.515Z" fill="#E0DFE6"></path> <path d="M229.694 295.109L229.55 293.464C225.934 293.789 221.974 293.952 217.454 293.952C212.935 293.952 208.162 293.789 203.606 293.645L200.496 293.536L203.298 295.344H203.642C208.198 295.507 212.917 295.67 217.545 295.67C222.173 295.67 226.042 295.453 229.694 295.109Z" fill="#E0DFE6"></path> <path d="M225.936 279.143C228.539 279.251 231.359 279.36 235.156 279.468V277.805L225.954 277.498C220.222 277.281 216.064 277.118 207.874 277.118C197.153 277.118 187.372 277.335 178.17 277.751L180.177 279.324C188.783 278.962 197.931 278.781 207.874 278.781C216.1 278.781 220.223 278.944 225.936 279.143Z" fill="#E0DFE6"></path> <path d="M223.527 301.979H214.65L218.085 303.787H223.509L223.527 301.979Z" fill="#E0DFE6"></path> <path d="M229.331 308.832L229.06 309.049L229.729 309.356L229.331 308.832Z" fill="#E0DFE6"></path> <path d="M265.267 309.355C256.227 297.676 247.929 287.479 239.829 278.168L238.582 279.253C246.645 288.528 254.961 298.707 263.893 310.368C266.948 314.327 270.112 318.503 273.475 323.023L275.789 323.349C272.137 318.25 268.72 313.73 265.267 309.355Z" fill="#E0DFE6"></path> <path d="M512.551 146.496C506.484 146.447 500.418 146.731 494.382 147.346L494.562 148.991C500.539 148.383 506.544 148.105 512.551 148.159C516.167 148.159 528.316 148.358 530.757 148.376C530.54 147.816 530.305 147.274 530.07 146.713C527.864 146.749 516.203 146.496 512.551 146.496Z" fill="#E0DFE6"></path> <path d="M419.395 138.56C419.395 139.103 419.395 139.663 419.269 140.224C427.784 139.862 436.824 139.699 446.659 139.699C454.813 139.699 458.935 139.844 464.648 140.061L473.868 140.368V138.723L464.666 138.416C458.935 138.199 454.777 138.036 446.587 138.036C436.86 138.036 427.82 138.217 419.395 138.56Z" fill="#E0DFE6"></path> <path d="M476.142 140.169C484.223 149.444 492.522 159.623 501.453 171.284C508.45 180.323 515.916 190.375 524.956 202.868L526.294 201.892C517.254 189.381 509.715 179.347 502.791 170.271C493.751 158.592 485.435 148.395 477.335 139.084L476.142 140.169Z" fill="#E0DFE6"></path> <path d="M466.843 169.77L465.526 170.786L490.104 202.609L491.42 201.592L466.843 169.77Z" fill="#E0DFE6"></path> <path d="M527.891 172.423C530.224 172.242 532.664 172.08 534.996 172.025V170.362C532.61 170.362 530.115 170.579 527.765 170.778C525.089 171.013 522.341 171.23 519.647 171.23C517.119 171.259 514.595 170.999 512.126 170.453L511.747 172.08C514.341 172.647 516.991 172.919 519.647 172.893C522.413 172.893 525.198 172.658 527.891 172.423Z" fill="#E0DFE6"></path> <path d="M537.039 162.769H505.545V164.577H537.219C537.165 163.981 537.111 163.366 537.039 162.769Z" fill="#E0DFE6"></path> <path d="M508.255 153.729C505.724 153.729 503.428 153.729 501.24 153.873V155.537H501.981C503.952 155.537 506.013 155.428 508.255 155.428C512.811 155.428 517.493 155.591 522.013 155.735C525.882 155.88 529.842 155.989 533.783 156.025C533.638 155.464 533.476 154.922 533.331 154.379C529.57 154.289 512.829 153.729 508.255 153.729Z" fill="#E0DFE6"></path> <path d="M470.195 160.328L470.665 160.943C472.057 162.624 473.486 164.396 475.004 166.367C478.096 170.362 481.115 174.575 484.044 178.643C486.973 182.711 490.028 186.977 493.083 191.027C496.139 195.077 499.032 198.439 501.798 201.423L503.009 200.284C500.279 197.355 497.459 193.992 494.403 190.015C491.348 186.037 488.256 181.77 485.364 177.666C482.471 173.562 479.397 169.368 476.324 165.354C474.516 163.149 473.015 161.16 471.443 159.316L470.195 160.328Z" fill="#E0DFE6"></path> <path d="M493.625 174.012C491.221 170.776 488.816 167.558 486.393 164.358C482.331 159.014 477.986 153.89 473.376 149.009L472.165 150.148C476.745 154.985 481.061 160.067 485.092 165.371C487.551 168.553 497.133 181.461 499.555 184.643C503.618 189.988 507.963 195.112 512.572 199.993L513.765 198.854C509.192 194.015 504.883 188.933 500.857 183.631C498.344 180.449 496.03 177.231 493.625 174.012Z" fill="#E0DFE6"></path> <path d="M524.086 185.767C524.629 185.767 525.135 185.767 525.677 185.767C527.214 185.767 530.993 185.767 533.542 185.767C533.65 185.206 533.759 184.664 533.849 184.103C531.354 184.103 527.323 184.103 525.714 184.103C525.117 184.103 524.575 184.103 523.906 184.103C523.237 184.103 522.26 184.194 521.085 184.103V185.749H522.043C522.839 185.839 523.49 185.803 524.086 185.767Z" fill="#E0DFE6"></path> <path d="M534.633 178.895C534.633 178.335 534.741 177.792 534.777 177.232H534.669C528.981 177.04 523.287 177.209 517.62 177.738L517.855 179.365C523.433 178.866 529.036 178.709 534.633 178.895Z" fill="#E0DFE6"></path> <path d="M460.797 147.021C459.116 147.021 457.38 146.823 455.138 146.497H433.335C428.019 146.497 423.445 146.714 419.233 147.021C419.233 147.582 419.233 148.124 419.359 148.667C423.517 148.359 428.055 148.215 433.335 148.305H455.138C457.344 148.486 459.043 148.576 460.688 148.667C463.747 148.916 466.821 148.879 469.873 148.558L469.692 146.913C466.737 147.225 463.759 147.261 460.797 147.021Z" fill="#E0DFE6"></path> <path d="M438.202 177.63L438.437 179.257C444.015 178.758 449.618 178.601 455.215 178.787H458.541V177.232H455.233C449.553 177.013 443.865 177.146 438.202 177.63Z" fill="#E0DFE6"></path> <path d="M448.534 194.261C449.709 194.261 450.74 194.261 451.698 194.261C452.656 194.261 453.506 194.261 454.554 194.261L454.663 192.616C453.657 192.562 452.649 192.562 451.644 192.616C450.703 192.616 449.709 192.616 448.57 192.616C447.499 192.542 446.423 192.542 445.352 192.616L445.515 194.261C446.52 194.206 447.528 194.206 448.534 194.261Z" fill="#E0DFE6"></path> <path d="M474.36 192.836C470.274 188.153 465.628 182.838 464.055 180.813L462.753 181.825C464.344 183.904 469.009 189.22 473.113 193.92C476.276 197.536 479.278 200.971 480.073 202.002C480.869 203.032 481.465 203.81 482.062 204.804L483.454 203.9C482.821 202.942 482.152 201.984 481.375 200.989C480.597 199.995 477.687 196.632 474.36 192.836Z" fill="#E0DFE6"></path> <path d="M448.674 172.423C452.397 172.03 456.144 171.921 459.883 172.097L460.01 170.434C456.18 170.273 452.343 170.387 448.529 170.777C445.854 171.012 443.106 171.229 440.412 171.229C437.883 171.259 435.36 170.998 432.891 170.452L432.511 172.079C435.106 172.646 437.756 172.919 440.412 172.892C443.178 172.892 445.89 172.658 448.674 172.423Z" fill="#E0DFE6"></path> <path d="M456.771 197.265C457.979 198.396 459.036 199.678 459.917 201.08C460.477 201.875 461.092 202.797 461.996 203.954L463.298 202.942C462.43 201.821 461.833 200.935 461.291 200.139C460.332 198.647 459.197 197.275 457.91 196.053L456.771 197.265Z" fill="#E0DFE6"></path> <path d="M462.38 190.52L461.404 191.858C465.761 195.441 469.617 199.595 472.866 204.206L474.168 203.194C470.835 198.451 466.869 194.187 462.38 190.52Z" fill="#E0DFE6"></path> <path d="M462.139 162.769H425.981V164.577H462.139V162.769Z" fill="#E0DFE6"></path> <path d="M444.87 185.764C445.412 185.764 445.919 185.764 446.461 185.764C448.54 185.764 454.579 185.873 456.35 185.764V184.119C454.542 184.209 448.649 184.119 446.588 184.119C446.009 184.119 445.449 184.119 444.78 184.119C444.111 184.119 443.153 184.209 441.959 184.119V185.764H442.899C443.623 185.836 444.273 185.8 444.87 185.764Z" fill="#E0DFE6"></path> <path d="M489.53 138.578L489.62 140.241C500.703 139.59 512.563 139.265 525.869 139.265H526.556C526.231 138.704 525.887 138.162 525.544 137.602C512.328 137.62 500.54 137.927 489.53 138.578Z" fill="#E0DFE6"></path> <path d="M468.448 153.891C464.832 154.217 460.872 154.379 456.335 154.379C451.797 154.379 447.06 154.217 442.504 154.054C437.948 153.891 433.283 153.729 428.691 153.729C426.16 153.729 423.864 153.729 421.677 153.873V155.537H422.418C424.388 155.537 426.449 155.428 428.691 155.428C433.247 155.428 437.93 155.591 442.45 155.735C446.969 155.88 451.724 156.061 456.335 156.061C460.945 156.061 464.94 155.898 468.592 155.573L468.448 153.891Z" fill="#E0DFE6"></path> <path d="M530.897 192.582C529.957 192.582 528.962 192.582 527.823 192.582C526.746 192.509 525.665 192.509 524.587 192.582L524.768 194.227C525.774 194.171 526.782 194.171 527.787 194.227C528.962 194.227 529.993 194.227 530.951 194.227H531.222C531.421 193.667 531.62 193.124 531.783 192.564L530.897 192.582Z" fill="#E0DFE6"></path> <path d="M552.349 138.706C552.548 139.267 552.765 139.827 553 140.37V138.724L552.349 138.706Z" fill="#E0DFE6"></path> <path d="M452.014 200.156C451.511 200.084 450.999 200.084 450.496 200.156L450.821 201.765C451.187 201.719 451.558 201.719 451.924 201.765H452.593C453.081 201.769 453.565 201.683 454.021 201.511L453.407 199.975C452.956 200.114 452.485 200.175 452.014 200.156Z" fill="#E0DFE6"></path> <path d="M457.873 126.609L456.734 127.802C457.937 128.938 458.994 130.22 459.88 131.617C460.44 132.431 461.055 133.335 461.959 134.51L463.261 133.497C462.393 132.358 461.796 131.473 461.254 130.695C460.304 129.196 459.168 127.823 457.873 126.609Z" fill="#E0DFE6"></path> <path d="M438.202 108.077L438.437 109.723C444.014 109.217 449.618 109.054 455.215 109.235H458.541V107.589H455.233C449.551 107.41 443.864 107.573 438.202 108.077Z" fill="#E0DFE6"></path> <path d="M461.404 122.306C465.766 125.891 469.622 130.051 472.866 134.673L474.168 133.66C470.833 128.925 466.867 124.667 462.38 121.005L461.404 122.306Z" fill="#E0DFE6"></path> <path d="M410.331 69.462L410.421 71.1072C421.504 70.4564 433.364 70.1491 446.67 70.1491C454.824 70.1491 458.946 70.2936 464.659 70.5106C467.262 70.619 470.173 70.7276 473.879 70.8361V69.1727L464.677 68.8654C458.946 68.6485 454.788 68.4857 446.598 68.4857C433.255 68.4857 421.45 68.757 410.331 69.462Z" fill="#E0DFE6"></path> <path d="M444.87 116.232C445.4 116.205 445.931 116.205 446.461 116.232C448.54 116.232 454.579 116.232 456.35 116.232V114.569C454.542 114.659 448.649 114.569 446.588 114.569H444.78C443.84 114.619 442.899 114.619 441.959 114.569V116.232H442.899C443.623 116.286 444.273 116.25 444.87 116.232Z" fill="#E0DFE6"></path> <path d="M448.534 124.802C449.709 124.802 450.74 124.802 451.698 124.802C452.649 124.748 453.603 124.748 454.554 124.802L454.663 123.139C453.596 123.139 452.656 123.139 451.644 123.139C450.631 123.139 449.709 123.139 448.57 123.139C447.498 123.074 446.424 123.074 445.352 123.139L445.515 124.784C446.52 124.725 447.529 124.731 448.534 124.802Z" fill="#E0DFE6"></path> <path d="M474.36 123.283C470.274 118.6 465.628 113.303 464.055 111.26L462.753 112.273C464.344 114.352 469.009 119.685 473.113 124.368C476.276 127.983 479.278 131.418 480.073 132.449C480.869 133.479 481.465 134.257 482.062 135.251L483.454 134.347C482.821 133.389 482.152 132.539 481.375 131.436C480.597 130.334 477.687 127.079 474.36 123.283Z" fill="#E0DFE6"></path> <path d="M499.551 115.112C503.614 120.457 507.959 125.58 512.568 130.461L513.762 129.304C509.188 124.472 504.879 119.396 500.853 114.099L498.322 110.791C496.972 109.875 495.598 108.971 494.2 108.079C496.008 110.429 497.743 112.78 499.551 115.112Z" fill="#E0DFE6"></path> <path d="M484.052 109.054C486.999 113.158 490.037 117.389 493.092 121.439C496.147 125.488 499.04 128.851 501.806 131.834L503.017 130.713C500.288 127.766 497.467 124.404 494.412 120.426C491.356 116.449 488.265 112.182 485.372 108.096C483.564 105.619 481.756 103.106 479.948 100.629C479.044 100.322 478.14 100.033 477.236 99.7795C479.569 102.853 481.847 105.981 484.052 109.054Z" fill="#E0DFE6"></path> <path d="M452.014 130.603C451.51 130.54 451 130.54 450.496 130.603L450.821 132.23C451.187 132.185 451.558 132.185 451.924 132.23H452.593C453.081 132.235 453.565 132.149 454.021 131.977L453.407 130.441C452.959 130.591 452.485 130.647 452.014 130.603Z" fill="#E0DFE6"></path> <path d="M460.778 77.4702C458.887 77.2858 456.978 77.3956 455.119 77.7956H433.316C427.279 77.1115 421.183 77.1115 415.146 77.7956L415.327 79.4408C421.304 78.7281 427.347 78.7645 433.316 79.5492H455.119C456.921 79.0293 458.807 78.8697 460.67 79.0793C463.728 79.3283 466.803 79.292 469.854 78.9708L469.673 77.3255C466.719 77.6507 463.741 77.6992 460.778 77.4702Z" fill="#E0DFE6"></path> <path d="M466.843 100.206L465.526 101.222L490.104 133.045L491.42 132.028L466.843 100.206Z" fill="#E0DFE6"></path> <path d="M448.709 102.89C452.431 102.492 456.178 102.377 459.918 102.546L460.044 100.901C456.214 100.722 452.376 100.837 448.564 101.245L446.756 101.371C445.328 101.95 443.9 102.564 442.544 103.27C444.569 103.197 446.648 103.107 448.709 102.89Z" fill="#E0DFE6"></path> <path d="M456.335 85.6783C451.76 85.6783 447.06 85.5156 442.504 85.3528C437.948 85.1901 433.283 85.0274 428.691 85.0274C426.16 85.0274 423.864 85.0275 421.677 85.1721V86.8354H422.418C424.388 86.8354 426.449 86.7269 428.691 86.7269C433.247 86.7269 437.93 86.8896 442.45 87.0342C446.969 87.1788 451.724 87.3596 456.335 87.3596C460.945 87.3596 464.94 87.197 468.592 86.8715L468.448 85.2263C464.832 85.5155 460.872 85.6783 456.335 85.6783Z" fill="#E0DFE6"></path> <path d="M452.014 61.0559C451.51 61.0018 451 61.0018 450.496 61.0559L450.821 62.6831C451.187 62.6379 451.558 62.6379 451.924 62.6831H452.593C453.081 62.696 453.567 62.6099 454.021 62.4299L453.407 60.8932C452.959 61.0441 452.485 61.0995 452.014 61.0559Z" fill="#E0DFE6"></path> <path d="M427.841 177.666C433.464 185.06 439.521 193.214 446.517 202.869L447.855 201.892C440.877 192.274 434.82 184.102 429.215 176.726L427.841 177.666Z" fill="#E0DFE6"></path> <path d="M411.58 202.54L412.882 201.528L405.813 192.362L404.421 193.284L411.58 202.54Z" fill="#E0DFE6"></path> <path d="M394.259 204.206L395.561 203.193C394.892 202.326 394.114 201.385 393.301 200.391L391.872 201.277C392.74 202.307 393.481 203.302 394.259 204.206Z" fill="#E0DFE6"></path> <path d="M399.173 196.685L397.745 197.589C399.029 199.017 400.312 200.481 401.488 202C402.229 202.958 402.88 203.808 403.476 204.802L404.868 203.898C404.236 202.94 403.567 201.982 402.789 200.988C401.65 199.505 400.421 198.077 399.173 196.685Z" fill="#E0DFE6"></path> <path d="M420.973 184.643C425.036 189.987 429.381 195.111 433.99 199.992L435.183 198.853C430.61 194.014 426.301 188.933 422.275 183.63L421.172 182.184L419.816 183.106C420.196 183.63 420.593 184.136 420.973 184.643Z" fill="#E0DFE6"></path> <path d="M414.598 190.991C417.689 194.987 420.546 198.404 423.312 201.387L424.541 200.248C421.793 197.301 418.973 193.938 415.918 189.979C415.194 189.057 414.507 188.171 413.784 187.14L412.41 188.062C413.133 189.039 413.857 190.033 414.598 190.991Z" fill="#E0DFE6"></path> <path d="M393.514 80.6157C395.322 82.4237 397.003 84.3762 398.829 86.4734L401.27 86.7988C399.01 84.1231 396.841 81.7005 394.707 79.4586L393.514 80.6157Z" fill="#E0DFE6"></path> <path d="M334.343 69.2632L338.157 70.7276C347.07 70.348 356.544 70.1491 366.921 70.1491C375.057 70.1491 379.197 70.2936 384.91 70.5106C387.514 70.619 390.334 70.7276 394.131 70.8361V69.1727L384.928 68.8654C379.197 68.6485 375.057 68.4857 366.849 68.4857C355.061 68.4857 344.377 68.757 334.343 69.2632Z" fill="#E0DFE6"></path> <path d="M430.76 112.037C435.551 118.383 440.686 125.344 446.471 133.317L447.809 132.34C441.951 124.277 436.762 117.244 431.935 110.826L430.76 112.037Z" fill="#E0DFE6"></path> <path d="M424.996 120.155C428.16 124.06 431.107 127.387 434.036 130.46L435.229 129.303C432.228 126.176 429.19 122.704 425.882 118.6C425.574 119.107 425.267 119.631 424.996 120.155Z" fill="#E0DFE6"></path> <path d="M381.036 77.4702C379.355 77.3798 377.638 77.2713 375.396 77.2713C371.78 77.2713 359.034 77.0724 356.304 77.0363C358.22 77.651 360.155 78.2114 362.071 78.8442C362.867 78.8442 371.744 79.0069 375.396 79.0069C377.583 79.0069 379.283 79.0069 380.946 79.2058C383.998 79.4548 387.067 79.4184 390.112 79.0972L389.932 77.4521C386.974 77.7352 383.996 77.7412 381.036 77.4702Z" fill="#E0DFE6"></path> <path d="M423.336 131.835L424.565 130.714C423.643 129.719 422.757 128.671 421.781 127.586C421.564 128.201 421.383 128.833 421.203 129.394C421.926 130.225 422.631 131.075 423.336 131.835Z" fill="#E0DFE6"></path> <path d="M397.526 70.5647C402.281 75.9884 407.108 81.7919 412.098 87.975L414.43 88.2282C409.007 81.5207 403.872 75.3196 398.774 69.48L397.526 70.5647Z" fill="#E0DFE6"></path> <path d="M396.81 54.978C394.821 52.7904 392.742 50.5305 390.916 48.1621C389.09 45.7937 387.101 43.4796 385.094 41.3282L383.883 42.4672C385.854 44.5825 387.951 47.0231 389.614 49.1745C391.422 51.5971 393.574 53.8932 395.599 56.0989C397.623 58.3046 399.666 60.5465 401.492 62.9148C402.234 63.873 402.885 64.7227 403.481 65.699L404.873 64.795C404.24 63.8368 403.572 62.9872 402.794 61.9024C400.932 59.4798 398.889 57.1837 396.81 54.978Z" fill="#E0DFE6"></path> <path d="M334.681 34.911C332.276 31.6929 329.871 28.4567 327.449 25.2747C323.386 19.9251 319.035 14.8011 314.414 9.92543L313.22 11.0644C317.794 15.9031 322.103 20.9847 326.129 26.2872C328.588 29.4691 338.188 42.3596 340.592 45.5596C344.655 50.9092 349.007 56.0333 353.628 60.9089L354.821 59.77C350.252 54.9274 345.943 49.8459 341.912 44.5472C339.472 41.3652 337.067 38.1472 334.681 34.911Z" fill="#E0DFE6"></path> <path d="M311.287 21.2248L311.757 21.8395C313.149 23.5028 314.595 25.2926 316.114 27.2633C319.187 31.2588 322.225 35.4532 325.153 39.5211C328.082 43.5889 331.156 47.8736 334.283 51.9053C337.411 55.937 340.232 59.3178 342.998 62.3009L344.209 61.18C341.479 58.2331 338.659 54.8703 335.585 50.8929C332.512 46.9154 329.438 42.6487 326.546 38.5628C323.653 34.4769 320.579 30.2644 317.506 26.2508C315.806 24.0271 314.197 22.0565 312.643 20.2124L311.287 21.2248Z" fill="#E0DFE6"></path> <path d="M307.897 30.6455L306.581 31.6622L331.158 63.4845L332.474 62.4678L307.897 30.6455Z" fill="#E0DFE6"></path> <path d="M414.992 34.911C412.588 31.6929 410.183 28.4567 407.761 25.2747C403.703 19.9263 399.357 14.8023 394.743 9.92543L393.55 11.0644C398.118 15.9077 402.427 20.989 406.459 26.2872C408.918 29.4691 418.5 42.3596 420.922 45.5596C424.985 50.9043 429.33 56.028 433.939 60.9089L435.133 59.77C430.564 54.9274 426.255 49.8459 422.224 44.5472C419.783 41.3652 417.397 38.1472 414.992 34.911Z" fill="#E0DFE6"></path> <path d="M317.16 1.08477C325.242 10.3594 333.54 20.5381 342.471 32.1811C349.468 41.2208 356.935 51.2909 365.974 63.7837L367.312 62.8074C358.273 50.2966 350.734 40.2445 343.719 31.1687C334.679 19.4895 326.381 9.29275 318.281 0L317.16 1.08477Z" fill="#E0DFE6"></path> <path d="M379.114 56.859L378.265 58.2874C380.51 59.9119 382.363 62.0183 383.688 64.4524L385.207 63.7834C383.73 61.0411 381.646 58.6726 379.114 56.859Z" fill="#E0DFE6"></path> <path d="M383.051 49.5016L381.804 50.5864L385.149 54.4192C388.312 58.0351 391.874 62.0667 394.188 65.1221L395.49 64.1097C393.103 61 389.506 56.878 386.342 53.2621L383.051 49.5016Z" fill="#E0DFE6"></path> <path d="M388.264 30.6807L386.948 31.6974L411.525 63.5197L412.841 62.503L388.264 30.6807Z" fill="#E0DFE6"></path> <path d="M372.703 61.0525C372.065 60.9989 371.424 60.9989 370.786 61.0525L371.021 62.6978C371.556 62.6441 372.095 62.6441 372.631 62.6978C373.491 62.7643 374.357 62.6972 375.198 62.4989L374.746 60.9079C374.076 61.061 373.387 61.1098 372.703 61.0525Z" fill="#E0DFE6"></path> <path d="M396.462 27.174C399.553 31.1695 402.572 35.3639 405.501 39.4318C408.43 43.4996 411.486 47.7843 414.541 51.816C417.596 55.8477 420.489 59.2285 423.255 62.2116L424.485 61.0907C421.736 58.1438 418.916 54.781 415.861 50.8036C412.805 46.8261 409.714 42.5594 406.821 38.4735C403.928 34.3876 400.855 30.1751 397.781 26.1615C396.064 23.9378 394.473 21.9671 392.9 20.123L391.616 21.1535L392.086 21.7683C393.479 23.5581 394.943 25.366 396.462 27.174Z" fill="#E0DFE6"></path> <path d="M315.415 53.732C311.329 49.0676 306.701 43.7522 305.128 41.7093L303.808 42.7217C305.418 44.8008 310.064 50.1342 314.168 54.8348C317.35 58.4507 320.333 61.8858 321.128 62.9163L322.069 64.1638L324.13 65.0497L324.527 64.7965C323.895 63.8564 323.208 62.9887 322.448 61.9039C321.689 60.8191 318.742 57.5468 315.415 53.732Z" fill="#E0DFE6"></path> <path d="M397.526 1.08477C405.608 10.3594 413.906 20.52 422.837 32.1811C429.834 41.2208 437.301 51.2728 446.34 63.7837L447.678 62.8074C438.638 50.2966 431.099 40.2445 424.175 31.1687C415.135 19.4895 406.819 9.29275 398.719 0L397.526 1.08477Z" fill="#E0DFE6"></path> <path d="M154.94 204.205L156.241 203.192C152.908 198.456 148.942 194.198 144.454 190.537L143.477 191.875C147.834 195.452 151.689 199.6 154.94 204.205Z" fill="#E0DFE6"></path> <path d="M184.013 201.386L185.242 200.247C182.494 197.318 179.674 193.955 176.618 189.978C176.275 189.544 175.967 189.092 175.624 188.658L172.406 187.121C173.364 188.423 174.322 189.725 175.299 190.99C178.354 195.004 181.247 198.403 184.013 201.386Z" fill="#E0DFE6"></path> <path d="M143.996 203.954L145.316 202.942C144.43 201.821 143.834 200.935 143.291 200.139C142.332 198.647 141.197 197.275 139.91 196.053L138.771 197.265C139.979 198.396 141.037 199.678 141.917 201.08C142.532 201.875 143.146 202.797 143.996 203.954Z" fill="#E0DFE6"></path> <path d="M194.598 199.994L195.556 199.072L191.814 197.011C192.79 198.042 193.73 199.036 194.598 199.994Z" fill="#E0DFE6"></path> <path d="M130.608 194.261C131.783 194.261 132.813 194.261 133.771 194.261C134.73 194.261 135.579 194.261 136.628 194.261L136.736 192.616C135.731 192.562 134.723 192.562 133.717 192.616C132.777 192.616 131.783 192.616 130.644 192.616C129.572 192.542 128.497 192.542 127.426 192.616L127.588 194.261C128.594 194.206 129.602 194.206 130.608 194.261Z" fill="#E0DFE6"></path> <path d="M157.303 183.306L172.2 202.543L173.502 201.53L159.31 183.162H159.219C158.579 183.176 157.939 183.225 157.303 183.306Z" fill="#E0DFE6"></path> <path d="M156.426 192.834C154.112 190.194 151.653 187.41 149.647 185.023L148.074 185.728C150.135 188.151 161.344 200.969 162.139 202C162.935 203.03 163.532 203.808 164.128 204.802L165.52 203.898C164.906 202.94 164.219 201.982 163.441 200.987C162.664 199.993 159.753 196.63 156.426 192.834Z" fill="#E0DFE6"></path> <path d="M134.052 200.156C133.548 200.084 133.037 200.084 132.533 200.156L132.859 201.765C133.225 201.72 133.595 201.72 133.961 201.765H134.63C135.118 201.769 135.602 201.683 136.059 201.511L135.444 199.975C134.994 200.114 134.523 200.175 134.052 200.156Z" fill="#E0DFE6"></path> <path d="M149.404 184.735L149.259 184.572C148.559 184.511 147.854 184.541 147.162 184.663L147.958 185.603L149.404 184.735Z" fill="#E0DFE6"></path> <path d="M128.57 202.868L129.907 201.892C127.431 198.475 125.062 195.239 122.784 192.147C122.43 192.616 122.104 193.105 121.808 193.612C123.977 196.541 126.219 199.614 128.57 202.868Z" fill="#E0DFE6"></path> <g style="mix-blend-mode:multiply"> <path d="M466.611 111.458C453.033 106.577 435.876 116.882 432.73 130.694C429.367 145.447 437.178 160.236 451.967 164.575C456.938 166.039 461.928 167.576 466.773 169.456C447.405 183.606 427.445 196.865 406.895 209.231C386.538 221.525 365.668 232.903 344.286 243.365C333.62 248.571 322.971 253.688 312.413 259.057C303.21 263.74 293.23 266.434 285.42 273.521C281.804 276.829 282.076 281.801 283.811 285.869C296.376 315.013 347.504 288.093 365.819 280.228C394.199 268.04 421.868 254.26 448.694 238.953C461.832 231.444 474.758 223.61 487.474 215.45C500.347 207.116 517.07 198.618 525.007 185.023C548.076 145.411 495.122 121.691 466.611 111.458Z" fill="#D7DCE0"></path> </g> <g style="mix-blend-mode:multiply"> <path d="M7.43524 164.179L6.67591 164.775L7.43524 164.179Z" fill="#D7DCE0"></path> </g> <g style="mix-blend-mode:multiply"> <path d="M279.566 245.698C270.4 239.642 260.384 240.961 250.097 242.317C240.75 243.565 231.421 245.752 224.424 252.424C222.182 254.709 220.925 257.783 220.925 260.984C220.925 264.186 222.182 267.26 224.424 269.545C231.421 276.216 240.696 278.404 250.097 279.633C260.384 281.007 270.4 282.327 279.566 276.27C282.18 274.666 284.339 272.419 285.837 269.743C287.334 267.066 288.121 264.051 288.121 260.984C288.121 257.917 287.334 254.902 285.837 252.226C284.339 249.55 282.18 247.302 279.566 245.698Z" fill="#D7DCE0"></path> </g> <path d="M105.802 342.729C96.7626 330.219 89.2235 320.166 82.2992 311.109C73.2595 299.411 64.9431 289.215 56.8435 279.922L55.5961 281.007C63.6775 290.281 71.9759 300.46 80.9071 312.121C87.9037 321.161 95.3705 331.213 104.41 343.706L105.802 342.729Z" fill="#E0DFE6"></path> <path d="M69.5548 274.027L70.8565 273.014L61.8168 261.371L59.8643 261.57L69.5548 274.027Z" fill="#E0DFE6"></path> <path d="M93.9005 259.799C97.209 264.265 100.698 269.019 104.477 274.262L105.815 273.286C102.325 268.477 99.0711 264.029 95.9796 259.853L93.9005 259.799Z" fill="#E0DFE6"></path> <path d="M53.5419 274.57C51.1554 271.461 47.5576 267.339 44.3938 263.723L43.996 263.271L42.0254 263.542L43.1463 264.826C46.3102 268.441 49.8718 272.473 52.1859 275.529L53.5419 274.57Z" fill="#E0DFE6"></path> <path d="M91.9883 271.37L93.1815 270.213C90.2888 267.194 87.36 263.867 84.1419 259.962H82.0808C85.552 264.392 88.8244 268.062 91.9883 271.37Z" fill="#E0DFE6"></path> <path d="M81.3344 272.746L82.5638 271.625C79.8157 268.678 76.9954 265.316 73.94 261.338C73.7049 261.049 73.488 260.741 73.271 260.452L71.2823 260.561C71.7343 261.157 72.1682 261.772 72.6202 262.369C75.7117 266.364 78.5683 269.763 81.3344 272.746Z" fill="#E0DFE6"></path> <path d="M30.6633 271.514C30.026 271.452 29.3841 271.452 28.7469 271.514L28.9819 273.141C29.5169 273.087 30.056 273.087 30.5909 273.141C31.4518 273.208 32.3178 273.141 33.1582 272.942L32.7062 271.351C32.0377 271.511 31.3486 271.565 30.6633 271.514Z" fill="#E0DFE6"></path> <path d="M41.7211 274.913L43.2398 274.245C41.7586 271.5 39.6682 269.131 37.129 267.32L36.2612 268.73C38.5164 270.362 40.3812 272.474 41.7211 274.913Z" fill="#E0DFE6"></path> <path d="M11.6215 271.371L12.8147 270.214C12.435 269.816 12.0373 269.418 11.6576 269.002L9.8497 269.418L11.6215 271.371Z" fill="#E0DFE6"></path> <path d="M24.0698 274.226L25.4076 273.25L20.924 267.103L19.116 267.464L24.0698 274.226Z" fill="#E0DFE6"></path> <path d="M0.958199 272.744L2.16951 271.624L1.80793 271.226L0 271.66L0.958199 272.744Z" fill="#E0DFE6"></path> <path d="M59.47 273.359C60.2113 274.335 60.8622 275.167 61.4588 276.161L62.8509 275.257C62.2181 274.299 61.5492 273.45 60.7717 272.347C58.9638 269.942 56.8124 267.646 54.7875 265.44C53.8655 264.41 52.9796 263.379 51.9852 262.313L50.0146 262.548C51.1897 263.922 52.383 265.26 53.6304 266.561C55.5649 268.749 57.644 271.009 59.47 273.359Z" fill="#E0DFE6"></path> <path d="M184.417 342.729C175.377 330.219 167.838 320.185 160.914 311.109C151.874 299.43 143.558 289.233 135.458 279.922L134.211 281.007C142.292 290.281 150.591 300.46 159.522 312.121C166.519 321.161 173.985 331.213 183.025 343.706L184.417 342.729Z" fill="#E0DFE6"></path> <path d="M131.912 279.631L122.71 279.324C116.979 279.107 112.821 278.944 104.631 278.944C91.2881 278.944 79.41 279.27 68.2912 279.921V281.566C79.3738 280.915 91.2338 280.608 104.45 280.608C112.604 280.608 116.726 280.752 122.529 280.969C125.133 280.969 127.953 281.186 131.75 281.295L131.912 279.631Z" fill="#E0DFE6"></path> <path d="M183.866 280.607C187.807 280.607 190.79 280.607 193.484 280.698C192.526 280.101 191.55 279.54 190.573 278.998C188.621 278.998 186.451 278.998 183.866 278.998C170.523 278.998 158.555 279.323 147.527 279.974L147.617 281.62C158.7 280.915 170.523 280.607 183.866 280.607Z" fill="#E0DFE6"></path> <path d="M149.411 272.924L142.179 263.559L139.756 263.179L148.073 274.027L149.411 272.924Z" fill="#E0DFE6"></path> <path d="M119.883 275.33L121.203 274.317C120.317 273.178 119.72 272.292 119.178 271.515C118.228 270.016 117.092 268.643 115.797 267.429L114.658 268.64C115.87 269.768 116.928 271.05 117.804 272.455C118.419 273.251 119.033 274.155 119.883 275.33Z" fill="#E0DFE6"></path> <path d="M130.826 275.581L132.128 274.569C128.794 269.833 124.828 265.575 120.34 261.913L119.364 263.251C123.724 266.825 127.58 270.972 130.826 275.581Z" fill="#E0DFE6"></path> <path d="M109.975 271.514C109.47 271.46 108.961 271.46 108.456 271.514L108.782 273.141C109.148 273.096 109.518 273.096 109.884 273.141H110.553C111.042 273.154 111.527 273.068 111.982 272.888L111.367 271.351C110.919 271.502 110.445 271.558 109.975 271.514Z" fill="#E0DFE6"></path> <path d="M171.49 270.411C170.658 270.122 169.809 269.869 168.977 269.598C169.501 270.176 170.044 270.737 170.568 271.297L171.49 270.411Z" fill="#E0DFE6"></path> <path d="M140.068 276.162L141.46 275.258C140.845 274.299 140.158 273.45 139.381 272.347C138.603 271.244 135.765 268.008 132.366 264.193L130.395 261.951L127.973 261.68C129.021 262.873 137.284 272.329 138.079 273.359C138.875 274.39 139.471 275.258 140.068 276.162Z" fill="#E0DFE6"></path> <path d="M159.913 272.745L161.142 271.625C159.605 269.979 158.069 268.208 156.46 266.201L153.838 265.604C155.935 268.256 157.96 270.636 159.913 272.745Z" fill="#E0DFE6"></path> <g style="mix-blend-mode:multiply"> <path d="M217.774 323.311C201.684 304.201 166.14 324.595 175.089 348.152C175.577 349.454 176.029 350.755 176.481 352.057C176.481 352.057 177.168 354.371 177.566 355.42C177.566 355.673 177.566 355.908 177.566 356.125L177.24 357.264L176.535 358.114C178.144 356.161 176.065 358.692 175.523 359.235C173.663 361.358 171.41 363.102 168.888 364.369C153.918 373.517 136.833 379.23 119.821 383.208C101.976 387.402 84.7468 387.71 66.541 387.782C57.5014 387.782 47.9194 387.493 38.9882 388.758C31.1057 389.861 9.37464 390.006 11.4899 399.081C19.6226 414.449 29.1524 416.401 46.7416 425.296C57.5891 431.624 71.2615 429.077 82.6316 429.129C106.543 429.438 130.38 426.395 153.448 420.09C174.293 414.539 197.959 407.434 213.327 391.38C231.243 372.631 234.967 343.705 217.774 323.311Z" fill="#D7DCE0"></path> </g> <path d="M205.383 333.69C205.166 344.827 199.381 355.946 187.973 365.474C184.324 368.523 180.409 371.24 176.276 373.591C173.431 375.239 170.504 376.741 167.507 378.093C160.904 381.099 154.05 383.518 147.023 385.325C140.294 387.093 133.449 388.392 126.54 389.212C119.748 390.03 112.914 390.44 106.074 390.441C99.2216 390.456 92.3748 390.051 85.5719 389.23C78.6649 388.41 71.8213 387.124 65.0881 385.379C58.0708 383.562 51.2234 381.142 44.6224 378.147C41.533 376.771 38.5159 375.239 35.5827 373.555C31.5241 371.237 27.6712 368.575 24.0662 365.6C12.3147 355.819 6.45702 344.393 6.45702 333.058C6.45702 318.359 16.1656 303.679 35.5647 292.452C74.417 270.051 137.351 270.051 176.203 292.452C195.982 303.787 205.709 318.775 205.383 333.69ZM141.111 318.486L153.46 311.362L143.841 305.812H143.751L131.331 313.044C120.483 308.795 108.099 308.886 98.4444 314.454C77.5086 326.549 110.576 338.626 100.524 344.448C92.3517 349.148 79.6962 338.536 79.6419 327.598L62.3581 331.575C62.6113 336.999 65.974 342.838 71.7594 347.449L58.7423 354.952L68.487 360.574L81.3956 353.107C101.771 361.695 120.628 352.222 122.58 344.429C124.985 334.902 106.182 326.224 113.938 321.74C115.435 321.037 117.089 320.736 118.737 320.866C120.385 320.996 121.972 321.552 123.34 322.481C128.055 325.685 131.627 330.308 133.536 335.679H133.681C133.757 335.079 133.757 334.471 133.681 333.871V335.679L150.621 331.629C148.999 326.309 145.653 321.679 141.111 318.468V318.486Z" fill="white"></path> <path d="M204.859 332.623V355.186C204.859 366.974 198.839 378.78 186.78 388.904V365.636C198.604 355.729 204.624 344.194 204.859 332.623Z" fill="#D7DCE0"></path> <path d="M188.572 365.962V387.657C185.024 390.624 181.219 393.268 177.2 395.558C174.488 397.13 171.632 398.595 168.685 399.933V378.238C171.632 376.9 174.488 375.435 177.2 373.862C181.216 371.569 185.021 368.925 188.572 365.962Z" fill="#D7DCE0"></path> <path d="M166.903 378.507V400.203C160.489 403.108 153.835 405.449 147.016 407.199V385.504C153.833 383.746 160.486 381.405 166.903 378.507Z" fill="#D7DCE0"></path> <path d="M153.452 311.344L141.104 318.467C145.678 321.586 149.092 326.131 150.812 331.394L133.908 335.498C133.908 335.498 133.908 335.498 133.908 333.69V335.498H133.782H133.637C131.728 330.126 128.156 325.503 123.44 322.3C122.072 321.371 120.486 320.815 118.838 320.685C117.19 320.555 115.536 320.856 114.039 321.559C106.283 326.042 125.086 334.721 122.681 344.248C120.729 352.04 101.872 361.514 81.4965 352.926L68.5879 360.393L58.8432 354.77L71.8602 347.267C66.0749 342.657 62.7121 336.908 62.459 331.394L79.7428 327.416C79.7428 338.354 92.3983 348.967 100.624 344.266C110.676 338.445 77.6094 326.368 98.5452 314.273C108.2 308.704 120.656 308.614 131.431 312.863L143.852 305.631L153.452 311.344Z" fill="#3A3A3A"></path> <path d="M147.022 385.649V407.345C140.484 409.042 133.84 410.298 127.134 411.105V389.41C133.841 388.611 140.486 387.355 147.022 385.649Z" fill="#D7DCE0"></path> <path d="M133.835 335.481L133.814 335.501H133.773L133.835 335.481Z" fill="white"></path> <path d="M127.103 389.499V411.194C120.505 411.998 113.864 412.402 107.216 412.405V390.71C113.864 390.707 120.505 390.302 127.103 389.499Z" fill="#D7DCE0"></path> <path d="M105.434 390.711V412.406C98.7871 412.422 92.1455 412.03 85.5468 411.231V389.536C92.1463 390.326 98.7873 390.718 105.434 390.711Z" fill="#D7DCE0"></path> <path d="M85.5519 389.446V411.141C78.8456 410.355 72.201 409.11 65.6647 407.417V385.722C72.201 387.415 78.8456 388.66 85.5519 389.446Z" fill="#D7DCE0"></path> <path d="M65.6697 385.558V407.253C58.8511 405.515 52.1968 403.186 45.7825 400.292V378.597C52.2032 381.475 58.8561 383.803 65.6697 385.558Z" fill="#D7DCE0"></path> <path d="M43.9642 378.311V400.006C40.945 398.632 38.0342 397.149 35.2681 395.54C31.3283 393.326 27.5844 390.779 24.077 387.929V366.234C27.5717 369.138 31.3167 371.728 35.2681 373.972C38.0897 375.568 40.9923 377.016 43.9642 378.311Z" fill="#D7DCE0"></path> <path d="M24.0624 365.744V388.741C12.0035 378.707 5.98311 367.046 5.98311 355.258V332.261C5.98311 343.995 12.0035 355.71 24.0624 365.744Z" fill="#D7DCE0"></path> <path d="M105.816 393.097C98.945 393.105 92.0803 392.694 85.2595 391.868C78.2309 391.02 71.2669 389.704 64.4141 387.927C57.255 386.113 50.2632 383.694 43.5144 380.695C40.3506 379.267 37.259 377.676 34.3121 375.976C30.1183 373.573 26.1384 370.815 22.4159 367.732C10.2486 357.626 3.83044 345.621 3.83044 333.038C3.83044 316.767 14.678 301.453 34.294 290.1C73.8153 267.284 138.123 267.284 177.645 290.1C197.64 301.652 208.47 317.219 208.108 333.779C207.873 346.037 201.509 357.716 189.722 367.587C185.947 370.729 181.906 373.536 177.645 375.976C174.788 377.621 171.751 379.176 168.605 380.605C161.868 383.642 154.882 386.092 147.723 387.927C140.877 389.705 133.919 391.022 126.896 391.868C119.899 392.684 112.86 393.094 105.816 393.097ZM105.96 278.276C80.9928 278.276 56.0253 283.7 37.0059 294.728C19.1074 305.087 9.25422 318.665 9.25422 332.984C9.25422 343.831 15.0034 354.462 25.8872 363.52C29.3717 366.402 33.0977 368.978 37.024 371.221C39.8082 372.83 42.737 374.331 45.7563 375.705C52.2227 378.602 58.9242 380.943 65.7881 382.702C72.4022 384.416 79.1251 385.678 85.9104 386.48C92.5095 387.276 99.1506 387.674 105.798 387.673C112.619 387.661 119.434 387.257 126.209 386.462C132.995 385.65 139.718 384.375 146.331 382.647C153.206 380.889 159.915 378.536 166.381 375.615C169.328 374.259 172.203 372.794 174.915 371.221C178.906 368.945 182.687 366.319 186.214 363.375C196.772 354.552 202.486 344.265 202.666 333.616C202.974 319.063 193.12 305.25 174.915 294.728C155.913 283.772 130.946 278.276 105.96 278.276Z" fill="#3A3A3A"></path> <path d="M24.516 390.73C23.8567 390.745 23.2145 390.52 22.7081 390.098C10.6311 379.973 4.19492 368.041 4.19492 355.385V332.967C4.19492 332.248 4.48063 331.558 4.98921 331.05C5.49779 330.541 6.18757 330.255 6.90681 330.255C7.62605 330.255 8.31583 330.541 8.82441 331.05C9.33299 331.558 9.6187 332.248 9.6187 332.967V355.385C9.6187 366.233 15.3679 376.864 26.2516 385.921C26.8049 386.38 27.1537 387.039 27.2215 387.754C27.2893 388.469 27.0705 389.182 26.6132 389.736C26.3558 390.043 26.0351 390.29 25.6732 390.462C25.3112 390.634 24.9165 390.725 24.516 390.73Z" fill="#3A3A3A"></path> <path d="M105.822 415.516C98.9503 415.526 92.085 415.11 85.2654 414.268C78.2377 413.433 71.2737 412.128 64.42 410.363C57.261 408.55 50.2692 406.13 43.5204 403.131C40.3384 401.685 37.2469 400.112 34.3181 398.413C30.1213 396.021 26.1409 393.269 22.4219 390.187C21.8585 389.726 21.501 389.061 21.4281 388.337C21.3552 387.613 21.5729 386.89 22.0332 386.327C22.4935 385.763 23.1588 385.406 23.8826 385.333C24.6065 385.26 25.3297 385.478 25.8931 385.938C29.3785 388.814 33.1044 391.384 37.0299 393.622C39.7961 395.231 42.743 396.731 45.7622 398.105C52.2281 401.008 58.9296 403.355 65.7941 405.12C72.4082 406.83 79.1312 408.086 85.9163 408.881C92.6068 409.673 99.3375 410.077 106.075 410.092C112.813 410.089 119.545 409.678 126.233 408.863C133.017 408.044 139.739 406.776 146.355 405.066C153.23 403.299 159.938 400.94 166.405 398.015C167.055 397.745 167.785 397.738 168.44 397.996C169.095 398.254 169.624 398.757 169.915 399.398C170.206 400.039 170.237 400.768 170 401.431C169.763 402.094 169.278 402.639 168.647 402.951C161.9 406.002 154.901 408.464 147.729 410.309C140.877 412.086 133.913 413.403 126.884 414.25C119.893 415.078 112.861 415.501 105.822 415.516Z" fill="#3A3A3A"></path> <path d="M167.875 403.185C167.253 403.189 166.648 402.978 166.162 402.589C165.676 402.199 165.339 401.654 165.208 401.046C165.076 400.437 165.158 399.802 165.44 399.247C165.721 398.691 166.186 398.25 166.754 397.996C169.683 396.676 172.54 395.212 175.288 393.639C179.283 391.354 183.07 388.722 186.605 385.775C197.453 376.735 203.039 366.249 203.039 355.401V332.983C203.039 332.264 203.325 331.574 203.834 331.066C204.342 330.557 205.032 330.271 205.751 330.271C206.471 330.271 207.16 330.557 207.669 331.066C208.177 331.574 208.463 332.264 208.463 332.983V355.383C208.463 367.876 202.117 379.827 190.095 389.915C186.313 393.063 182.259 395.871 177.982 398.304C175.05 400.002 172.033 401.547 168.942 402.932C168.607 403.087 168.244 403.173 167.875 403.185Z" fill="#3A3A3A"></path> <path d="M187.703 390.566C186.997 390.566 186.318 390.291 185.811 389.797C185.304 389.304 185.01 388.633 184.992 387.926V365.454C184.992 364.735 185.277 364.045 185.786 363.536C186.294 363.028 186.984 362.742 187.703 362.742C188.423 362.742 189.113 363.028 189.621 363.536C190.13 364.045 190.415 364.735 190.415 365.454V387.926C190.397 388.633 190.103 389.304 189.596 389.797C189.089 390.291 188.41 390.566 187.703 390.566Z" fill="#3A3A3A"></path> <path d="M167.822 403.186C167.122 403.186 166.448 402.915 165.942 402.43C165.437 401.945 165.138 401.282 165.11 400.582V378.164C165.11 377.445 165.396 376.755 165.905 376.246C166.413 375.738 167.103 375.452 167.822 375.452C168.542 375.452 169.231 375.738 169.74 376.246C170.249 376.755 170.534 377.445 170.534 378.164V400.564C170.511 401.267 170.215 401.934 169.709 402.423C169.203 402.913 168.526 403.186 167.822 403.186Z" fill="#3A3A3A"></path> <path d="M147.904 410.4C147.185 410.4 146.495 410.114 145.986 409.606C145.478 409.097 145.192 408.407 145.192 407.688V385.288C145.192 384.568 145.478 383.879 145.986 383.37C146.495 382.862 147.185 382.576 147.904 382.576C148.623 382.576 149.313 382.862 149.822 383.37C150.33 383.879 150.616 384.568 150.616 385.288V407.688C150.616 408.407 150.33 409.097 149.822 409.606C149.313 410.114 148.623 410.4 147.904 410.4Z" fill="#3A3A3A"></path> <path d="M126.235 414.268C125.519 414.268 124.832 413.985 124.323 413.48C123.815 412.975 123.528 412.29 123.523 411.574V389.156C123.523 388.436 123.809 387.747 124.317 387.238C124.826 386.73 125.515 386.444 126.235 386.444C126.954 386.444 127.644 386.73 128.152 387.238C128.661 387.747 128.947 388.436 128.947 389.156V411.556C128.947 412.275 128.661 412.965 128.152 413.474C127.644 413.982 126.954 414.268 126.235 414.268Z" fill="#3A3A3A"></path> <path d="M106.353 415.517C105.633 415.517 104.944 415.231 104.435 414.722C103.926 414.214 103.641 413.524 103.641 412.805V390.405C103.641 389.685 103.926 388.996 104.435 388.487C104.944 387.978 105.633 387.693 106.353 387.693C107.072 387.693 107.762 387.978 108.27 388.487C108.779 388.996 109.065 389.685 109.065 390.405V412.805C109.065 413.524 108.779 414.214 108.27 414.722C107.762 415.231 107.072 415.517 106.353 415.517Z" fill="#3A3A3A"></path> <path d="M86.4343 414.305C85.7151 414.305 85.0253 414.02 84.5167 413.511C84.0082 413.003 83.7224 412.313 83.7224 411.594V389.193C83.7224 388.474 84.0082 387.784 84.5167 387.276C85.0253 386.767 85.7151 386.481 86.4343 386.481C87.1536 386.481 87.8434 386.767 88.3519 387.276C88.8605 387.784 89.1462 388.474 89.1462 389.193V411.576C89.1462 412.296 88.8611 412.988 88.353 413.5C87.845 414.011 87.1552 414.301 86.4343 414.305Z" fill="#3A3A3A"></path> <path d="M64.765 410.455C64.0581 410.455 63.3791 410.179 62.8725 409.686C62.366 409.193 62.072 408.522 62.0531 407.815V385.342C62.0531 384.623 62.3388 383.933 62.8474 383.425C63.356 382.916 64.0458 382.631 64.765 382.631C65.4842 382.631 66.174 382.916 66.6826 383.425C67.1912 383.933 67.4769 384.623 67.4769 385.342V407.815C67.458 408.522 67.164 409.193 66.6575 409.686C66.1509 410.179 65.4719 410.455 64.765 410.455Z" fill="#3A3A3A"></path> <path d="M44.8829 403.294C44.1636 403.294 43.4738 403.008 42.9653 402.5C42.4567 401.991 42.171 401.301 42.171 400.582V378.164C42.171 377.445 42.4567 376.755 42.9653 376.246C43.4738 375.738 44.1636 375.452 44.8829 375.452C45.6021 375.452 46.2919 375.738 46.8005 376.246C47.309 376.755 47.5948 377.445 47.5948 378.164V400.582C47.5948 401.301 47.309 401.991 46.8005 402.5C46.2919 403.008 45.6021 403.294 44.8829 403.294Z" fill="#3A3A3A"></path> <path d="M24.9646 390.729C24.2454 390.729 23.5556 390.444 23.047 389.935C22.5384 389.426 22.2527 388.737 22.2527 388.017V365.617C22.2527 364.898 22.5384 364.208 23.047 363.7C23.5556 363.191 24.2454 362.905 24.9646 362.905C25.6838 362.905 26.3736 363.191 26.8822 363.7C27.3908 364.208 27.6765 364.898 27.6765 365.617V388.017C27.6765 388.737 27.3908 389.426 26.8822 389.935C26.3736 390.444 25.6838 390.729 24.9646 390.729Z" fill="#3A3A3A"></path> <path d="M480.276 166.364V181.822L434.553 208.218L432.167 204.096L426.237 197.804L480.276 166.364Z" fill="#D7DCE0"></path> <path d="M480.366 125.85L292.468 234.325L84.9903 114.55C79.9642 111.639 75.3359 111.332 71.7201 113.176L259.148 4.95361C262.764 2.83834 267.645 3.03724 272.888 6.05648L480.366 125.85Z" fill="white"></path> <path d="M480.812 166.365L426.773 197.805L411.17 181.245L458.574 154.09V154.108L480.812 166.365Z" fill="#3A3A3A"></path> <path d="M432.252 204.097L434.62 208.219L292.463 290.299L241.208 260.722L257.932 255.75L292.463 275.691L398.155 214.204L432.252 204.097Z" fill="#D7DCE0"></path> <path d="M426.322 197.806L432.252 204.098L304.793 241.866L410.702 181.246L426.322 197.806Z" fill="white"></path> <path d="M458.006 153.493L292.345 248.337L78.5397 124.892C78.1673 124.674 77.7808 124.48 77.3827 124.313C76.7596 126.051 76.4713 127.892 76.5329 129.737C76.5329 141.579 84.2709 154.885 91.1952 158.899L154.147 195.311L184.412 227.401L84.8675 170C73.2787 163.292 63.8774 145.34 63.8774 129.882C63.8774 121.421 66.6797 115.418 71.1092 112.905L71.5792 112.634C75.1951 110.826 79.8234 111.097 84.8494 114.008L292.327 233.783L480.225 125.308V140.838L458.006 153.493Z" fill="#D7DCE0"></path> <path d="M398.139 214.203L292.448 275.691L257.917 255.749L288.543 246.673L292.448 248.933L304.778 241.864L398.139 214.203Z" fill="#3A3A3A"></path> <path d="M276.455 239.678L261.539 247.506L109.077 143.044L276.455 239.678Z" fill="white"></path> <path d="M258.833 256.003L221.446 267.086L184.419 227.854H184.401L153.721 195.311H153.703L97.4759 135.704L262.467 247.632L277.6 239.696L289.875 246.783L258.833 256.003Z" fill="white"></path> <path d="M154.231 195.925L91.2792 159.585C84.3549 155.572 76.6169 142.266 76.6169 130.424C76.5553 128.578 76.8436 126.738 77.4666 125C77.8648 125.167 78.2513 125.36 78.6237 125.578L98.764 137.149L154.231 195.925Z" fill="#3A3A3A"></path> <path d="M154.246 198.639C153.768 198.634 153.3 198.503 152.89 198.259L89.9377 161.92C82.3624 157.526 73.9194 143.515 73.9194 130.407C73.8408 128.177 74.2033 125.953 74.9861 123.863C75.124 123.527 75.3279 123.222 75.5859 122.966C75.8439 122.71 76.1506 122.509 76.4878 122.374C76.8251 122.239 77.186 122.174 77.5492 122.181C77.9123 122.188 78.2703 122.268 78.6019 122.416C79.1077 122.627 79.5972 122.875 80.0664 123.158L110.367 140.64C110.675 140.817 110.944 141.053 111.161 141.334C111.377 141.615 111.536 141.936 111.628 142.278C111.721 142.621 111.745 142.978 111.699 143.33C111.653 143.682 111.538 144.021 111.362 144.328C111.185 144.636 110.949 144.906 110.668 145.122C110.387 145.338 110.066 145.497 109.723 145.589C109.381 145.682 109.024 145.706 108.672 145.66C108.32 145.614 107.981 145.5 107.673 145.323L79.4697 129.051C79.4697 129.449 79.4697 129.901 79.4697 130.389C79.4697 141.237 86.7015 153.639 92.7761 157.219L155.602 193.504C156.119 193.802 156.524 194.263 156.753 194.815C156.982 195.367 157.023 195.979 156.868 196.556C156.714 197.133 156.373 197.643 155.898 198.007C155.424 198.37 154.843 198.567 154.246 198.566V198.639Z" fill="#3A3A3A"></path> <path d="M293.265 251.664C292.787 251.665 292.318 251.533 291.91 251.285L108.513 145.394C108.18 145.231 107.883 145 107.643 144.716C107.402 144.433 107.222 144.104 107.114 143.748C107.006 143.392 106.972 143.018 107.015 142.649C107.058 142.28 107.176 141.923 107.362 141.601C107.549 141.28 107.799 141 108.098 140.779C108.397 140.558 108.738 140.401 109.101 140.318C109.463 140.234 109.838 140.226 110.204 140.294C110.569 140.362 110.917 140.504 111.225 140.712L293.265 245.807L478.451 139.808V125.833C478.451 125.113 478.737 124.424 479.246 123.915C479.754 123.406 480.444 123.121 481.163 123.121C481.883 123.121 482.572 123.406 483.081 123.915C483.59 124.424 483.875 125.113 483.875 125.833V141.381C483.872 141.856 483.745 142.323 483.508 142.735C483.27 143.147 482.929 143.49 482.519 143.731L294.621 251.357C294.202 251.571 293.736 251.677 293.265 251.664Z" fill="#3A3A3A"></path> <path d="M292.456 278.476C291.978 278.473 291.51 278.342 291.1 278.096L256.587 258.209C256.253 258.045 255.957 257.814 255.716 257.531C255.476 257.248 255.296 256.918 255.188 256.562C255.08 256.206 255.046 255.832 255.089 255.463C255.132 255.094 255.25 254.737 255.436 254.416C255.622 254.094 255.873 253.814 256.172 253.593C256.471 253.372 256.812 253.215 257.174 253.132C257.537 253.048 257.912 253.04 258.278 253.108C258.643 253.176 258.991 253.318 259.299 253.526L292.456 272.654L396.792 211.962C397.1 211.767 397.444 211.636 397.804 211.577C398.163 211.519 398.531 211.533 398.885 211.619C399.239 211.706 399.572 211.862 399.864 212.08C400.156 212.298 400.401 212.573 400.585 212.888C400.768 213.203 400.886 213.551 400.932 213.913C400.978 214.274 400.95 214.641 400.851 214.992C400.752 215.342 400.583 215.67 400.355 215.954C400.126 216.237 399.843 216.472 399.522 216.644L293.83 278.114C293.413 278.354 292.938 278.479 292.456 278.476Z" fill="#3A3A3A"></path> <path d="M293.265 293.031C292.786 293.031 292.317 292.9 291.909 292.651L240.781 263.146C240.265 262.869 239.85 262.438 239.593 261.912C239.337 261.386 239.253 260.793 239.352 260.217C239.437 259.793 239.622 259.395 239.891 259.057C240.161 258.719 240.508 258.45 240.902 258.273C241.297 258.096 241.728 258.016 242.159 258.04C242.591 258.063 243.011 258.19 243.384 258.409L293.265 287.191L478.451 180.27V171.086L428.48 200.157C428.171 200.365 427.824 200.507 427.458 200.575C427.093 200.643 426.717 200.635 426.355 200.552C425.993 200.468 425.652 200.311 425.353 200.09C425.054 199.87 424.803 199.59 424.617 199.268C424.431 198.946 424.312 198.59 424.27 198.221C424.227 197.851 424.261 197.477 424.369 197.121C424.476 196.766 424.656 196.436 424.897 196.153C425.138 195.869 425.434 195.639 425.768 195.475L479.807 164.035C480.219 163.797 480.687 163.672 481.163 163.672C481.639 163.672 482.107 163.797 482.519 164.035C482.932 164.274 483.274 164.616 483.512 165.029C483.75 165.441 483.875 165.909 483.875 166.385V181.843C483.874 182.317 483.748 182.782 483.51 183.191C483.272 183.601 482.93 183.94 482.519 184.175L294.621 292.651C294.212 292.9 293.743 293.031 293.265 293.031Z" fill="#3A3A3A"></path> <path d="M292.461 237.02C291.985 237.024 291.517 236.899 291.105 236.659L83.6277 116.884C79.5779 114.533 75.8717 114.099 72.9428 115.582C72.3177 115.871 71.6061 115.911 70.9524 115.694C70.2987 115.478 69.7519 115.02 69.4229 114.415C69.0939 113.81 69.0075 113.103 69.181 112.437C69.3546 111.77 69.7752 111.195 70.3575 110.827L257.785 2.60443C262.486 -0.0893812 268.326 0.290257 274.237 3.70724L481.715 123.501C482.129 123.736 482.473 124.076 482.712 124.488C482.951 124.899 483.077 125.366 483.077 125.842C483.077 126.318 482.951 126.785 482.712 127.196C482.473 127.607 482.129 127.948 481.715 128.183L293.817 236.659C293.407 236.902 292.938 237.027 292.461 237.02ZM82.1633 110.339C83.6159 110.844 85.0148 111.492 86.3396 112.273L292.443 231.253L474.918 125.905L271.508 8.38977C267.349 6.0033 263.426 5.6056 260.479 7.30505L82.1633 110.339Z" fill="#3A3A3A"></path> <path d="M71.225 116.159C70.6275 116.16 70.0465 115.963 69.5722 115.6C69.098 115.236 68.7571 114.726 68.6025 114.149C68.4479 113.572 68.4882 112.96 68.7173 112.408C68.9463 111.856 69.3512 111.395 69.8691 111.097L70.3391 110.826C70.6474 110.618 70.995 110.476 71.3605 110.408C71.726 110.34 72.1015 110.348 72.4637 110.432C72.826 110.515 73.1672 110.672 73.4662 110.893C73.7652 111.114 74.0157 111.394 74.202 111.715C74.3883 112.037 74.5064 112.394 74.5491 112.763C74.5919 113.132 74.5582 113.506 74.4503 113.862C74.3424 114.218 74.1625 114.547 73.9217 114.831C73.681 115.114 73.3847 115.345 73.051 115.508L72.581 115.798C72.1667 116.031 71.7003 116.155 71.225 116.159Z" fill="#3A3A3A"></path> <path d="M184.515 230.728C184.038 230.723 183.57 230.592 183.159 230.348L83.5968 172.874C71.0679 165.643 61.2509 146.985 61.2509 130.406C61.2509 121.276 64.3967 114.135 69.8566 111.097C70.1652 110.919 70.5059 110.804 70.8592 110.757C71.2125 110.711 71.5715 110.735 71.9157 110.827C72.2598 110.919 72.5824 111.079 72.865 111.296C73.1477 111.513 73.3848 111.783 73.5628 112.092C73.7409 112.4 73.8564 112.741 73.9028 113.094C73.9492 113.448 73.9256 113.807 73.8333 114.151C73.7409 114.495 73.5817 114.818 73.3647 115.1C73.1477 115.383 72.8771 115.62 72.5685 115.798C68.8261 117.931 66.6746 123.265 66.6746 130.406C66.6746 144.978 75.4973 161.918 86.3087 168.192L185.871 225.666C186.389 225.964 186.794 226.425 187.023 226.977C187.252 227.529 187.293 228.141 187.138 228.718C186.983 229.295 186.642 229.805 186.168 230.169C185.694 230.532 185.113 230.729 184.515 230.728Z" fill="#3A3A3A"></path> <path d="M480.309 169.095C479.852 169.095 479.404 168.977 479.007 168.751L456.715 156.494C456.085 156.146 455.618 155.562 455.418 154.871C455.218 154.179 455.301 153.436 455.649 152.806C455.996 152.175 456.58 151.708 457.272 151.508C457.963 151.308 458.706 151.391 459.337 151.739L481.574 163.997C482.108 164.285 482.53 164.743 482.772 165.299C483.015 165.855 483.064 166.476 482.912 167.063C482.76 167.65 482.415 168.169 481.934 168.537C481.452 168.906 480.861 169.102 480.254 169.095H480.309Z" fill="#3A3A3A"></path> <path d="M304.882 244.595C304.296 244.589 303.728 244.396 303.26 244.045C302.792 243.694 302.448 243.202 302.278 242.642C302.075 241.956 302.152 241.218 302.49 240.588C302.829 239.959 303.402 239.488 304.086 239.279L427.296 202.759L408.783 183.107C408.472 182.865 408.218 182.558 408.038 182.207C407.858 181.856 407.756 181.471 407.74 181.077C407.724 180.683 407.794 180.29 407.946 179.926C408.097 179.562 408.326 179.236 408.616 178.969C408.907 178.703 409.252 178.503 409.628 178.383C410.003 178.264 410.401 178.228 410.792 178.277C411.183 178.327 411.558 178.461 411.892 178.671C412.226 178.88 412.51 179.16 412.725 179.491L434.257 202.343C434.577 202.678 434.805 203.089 434.92 203.537C435.034 203.986 435.031 204.456 434.912 204.903C434.792 205.35 434.559 205.758 434.235 206.089C433.911 206.419 433.508 206.661 433.064 206.791L305.623 244.558C305.379 244.61 305.129 244.622 304.882 244.595Z" fill="#3A3A3A"></path> <path d="M221.039 269.435C220.67 269.436 220.305 269.362 219.966 269.215C219.627 269.069 219.321 268.855 219.069 268.586L182.747 230.077C182.673 230.026 182.606 229.966 182.548 229.896L152.464 197.95C152.39 197.9 152.323 197.839 152.266 197.769L96.8164 138.993C96.5428 138.741 96.3241 138.435 96.174 138.094C96.0239 137.754 95.9455 137.386 95.9437 137.013C95.942 136.641 96.0169 136.272 96.1638 135.93C96.3108 135.588 96.5266 135.28 96.7978 135.025C97.069 134.77 97.3898 134.573 97.7403 134.448C98.0908 134.322 98.4633 134.27 98.8348 134.295C99.2063 134.319 99.5688 134.42 99.8996 134.591C100.23 134.762 100.523 134.999 100.758 135.287L156.044 193.882L156.225 194.063L186.327 226.045L186.508 226.226L221.871 263.686L287.77 244.125C288.175 244.015 288.599 243.998 289.011 244.077C289.423 244.155 289.812 244.326 290.148 244.577C290.484 244.828 290.759 245.152 290.951 245.525C291.144 245.897 291.249 246.309 291.259 246.728C291.259 247.34 291.051 247.934 290.67 248.413C290.29 248.892 289.758 249.229 289.162 249.368L221.817 269.255C221.567 269.352 221.306 269.413 221.039 269.435Z" fill="#3A3A3A"></path> <path d="M261.469 250.236C260.925 250.235 260.394 250.064 259.951 249.748L107.488 145.286C106.887 144.881 106.469 144.256 106.324 143.546C106.178 142.836 106.317 142.098 106.711 141.489C107.097 140.918 107.691 140.52 108.365 140.378C109.04 140.237 109.743 140.363 110.327 140.73L261.578 244.36L275.047 237.291C275.364 237.095 275.717 236.967 276.086 236.913C276.454 236.86 276.83 236.883 277.189 236.981C277.548 237.079 277.883 237.25 278.173 237.484C278.464 237.717 278.703 238.008 278.876 238.338C279.049 238.667 279.152 239.029 279.179 239.401C279.206 239.772 279.156 240.145 279.033 240.496C278.909 240.847 278.715 241.17 278.461 241.442C278.208 241.715 277.901 241.933 277.56 242.082L262.645 249.911C262.284 250.109 261.881 250.221 261.469 250.236Z" fill="#3A3A3A"></path> <path d="M454.699 192.381C457.628 205.705 454.59 214.98 448.281 218.632L384.081 255.694C388.746 253 391.638 247.251 391.638 239.061C391.637 237.745 391.564 236.429 391.421 235.12C389.758 219.626 378.947 201.999 365.893 194.478L317.748 166.672C315.972 165.647 314.498 164.172 313.472 162.397C312.447 160.621 311.907 158.607 311.907 156.556C311.907 154.506 312.447 152.492 313.472 150.716C314.498 148.94 315.972 147.466 317.748 146.441L344.867 130.748C350.794 127.32 357.519 125.515 364.366 125.515C371.212 125.515 377.938 127.32 383.864 130.748L427.508 155.951C434.315 159.81 440.247 165.04 444.927 171.311C449.608 177.582 452.935 184.757 454.699 192.381Z" fill="#D7DCE0"></path> <path d="M391.432 235.085C391.575 236.394 391.647 237.709 391.649 239.026C391.649 247.216 388.756 252.965 384.092 255.659C379.427 258.353 372.991 257.973 365.904 253.851L362.469 251.88L391.432 235.085Z" fill="white"></path> <path d="M377.318 260.107C372.788 259.953 368.376 258.62 364.518 256.238L361.083 254.268C360.672 254.032 360.33 253.693 360.092 253.283C359.854 252.874 359.728 252.409 359.727 251.935C359.719 251.46 359.84 250.991 360.075 250.577C360.31 250.164 360.652 249.821 361.065 249.585L388.473 233.639C386.322 219.176 376.27 203.573 364.518 196.794L316.373 168.988C314.202 167.71 312.403 165.888 311.152 163.702C309.902 161.516 309.244 159.041 309.244 156.522C309.244 154.003 309.902 151.528 311.152 149.342C312.403 147.156 314.202 145.334 316.373 144.056L343.492 128.363C349.836 124.712 357.027 122.789 364.346 122.789C371.666 122.789 378.857 124.712 385.201 128.363L428.844 153.566C435.97 157.628 442.176 163.123 447.071 169.704C451.966 176.286 455.443 183.811 457.283 191.804C460.302 205.544 457.428 216.446 449.581 220.984L385.382 258.046L384.912 258.263C382.57 259.491 379.962 260.124 377.318 260.107ZM367.845 251.899C373.576 255.027 378.837 255.515 382.688 253.309C386.539 251.104 388.744 246.258 388.871 239.678L367.845 251.899ZM394.078 234.85C394.227 236.238 394.305 237.632 394.313 239.027C394.342 241.805 393.983 244.574 393.246 247.253L446.815 216.337C452.6 212.993 454.517 204.278 452.022 192.961C450.344 185.705 447.181 178.876 442.731 172.904C438.281 166.933 432.642 161.949 426.169 158.267L382.597 133.064C377.08 129.885 370.823 128.211 364.455 128.211C358.087 128.211 351.83 129.885 346.312 133.064L319.193 148.757C317.826 149.54 316.69 150.671 315.9 152.035C315.109 153.398 314.693 154.946 314.693 156.522C314.693 158.098 315.109 159.646 315.9 161.009C316.69 162.373 317.826 163.504 319.193 164.287L367.339 192.093C380.898 199.921 392.433 218.236 394.186 234.742C394.163 234.789 394.125 234.827 394.078 234.85Z" fill="#3A3A3A"></path> <path d="M372.944 147.472C377.753 150.257 377.753 154.704 372.944 157.506C370.254 158.879 367.277 159.595 364.256 159.595C361.236 159.595 358.259 158.879 355.569 157.506C350.76 154.74 350.76 150.275 355.569 147.472C358.262 146.108 361.238 145.397 364.256 145.397C367.275 145.397 370.251 146.108 372.944 147.472Z" fill="#0053FF"></path> <path d="M364.269 162.298C360.765 162.358 357.304 161.518 354.217 159.858C352.753 159.261 351.499 158.242 350.616 156.929C349.734 155.617 349.263 154.072 349.263 152.49C349.263 150.909 349.734 149.363 350.616 148.051C351.499 146.739 352.753 145.719 354.217 145.123C357.322 143.519 360.765 142.681 364.26 142.681C367.755 142.681 371.199 143.519 374.303 145.123C375.768 145.719 377.021 146.739 377.904 148.051C378.786 149.363 379.258 150.909 379.258 152.49C379.258 154.072 378.786 155.617 377.904 156.929C377.021 158.242 375.768 159.261 374.303 159.858C371.224 161.52 367.768 162.361 364.269 162.298ZM364.269 148.106C361.709 148.08 359.184 148.702 356.929 149.914C355.519 150.728 354.687 151.722 354.687 152.59C354.687 153.457 355.519 154.398 356.929 155.247C359.207 156.38 361.716 156.969 364.26 156.969C366.804 156.969 369.313 156.38 371.591 155.247C373.001 154.452 373.833 153.439 373.833 152.59C373.833 151.74 373.001 150.782 371.591 149.914C369.343 148.702 366.823 148.08 364.269 148.106Z" fill="#3A3A3A"></path> </svg> 