<?xml version="1.0" encoding="UTF-8"?> <svg xmlns="http://www.w3.org/2000/svg" width="519" height="505" viewBox="0 0 519 505" fill="none"> <path d="M46.7913 268.095C47.2736 268.031 47.7621 268.031 48.2444 268.095L47.9411 269.692C47.5855 269.652 47.2264 269.652 46.8709 269.692H46.2323C45.7636 269.697 45.2983 269.616 44.8592 269.452L45.4498 267.967C45.8845 268.096 46.3402 268.139 46.7913 268.095Z" fill="#E0DFE6"></path> <path d="M206.949 254.233C206.407 254.233 205.927 254.233 205.353 254.233C203.356 254.233 197.528 254.233 195.771 254.233V252.636C197.448 252.636 203.213 252.636 205.193 252.636C205.752 252.636 206.279 252.636 206.79 252.636C207.301 252.636 208.387 252.732 209.521 252.636V254.233H208.594C208.131 254.297 207.508 254.265 206.949 254.233Z" fill="#E0DFE6"></path> <path d="M203.262 241.362C199.671 240.981 196.057 240.875 192.451 241.042L192.323 239.445C196.02 239.277 199.724 239.384 203.405 239.765C205.976 239.988 208.627 240.212 211.23 240.212C213.667 240.235 216.099 239.983 218.48 239.461L218.831 241.058C216.338 241.621 213.786 241.889 211.23 241.857C208.563 241.809 205.865 241.585 203.262 241.362Z" fill="#E0DFE6"></path> <path d="M189.673 232.691H224.709V234.288H189.673V232.691Z" fill="#E0DFE6"></path> <path d="M196.739 247.494H193.546V245.897H196.739C202.221 245.713 207.71 245.873 213.172 246.376L212.948 247.973C207.56 247.484 202.147 247.324 196.739 247.494Z" fill="#E0DFE6"></path> <path d="M152.342 225.553C150.442 225.553 148.446 225.441 146.274 225.441C141.931 225.441 137.475 225.585 133.148 225.745L137.938 223.988C140.733 223.988 143.559 223.845 146.338 223.845C148.781 223.845 151.001 223.845 153.109 223.988V225.585L152.342 225.553Z" fill="#E0DFE6"></path> <path d="M207.537 216.531C211.05 216.531 214.548 216.403 218.061 216.403C223.927 216.353 229.791 216.625 235.627 217.217L235.451 218.814C229.683 218.236 223.889 217.97 218.093 218.016C214.596 218.016 200.527 218.271 197.077 218.271C194.954 218.271 193.309 218.367 191.712 218.463C188.767 218.707 185.805 218.675 182.865 218.367L183.041 216.77C185.895 217.07 188.772 217.102 191.632 216.866C193.229 216.866 194.826 216.674 197.077 216.674C200.543 216.658 203.96 216.594 207.537 216.531Z" fill="#E0DFE6"></path> <path d="M154.423 218.415C155.828 217.984 157.217 217.568 158.622 217.169H159.133L158.958 218.766C157.537 218.654 156.02 218.511 154.423 218.415Z" fill="#E0DFE6"></path> <path d="M194.341 264.149L195.426 265.315C194.273 266.415 193.255 267.648 192.393 268.988C191.866 269.77 191.275 270.585 190.396 271.766L189.135 270.792C189.981 269.706 190.572 268.844 191.083 268.093C192 266.648 193.095 265.323 194.341 264.149Z" fill="#E0DFE6"></path> <path d="M228.717 225.552C226.816 225.552 224.836 225.44 222.664 225.44C218.273 225.44 213.754 225.584 209.394 225.743C205.035 225.903 200.452 226.047 195.996 226.047C191.541 226.047 187.708 225.887 184.179 225.568L184.323 223.971C187.804 224.29 191.621 224.434 195.996 224.434C200.372 224.434 204.955 224.274 209.346 224.13C213.738 223.987 218.241 223.827 222.664 223.827C225.092 223.827 227.311 223.827 229.419 223.971V225.568L228.717 225.552Z" fill="#E0DFE6"></path> <path d="M179.995 272.006L178.733 271.032C181.927 266.848 185.632 262.089 190.103 258.8L191.045 260.093C186.733 263.239 183.188 267.902 179.995 272.006Z" fill="#E0DFE6"></path> <path d="M117.125 245.897H120.318C125.8 245.713 131.289 245.873 136.751 246.376L136.527 247.973C131.144 247.49 125.736 247.336 120.334 247.509H117.141L117.125 245.897Z" fill="#E0DFE6"></path> <path d="M123.295 269.691C122.465 269.762 121.629 269.697 120.819 269.499L121.25 267.903C121.9 268.046 122.568 268.089 123.231 268.03C123.842 267.975 124.456 267.975 125.067 268.03L124.843 269.627C124.326 269.601 123.808 269.622 123.295 269.691Z" fill="#E0DFE6"></path> <path d="M123.937 262.393C123.022 262.345 122.105 262.345 121.19 262.393L121.078 260.796C122.101 260.796 123.01 260.796 123.985 260.796C124.959 260.796 125.853 260.796 126.955 260.796C127.992 260.724 129.032 260.724 130.069 260.796L129.893 262.393C128.925 262.336 127.955 262.336 126.987 262.393C125.853 262.441 124.863 262.425 123.937 262.393Z" fill="#E0DFE6"></path> <path d="M128.286 269.849C137.037 257.792 144.255 248.099 151.026 239.348C158.26 229.974 165.046 221.607 171.61 213.798C172.472 213.606 173.334 213.399 174.212 213.223C167.218 221.367 160.016 230.246 152.287 240.242C145.548 248.993 138.314 258.671 129.563 270.711L128.286 269.849Z" fill="#E0DFE6"></path> <path d="M151.877 269.275L150.711 268.189C153.346 265.362 156.06 262.104 159.015 258.288C161.969 254.471 164.939 250.303 167.782 246.375C170.624 242.447 173.531 238.391 176.517 234.51C178.114 232.37 179.711 230.454 181.308 228.681L182.537 229.687L182.09 230.278C180.749 231.875 179.359 233.6 177.89 235.5C174.92 239.349 172.014 243.405 169.187 247.333C166.361 251.262 163.406 255.318 160.388 259.278C157.37 263.238 154.543 266.4 151.877 269.275Z" fill="#E0DFE6"></path> <path d="M140.441 266.848C144.852 262.187 149.004 257.288 152.881 252.173C155.26 249.107 164.506 236.651 166.886 233.585C170.805 228.428 175 223.486 179.453 218.782L180.603 219.884C176.191 224.549 172.033 229.448 168.147 234.559C165.784 237.625 156.522 250.065 154.158 253.147C150.235 258.301 146.04 263.242 141.591 267.95L140.441 266.848Z" fill="#E0DFE6"></path> <path d="M82.8495 259.263C79.8633 263.127 77.1006 266.401 74.4338 269.275L73.2681 268.189C75.903 265.347 78.618 262.105 81.5723 258.289C84.5265 254.472 87.5127 250.304 90.3392 246.376L93.1178 242.543L96.0399 241.234C94.5547 243.262 93.0856 245.306 91.6324 247.318C88.7899 251.262 85.8037 255.35 82.8495 259.263Z" fill="#E0DFE6"></path> <path d="M227.119 210.126C220.236 209.903 212.986 209.791 205.21 209.791C199.972 209.791 196.442 209.791 193.057 209.967C200.695 209.002 208.386 208.527 216.085 208.546C219.816 208.591 223.525 209.122 227.119 210.126Z" fill="#E0DFE6"></path> <path d="M126.877 241.362C123.281 240.981 119.662 240.875 116.05 241.042L115.938 239.446C119.63 239.277 123.329 239.384 127.005 239.765C129.576 239.988 132.242 240.212 134.829 240.212C137.272 240.235 139.709 239.983 142.095 239.461L142.447 241.058C139.948 241.622 137.391 241.89 134.829 241.857C132.178 241.809 129.48 241.585 126.877 241.362Z" fill="#E0DFE6"></path> <path d="M113.306 233.697L115.653 232.707H148.325V234.304H113.306V233.697Z" fill="#E0DFE6"></path> <path d="M119.533 252.588C121.13 252.588 126.959 252.588 128.955 252.588C129.514 252.588 130.041 252.588 130.552 252.588C131.063 252.588 132.149 252.684 133.283 252.588V254.185H132.356C131.59 254.185 130.967 254.185 130.392 254.185C129.817 254.185 129.37 254.185 128.795 254.185C126.799 254.185 120.954 254.185 119.214 254.185L119.533 252.588Z" fill="#E0DFE6"></path> <path d="M108.14 238.936L109.403 239.912L85.7036 270.599L84.4397 269.622L108.14 238.936Z" fill="#E0DFE6"></path> <path d="M203.407 262.424C202.274 262.424 201.284 262.424 200.358 262.424C199.443 262.376 198.526 262.376 197.611 262.424L197.515 260.827C198.521 260.827 199.447 260.827 200.421 260.827C201.396 260.827 202.274 260.827 203.391 260.827C204.423 260.755 205.458 260.755 206.49 260.827L206.314 262.424C205.346 262.367 204.375 262.367 203.407 262.424Z" fill="#E0DFE6"></path> <path d="M185.692 238.889L186.956 239.865L163.256 270.551L161.992 269.575L185.692 238.889Z" fill="#E0DFE6"></path> <path d="M200.071 268.095C200.554 268.032 201.042 268.032 201.524 268.095L201.221 269.692C200.866 269.652 200.506 269.652 200.151 269.692H199.512C199.044 269.698 198.578 269.617 198.139 269.453L198.73 267.968C199.165 268.096 199.62 268.14 200.071 268.095Z" fill="#E0DFE6"></path> <path d="M178.391 261.033C182.335 256.514 186.806 251.452 188.323 249.44L189.585 250.414C187.988 252.41 183.565 257.552 179.604 262.087C176.538 265.584 173.664 268.874 172.897 269.88C172.131 270.886 171.54 271.7 170.965 272.579L169.624 271.7C170.23 270.79 170.885 269.864 171.62 268.906C172.354 267.948 175.197 264.706 178.391 261.033Z" fill="#E0DFE6"></path> <path d="M52.0224 270.713L50.7292 269.771C53.3481 266.178 55.8072 262.808 58.1865 259.582C59.3044 258.944 60.438 258.305 61.5718 257.698C58.5696 261.738 55.3758 266.034 52.0224 270.713Z" fill="#E0DFE6"></path> <path d="M76.6871 253.146C72.7636 258.3 68.5683 263.242 64.1193 267.95L62.9696 266.848C67.3812 262.182 71.5392 257.284 75.4255 252.172L77.2777 249.729L80.376 248.276C79.1624 249.905 77.9327 251.533 76.6871 253.146Z" fill="#E0DFE6"></path> <path d="M261.697 264.916C259.509 267.423 257.353 269.946 255.772 272.006L254.495 271.032C256.411 268.557 259.094 265.459 261.697 262.489" fill="#E0DFE6"></path> <path d="M244.886 247.318C242.043 251.262 239.105 255.302 236.103 259.263C233.101 263.223 230.37 266.401 227.687 269.275L226.522 268.189C229.156 265.347 231.871 262.105 234.842 258.288C237.812 254.472 240.766 250.304 243.593 246.376C246.419 242.447 249.341 238.391 252.328 234.511C253.398 233.121 254.419 231.86 255.41 230.646C255.713 231.141 255.984 231.636 256.256 232.131C255.394 233.201 254.515 234.287 253.589 235.485C250.635 239.333 247.712 243.389 244.886 247.318Z" fill="#E0DFE6"></path> <path d="M259.98 243.373L239.093 270.424L237.831 269.45L259.613 241.249C259.613 241.424 259.693 241.584 259.724 241.76C259.82 242.303 259.884 242.846 259.98 243.357" fill="#E0DFE6"></path> <path d="M243.972 234.558C241.593 237.624 232.347 250.064 229.968 253.146C226.044 258.3 221.849 263.241 217.4 267.949L216.25 266.847C220.662 262.182 224.82 257.283 228.706 252.172C231.069 249.106 240.331 236.65 242.711 233.584C245.473 230.007 248.012 226.893 250.439 224.003C250.807 224.402 251.158 224.801 251.51 225.216C249.13 228.027 246.671 231.061 243.972 234.558Z" fill="#E0DFE6"></path> <path d="M228.068 240.243C221.329 248.978 214.111 258.656 205.36 270.712L204.066 269.77C212.833 257.713 220.035 248.02 226.806 239.269C232.715 231.62 238.304 224.658 243.733 218.142L245.011 219.1C239.581 225.616 233.992 232.594 228.068 240.243Z" fill="#E0DFE6"></path> <path d="M260.211 256.646C258.406 258.977 256.394 261.181 254.446 263.305C252.498 265.429 250.518 267.6 248.761 269.884C248.043 270.81 247.404 271.689 246.829 272.583L245.487 271.704C246.094 270.778 246.749 269.868 247.5 268.91C249.288 266.578 251.316 264.375 253.264 262.235C255.212 260.095 257.193 257.939 258.949 255.672C259.636 254.777 260.403 253.835 261.185 252.893" fill="#E0DFE6"></path> <path d="M294.529 437.573L295.727 438.627C287.934 447.57 279.933 457.391 271.246 468.617C264.507 477.368 257.273 487.045 248.522 499.086L247.245 498.143C255.996 486.087 263.214 476.394 269.985 467.643C278.688 456.417 286.704 446.58 294.529 437.573Z" fill="#E0DFE6"></path> <path d="M200.071 335.163C200.554 335.108 201.042 335.108 201.524 335.163L201.221 336.76C200.866 336.72 200.506 336.72 200.151 336.76H199.512C199.044 336.766 198.578 336.684 198.139 336.521L198.73 335.035C199.165 335.164 199.62 335.208 200.071 335.163Z" fill="#E0DFE6"></path> <path d="M203.407 329.492C202.274 329.492 201.284 329.492 200.358 329.492C199.443 329.444 198.526 329.444 197.611 329.492L197.515 327.895C198.521 327.895 199.447 327.895 200.421 327.895C201.396 327.895 202.274 327.895 203.391 327.895C204.423 327.822 205.458 327.822 206.49 327.895L206.314 329.492C205.346 329.435 204.375 329.435 203.407 329.492Z" fill="#E0DFE6"></path> <path d="M207.569 285.197C204.056 285.197 200.559 285.325 197.045 285.325C194.922 285.325 193.277 285.421 191.68 285.516C188.735 285.761 185.773 285.728 182.833 285.421L183.009 283.824C185.863 284.124 188.74 284.156 191.6 283.92C193.197 283.92 194.794 283.728 197.045 283.728C200.543 283.728 214.612 283.473 218.061 283.473C223.927 283.423 229.791 283.694 235.627 284.287L235.451 285.884C229.683 285.306 223.889 285.039 218.093 285.085C214.564 285.069 211.066 285.133 207.569 285.197Z" fill="#E0DFE6"></path> <path d="M189.673 299.761H224.709V301.358H189.673V299.761Z" fill="#E0DFE6"></path> <path d="M194.341 331.219L195.426 332.385C194.273 333.485 193.255 334.718 192.393 336.058C191.866 336.84 191.275 337.655 190.396 338.836L189.135 337.862C189.981 336.776 190.572 335.914 191.083 335.164C192 333.718 193.095 332.393 194.341 331.219Z" fill="#E0DFE6"></path> <path d="M206.949 321.303C206.407 321.303 205.927 321.303 205.353 321.303C203.356 321.303 197.528 321.303 195.771 321.303V319.706C197.448 319.706 203.213 319.706 205.193 319.706C205.752 319.706 206.279 319.706 206.79 319.706C207.301 319.706 208.387 319.802 209.521 319.706V321.303H208.594C208.131 321.367 207.508 321.335 206.949 321.303Z" fill="#E0DFE6"></path> <path d="M203.262 308.431C199.671 308.051 196.057 307.944 192.451 308.112L192.323 306.515C196.02 306.346 199.724 306.453 203.405 306.834C205.976 307.058 208.627 307.281 211.23 307.281C213.667 307.304 216.099 307.052 218.48 306.531L218.831 308.127C216.338 308.69 213.786 308.958 211.23 308.926C208.563 308.878 205.865 308.654 203.262 308.431Z" fill="#E0DFE6"></path> <path d="M196.739 314.564H193.546V312.967H196.739C202.221 312.783 207.71 312.943 213.172 313.446L212.948 315.043C207.56 314.555 202.147 314.395 196.739 314.564Z" fill="#E0DFE6"></path> <path d="M240.157 277.834C229.474 277.211 218.04 276.907 205.201 276.907C197.344 276.907 193.352 277.051 187.842 277.259C185.335 277.355 182.541 277.466 178.964 277.562V275.965C182.541 275.87 185.351 275.758 187.826 275.662C193.368 275.454 197.408 275.311 205.249 275.311C218.12 275.311 229.585 275.614 240.301 276.253L240.157 277.834Z" fill="#E0DFE6"></path> <path d="M228.717 292.622C226.816 292.622 224.836 292.511 222.664 292.511C218.273 292.511 213.754 292.654 209.394 292.814C205.035 292.974 200.452 293.117 195.996 293.117C191.541 293.117 187.708 292.958 184.179 292.638L184.323 291.041C187.804 291.361 191.621 291.504 195.996 291.504C200.372 291.504 204.955 291.345 209.346 291.201C213.738 291.057 218.241 290.898 222.664 290.898C225.092 290.898 227.311 290.898 229.419 291.041V292.638L228.717 292.622Z" fill="#E0DFE6"></path> <path d="M259.399 495.254C263.809 490.592 267.962 485.693 271.838 480.579C274.218 477.512 283.464 465.057 285.843 461.991C289.763 456.833 293.958 451.892 298.411 447.187L299.56 448.289C295.149 452.955 290.991 457.854 287.105 462.965C284.741 466.031 275.479 478.471 273.116 481.553C269.193 486.707 264.997 491.648 260.548 496.356L259.399 495.254Z" fill="#E0DFE6"></path> <path d="M270.834 497.681L269.668 496.595C272.303 493.768 275.018 490.511 277.972 486.694C280.926 482.877 283.897 478.709 286.739 474.781C289.582 470.853 292.488 466.797 295.475 462.916C297.071 460.776 298.668 458.86 300.265 457.087L301.495 458.093L301.048 458.684C299.706 460.281 298.317 462.006 296.848 463.906C293.877 467.755 290.971 471.811 288.145 475.739C285.318 479.668 282.364 483.724 279.346 487.684C276.328 491.644 273.501 494.806 270.834 497.681Z" fill="#E0DFE6"></path> <path d="M304.65 467.278L305.914 468.254L282.214 498.94L280.95 497.964L304.65 467.278Z" fill="#E0DFE6"></path> <path d="M252.569 277.323C244.792 286.266 236.776 296.071 228.089 307.313C221.35 316.048 214.131 325.725 205.38 337.781L204.087 336.839C212.854 324.783 220.056 315.089 226.827 306.338C235.53 295.08 243.562 285.244 251.371 276.269L252.569 277.323Z" fill="#E0DFE6"></path> <path d="M260.925 277.356L255.895 277.516V275.919L261.149 275.759" fill="#E0DFE6"></path> <path d="M243.999 301.629C241.62 304.695 232.373 317.135 229.994 320.217C226.071 325.371 221.875 330.313 217.426 335.021L216.277 333.919C220.688 329.253 224.846 324.354 228.733 319.243C231.096 316.177 240.358 303.721 242.737 300.655C246.647 295.495 250.837 290.553 255.289 285.852L256.439 286.954C252.033 291.62 247.88 296.519 243.999 301.629Z" fill="#E0DFE6"></path> <path d="M257.132 295.815C256.749 297.077 256.366 298.339 255.935 299.6L253.603 302.554C250.649 306.403 247.726 310.459 244.9 314.387C242.073 318.316 239.119 322.372 236.117 326.332C233.115 330.292 230.384 333.47 227.701 336.345L226.535 335.259C229.17 332.416 231.885 329.175 234.856 325.358C237.826 321.541 240.78 317.374 243.607 313.445C246.433 309.517 249.355 305.461 252.342 301.58C253.938 299.44 255.535 297.524 257.132 295.752V295.815Z" fill="#E0DFE6"></path> <path d="M314.707 471.583C320.248 471.376 324.289 471.232 332.129 471.232C344.984 471.232 356.466 471.535 367.181 472.174L367.085 473.771C356.402 473.148 344.968 472.845 332.129 472.845C324.273 472.845 320.28 472.988 314.771 473.196L311.689 473.308L313.94 471.711L314.707 471.583Z" fill="#E0DFE6"></path> <path d="M316.591 495.73H351.627V497.327H316.591V495.73Z" fill="#E0DFE6"></path> <path d="M338.147 503.251C340.584 503.274 343.016 503.022 345.397 502.5L345.748 504.097C343.254 504.659 340.703 504.927 338.147 504.895C335.48 504.895 332.781 504.672 330.162 504.448C326.572 504.068 322.958 503.961 319.351 504.129L319.223 502.532C322.915 502.363 326.614 502.47 330.29 502.851C332.877 503.027 335.544 503.251 338.147 503.251Z" fill="#E0DFE6"></path> <path d="M309.926 479.793C312.776 480.092 315.647 480.124 318.502 479.888C320.099 479.888 321.791 479.697 323.963 479.697C327.46 479.697 341.529 479.441 344.979 479.441C350.844 479.391 356.708 479.663 362.544 480.256L362.369 481.853C356.601 481.275 350.807 481.008 345.01 481.054C341.513 481.054 327.444 481.31 323.995 481.31C321.871 481.31 320.227 481.405 318.63 481.501C315.684 481.745 312.722 481.713 309.783 481.405L309.926 479.793Z" fill="#E0DFE6"></path> <path d="M311.277 486.995C314.758 487.314 318.575 487.458 322.95 487.458C327.326 487.458 331.909 487.298 336.284 487.155C340.66 487.011 345.195 486.851 349.602 486.851C352.046 486.851 354.265 486.851 356.373 486.995V488.592H355.703C353.802 488.592 351.806 488.48 349.634 488.48C345.259 488.48 340.739 488.624 336.38 488.784C332.02 488.943 327.438 489.087 322.982 489.087C318.527 489.087 314.694 488.927 311.165 488.608L311.277 486.995Z" fill="#E0DFE6"></path> <path d="M239.049 16.0717C236.494 14.5706 232.917 14.7942 228.988 17.0617L38.5423 127.008C30.7015 131.559 24.3301 142.562 24.3301 151.632V288.598C24.3301 293.021 25.8311 296.167 28.3063 297.684L28.5137 297.812C31.0847 299.297 34.6459 299.09 38.5423 296.822L114.044 253.227L133.781 292.75L153.503 230.471L228.956 186.812C236.813 182.293 243.185 171.258 243.185 162.188V25.2698C243.185 20.7346 241.588 17.5408 239.049 16.0717ZM169.568 134.961C169.785 131.098 170.91 127.34 172.852 123.994C174.795 120.647 177.499 117.806 180.746 115.702C186.894 112.157 191.924 115.031 191.924 122.09C191.71 125.953 190.586 129.712 188.643 133.058C186.701 136.405 183.995 139.246 180.746 141.348C174.518 144.909 169.536 142.099 169.536 134.961H169.568ZM122.667 162.108C122.885 158.245 124.011 154.488 125.953 151.142C127.895 147.796 130.599 144.955 133.845 142.849C139.977 139.32 145.024 142.194 145.024 149.237C144.792 153.083 143.66 156.822 141.718 160.15C139.776 163.479 137.08 166.305 133.845 168.4C127.601 172.009 122.635 169.134 122.635 162.028L122.667 162.108ZM75.75 189.255C75.9631 185.391 77.0869 181.632 79.0296 178.285C80.9723 174.938 83.6788 172.098 86.9283 169.996C93.0764 166.451 98.1066 169.326 98.1066 176.384C97.8974 180.249 96.7751 184.009 94.8321 187.357C92.8891 190.705 90.1806 193.544 86.9283 195.643C80.7004 199.076 75.7181 196.202 75.7181 189.127L75.75 189.255Z" fill="white"></path> <path d="M228.966 17.0612L38.5202 127.008C30.6794 131.559 24.3079 142.561 24.3079 151.632V288.597C24.3079 293.021 25.809 296.167 28.2842 297.684L6.5027 285.132C3.94767 283.647 2.35061 280.469 2.35061 275.918V138.904C2.35061 129.834 8.73804 118.831 16.5628 114.28L207.009 4.3339C210.937 2.05033 214.482 1.84275 217.069 3.34383L239.059 16.0711C236.472 14.5701 232.894 14.7936 228.966 17.0612Z" fill="#3A3A3A"></path> <path d="M191.776 122.121C191.561 125.984 190.437 129.743 188.494 133.09C186.552 136.436 183.846 139.277 180.597 141.379C174.465 144.908 169.419 142.034 169.419 134.992C169.636 131.129 170.761 127.371 172.704 124.025C174.646 120.678 177.35 117.838 180.597 115.733C186.809 112.156 191.776 115.031 191.776 122.121Z" fill="#3A3A3A"></path> <path d="M144.82 149.206C144.589 153.052 143.456 156.791 141.515 160.119C139.573 163.448 136.876 166.274 133.642 168.369C127.494 171.93 122.464 169.055 122.464 161.981C122.682 158.118 123.808 154.361 125.75 151.015C127.692 147.669 130.396 144.828 133.642 142.722C139.87 139.241 144.82 142.1 144.82 149.206Z" fill="#3A3A3A"></path> <path d="M97.9382 176.272C97.7289 180.137 96.6071 183.898 94.6641 187.245C92.7211 190.593 90.0121 193.432 86.7599 195.531C80.6278 199.076 75.5816 196.202 75.5816 189.143C75.7947 185.279 76.9185 181.52 78.8612 178.173C80.8039 174.827 83.5103 171.986 86.7599 169.885C92.9718 166.324 97.9382 169.246 97.9382 176.272Z" fill="#3A3A3A"></path> <path d="M32.2011 301.165C34.8681 301.078 37.4662 300.296 39.7384 298.897L113.02 256.564L131.624 293.803C131.836 294.229 132.171 294.582 132.585 294.817C132.999 295.052 133.474 295.158 133.948 295.122C134.423 295.086 134.876 294.91 135.25 294.615C135.624 294.32 135.901 293.921 136.047 293.468L155.481 232.051L230.168 188.935C238.808 183.953 245.595 172.231 245.595 162.235V25.269C245.595 19.9993 243.678 16.0071 240.229 13.995C236.78 11.9829 232.34 12.398 227.773 15.0009L37.3271 124.931C28.6879 129.946 21.9172 141.667 21.9172 151.631V288.597C21.9172 293.739 23.7376 297.7 27.0272 299.776H27.1551C27.1991 299.813 27.2471 299.845 27.2985 299.871C28.7902 300.727 30.4815 301.173 32.2011 301.165ZM114.026 250.831C113.606 250.832 113.194 250.942 112.828 251.15L37.3271 294.745C34.3249 296.486 31.6102 296.837 29.6939 295.735H29.5984C27.7779 294.618 26.7718 292.11 26.7718 288.693V151.679C26.7718 143.551 32.7281 133.219 39.8024 129.131L230.168 19.1369C233.155 17.4123 235.949 17.061 237.834 18.1469C239.718 19.2327 240.804 21.7878 240.804 25.269V162.235C240.804 170.395 234.831 180.727 227.773 184.783L152.288 228.33C151.765 228.627 151.377 229.113 151.202 229.688L133.269 286.346L116.102 252.156C115.958 251.862 115.754 251.601 115.504 251.39C115.254 251.178 114.963 251.02 114.649 250.926C114.446 250.869 114.237 250.837 114.026 250.831Z" fill="#3A3A3A"></path> <path d="M81.8722 199.46C84.0561 199.394 86.1832 198.749 88.036 197.591C91.6455 195.284 94.6479 192.143 96.7905 188.433C98.933 184.723 100.153 180.553 100.348 176.273C100.348 171.961 98.7514 168.672 95.893 167.011C93.0345 165.35 89.3774 165.638 85.6407 167.793C82.0345 170.109 79.0352 173.253 76.8932 176.965C74.7512 180.677 73.5289 184.847 73.3286 189.128C73.3286 193.44 74.9256 196.729 77.784 198.39C79.0294 199.099 80.4393 199.468 81.8722 199.46ZM91.8048 170.716C92.3967 170.694 92.9828 170.838 93.4976 171.131C94.8071 171.881 95.5573 173.75 95.5573 176.241C95.3466 179.677 94.3416 183.017 92.6208 185.999C90.9 188.981 88.5105 191.522 85.6407 193.424C83.4689 194.669 81.4888 195.02 80.1794 194.206C78.8699 193.392 78.1193 191.587 78.1193 189.096C78.33 185.66 79.3354 182.32 81.0562 179.338C82.777 176.356 85.1662 173.815 88.036 171.913C89.1705 171.206 90.4691 170.804 91.8048 170.748V170.716Z" fill="#3A3A3A"></path> <path d="M128.738 172.44C130.924 172.374 133.055 171.735 134.918 170.588C138.519 168.272 141.515 165.128 143.657 161.42C145.798 157.712 147.023 153.547 147.23 149.269C147.23 144.958 145.633 141.668 142.775 140.008C139.916 138.347 136.259 138.602 132.523 140.758C128.919 143.076 125.922 146.222 123.78 149.933C121.639 153.644 120.415 157.813 120.211 162.093C120.211 166.42 121.807 169.71 124.666 171.371C125.903 172.085 127.309 172.455 128.738 172.44ZM138.67 143.696C139.266 143.686 139.855 143.829 140.379 144.112C141.689 144.878 142.439 146.73 142.439 149.238C142.22 152.672 141.211 156.009 139.491 158.989C137.771 161.969 135.386 164.512 132.523 166.42C130.351 167.666 128.355 168.017 127.061 167.187C125.768 166.356 125.001 164.568 125.001 162.061C125.22 158.627 126.229 155.289 127.949 152.309C129.669 149.329 132.054 146.786 134.918 144.878C136.047 144.169 137.339 143.762 138.67 143.696Z" fill="#3A3A3A"></path> <path d="M175.672 145.292C177.848 145.235 179.97 144.601 181.82 143.456C185.429 141.142 188.432 137.998 190.577 134.286C192.722 130.575 193.946 126.403 194.148 122.121C194.148 117.794 192.552 114.504 189.693 112.843C186.835 111.182 183.178 111.47 179.441 113.626C175.834 115.942 172.834 119.087 170.69 122.798C168.545 126.509 167.319 130.679 167.113 134.96C167.113 139.272 168.71 142.561 171.568 144.222C172.817 144.937 174.234 145.306 175.672 145.292ZM185.605 116.548C186.197 116.527 186.783 116.671 187.298 116.963C188.607 117.714 189.358 119.582 189.358 122.089C189.138 125.523 188.13 128.86 186.41 131.841C184.69 134.821 182.305 137.364 179.441 139.272C177.285 140.517 175.289 140.869 173.98 140.038C172.67 139.208 171.904 137.419 171.904 134.928C172.124 131.493 173.136 128.155 174.859 125.174C176.582 122.194 178.969 119.652 181.836 117.746C182.968 117.027 184.266 116.614 185.605 116.548Z" fill="#3A3A3A"></path> <path d="M28.5366 300.192C29.0643 300.192 29.5777 300.018 29.9966 299.697C30.4155 299.376 30.7166 298.926 30.8532 298.416C30.9897 297.906 30.9541 297.366 30.7518 296.878C30.5495 296.391 30.1916 295.984 29.7342 295.72L7.74533 283.041C5.86099 281.955 4.79092 279.352 4.79092 275.903V138.905C4.79092 130.761 10.7472 120.429 17.8055 116.357L208.251 6.41059C211.285 4.65401 214 4.3026 215.901 5.42043L237.874 18.0998C238.424 18.4174 239.079 18.5034 239.693 18.3387C240.307 18.174 240.83 17.7721 241.148 17.2215C241.465 16.6709 241.551 16.0167 241.387 15.4028C241.222 14.7889 240.82 14.2655 240.269 13.9479L218.312 1.26854C214.847 -0.743554 210.423 -0.328354 205.856 2.27459L15.4101 112.205C6.7709 117.203 0.000229222 128.924 0.000229222 138.905V275.919C0.000229222 281.204 1.90069 285.213 5.34999 287.209L27.3389 299.888C27.7036 300.095 28.1173 300.2 28.5366 300.192Z" fill="#3A3A3A"></path> <path d="M280.929 426.266C291.844 424.955 305.136 432.82 315.709 435.764C326.756 438.96 338.145 440.828 349.634 441.33C373.519 442.147 396.034 437.246 419.195 432.079C420.176 431.84 421.208 431.925 422.137 432.32C423.065 432.715 423.841 433.4 424.348 434.272C424.855 435.144 425.066 436.156 424.95 437.158C424.833 438.159 424.396 439.096 423.702 439.829C404.686 459.434 376.447 468.229 349.539 470.11C335.782 471.035 321.964 470.231 308.407 467.716C294.658 465.209 276.08 460.384 268.473 447.884C262.274 437.683 270.66 427.538 280.929 426.266Z" fill="#D7DCE0"></path> <path d="M221.763 430.446V458.941C221.763 463.234 223.17 466.254 225.414 467.565C226.525 468.139 227.775 468.395 229.023 468.305C230.271 468.214 231.471 467.781 232.488 467.052L504.913 309.931C508.333 307.956 511.172 305.117 513.145 301.699C515.117 298.281 516.155 294.405 516.152 290.459V260.654L221.763 430.446Z" fill="#D7DCE0"></path> <path d="M221.763 222.737V430.447L516.152 260.655V52.9263C516.152 48.5191 514.65 45.4417 512.349 44.1879C511.247 43.6825 510.031 43.4744 508.823 43.5844C507.615 43.6944 506.458 44.1186 505.465 44.8148L232.545 202.24C226.555 205.659 221.763 214.778 221.763 222.737Z" fill="white"></path> <path d="M399.528 397.752L399.851 398.379C404.149 406.585 400.669 415.894 389.411 422.391C380.258 427.024 370.14 429.438 359.879 429.438C349.617 429.438 339.5 427.024 330.347 422.391C327.162 420.626 324.332 418.288 321.999 415.495L293.646 431.832C296.543 434.222 299.642 436.357 302.907 438.215C318.633 447.295 339.265 451.835 359.955 451.835C380.645 451.835 401.201 447.295 417.004 438.215C448.475 420.073 448.475 390.723 417.004 372.505C413.455 370.456 409.763 368.665 405.955 367.148L388.841 377.027L399.528 397.752Z" fill="#D7DCE0"></path> <path d="M388.649 377.027L321.979 415.495C324.312 418.289 327.143 420.626 330.327 422.391C339.481 427.024 349.598 429.439 359.859 429.439C370.12 429.439 380.238 427.024 389.391 422.391C400.649 415.894 404.129 406.586 399.831 398.38L388.649 377.027Z" fill="#3A3A3A"></path> <path d="M512.282 44.1853L487.827 29.7289C486.712 29.1636 485.463 28.9143 484.216 29.0081C482.969 29.1018 481.771 29.5351 480.753 30.2608L207.833 187.667C201.919 191.086 197.108 200.262 197.108 208.145V444.463C197.108 448.738 198.515 451.777 200.759 453.088L225.48 467.639C223.236 466.329 221.829 463.308 221.829 459.015V222.735C221.829 214.832 226.621 205.638 232.554 202.237L505.474 44.8122C506.458 44.1297 507.603 43.7132 508.796 43.6033C509.989 43.4935 511.19 43.694 512.282 44.1853Z" fill="#3A3A3A"></path> <path d="M228.168 471.232C230.184 471.183 232.151 470.607 233.873 469.561L506.299 312.439C510.147 310.209 513.342 307.009 515.564 303.158C517.787 299.308 518.959 294.943 518.964 290.498V52.9262C518.964 47.6072 517.062 43.4279 513.601 41.6803C512.074 40.931 510.376 40.5995 508.679 40.7196C506.982 40.8398 505.347 41.4072 503.941 42.3641L231.021 199.77C224.213 203.703 218.87 213.79 218.87 222.737V459.017C218.87 464.165 220.771 468.212 223.928 470.111C225.218 470.852 226.681 471.238 228.168 471.232ZM404.353 364.661L231.002 464.621C230.411 465.065 229.714 465.348 228.981 465.441C228.247 465.534 227.502 465.435 226.818 465.153C225.392 464.336 224.555 462.019 224.555 458.979V222.737C224.555 215.86 228.815 207.54 233.854 204.709L506.774 47.2842C507.357 46.854 508.037 46.575 508.754 46.4722C509.471 46.3694 510.202 46.4461 510.882 46.6953C512.365 47.4932 513.24 49.8108 513.24 52.9262V290.536C513.247 293.995 512.345 297.395 510.623 300.396C508.901 303.396 506.419 305.892 503.428 307.633L404.353 364.661Z" fill="#3A3A3A"></path> <path d="M221.719 433.239C222.22 433.246 222.714 433.115 223.145 432.859L517.572 263.124C517.897 262.937 518.181 262.688 518.41 262.391C518.638 262.094 518.805 261.755 518.903 261.393C519 261.032 519.024 260.655 518.976 260.284C518.927 259.912 518.805 259.554 518.618 259.23C518.431 258.906 518.181 258.621 517.884 258.393C517.587 258.165 517.248 257.998 516.886 257.901C516.524 257.804 516.146 257.779 515.774 257.828C515.403 257.877 515.044 257.998 514.72 258.185L220.33 427.977C219.785 428.29 219.36 428.775 219.119 429.354C218.878 429.934 218.835 430.577 218.998 431.184C219.161 431.79 219.519 432.326 220.018 432.708C220.517 433.09 221.128 433.297 221.756 433.296L221.719 433.239Z" fill="#3A3A3A"></path> <path d="M225.352 470.51C225.976 470.504 226.581 470.295 227.076 469.915C227.57 469.535 227.927 469.004 228.093 468.403C228.258 467.801 228.223 467.163 227.992 466.583C227.762 466.004 227.349 465.515 226.816 465.191L202.095 450.64C200.688 449.804 199.832 447.505 199.832 444.466V208.148C199.832 201.309 204.092 192.951 209.131 190.139L482.07 32.7328C482.667 32.3023 483.362 32.0266 484.093 31.9305C484.823 31.8343 485.565 31.9207 486.254 32.1819L510.975 46.7333C511.625 47.1033 512.394 47.2034 513.117 47.0122C513.84 46.821 514.459 46.3537 514.841 45.711C515.222 45.0684 515.336 44.3017 515.157 43.5762C514.978 42.8507 514.521 42.2244 513.884 41.8322L489.163 27.2807C487.62 26.4394 485.874 26.0419 484.118 26.1324C482.362 26.223 480.666 26.798 479.218 27.7937L206.279 185.2C199.471 189.132 194.127 199.219 194.127 208.148V444.466C194.127 449.69 196.029 453.622 199.185 455.56L223.906 470.111C224.344 470.371 224.843 470.509 225.352 470.51Z" fill="#3A3A3A"></path> <path d="M399.51 400.601C399.917 400.595 400.318 400.505 400.689 400.335C401.034 400.182 401.345 399.961 401.604 399.686C401.863 399.411 402.064 399.087 402.197 398.734C402.33 398.38 402.391 398.004 402.377 397.627C402.363 397.25 402.274 396.879 402.115 396.536C402.001 396.27 400.422 393.212 400.365 393.098C400.365 393.098 400.365 392.965 400.251 392.889V392.775C400.215 392.683 400.17 392.594 400.118 392.509C399.763 391.856 399.169 391.366 398.461 391.139C397.752 390.913 396.984 390.968 396.315 391.293C395.981 391.458 395.683 391.688 395.44 391.97C395.196 392.251 395.011 392.579 394.896 392.933C394.781 393.287 394.738 393.66 394.769 394.031C394.801 394.402 394.906 394.763 395.079 395.092C395.118 395.205 395.169 395.313 395.231 395.415C395.27 395.522 395.321 395.624 395.383 395.719L397.057 398.987C397.282 399.452 397.629 399.847 398.061 400.131C398.493 400.415 398.993 400.578 399.51 400.601Z" fill="#3A3A3A"></path> <path d="M359.88 432.289C370.659 432.496 381.311 429.939 390.819 424.861C402.99 417.833 407.516 406.929 402.362 397.069L391.181 375.717C391.007 375.385 390.77 375.091 390.482 374.851C390.195 374.61 389.863 374.429 389.505 374.317C389.148 374.205 388.772 374.165 388.398 374.198C388.025 374.231 387.662 374.337 387.33 374.511C386.998 374.684 386.703 374.921 386.463 375.208C386.222 375.496 386.041 375.827 385.928 376.184C385.816 376.542 385.776 376.917 385.809 377.29C385.842 377.663 385.949 378.026 386.122 378.358L397.304 399.71C401.107 406.834 397.532 414.394 387.967 419.922C379.248 424.307 369.622 426.591 359.861 426.591C350.099 426.591 340.474 424.307 331.755 419.922C328.861 418.333 326.283 416.227 324.149 413.71C323.914 413.418 323.624 413.176 323.295 412.996C322.966 412.816 322.605 412.702 322.233 412.662C321.86 412.621 321.484 412.654 321.124 412.759C320.764 412.864 320.428 413.039 320.136 413.273C319.844 413.508 319.601 413.798 319.421 414.126C319.241 414.454 319.127 414.815 319.087 415.187C319.046 415.559 319.079 415.936 319.184 416.295C319.289 416.655 319.464 416.99 319.699 417.282C322.259 420.35 325.359 422.925 328.846 424.88C338.384 429.965 349.071 432.516 359.88 432.289Z" fill="#3A3A3A"></path> <path d="M359.886 454.685C381.887 454.685 402.634 449.708 418.265 440.684C434.41 431.376 443.31 418.838 443.31 405.351C443.31 391.863 434.41 379.344 418.265 370.036C414.596 367.929 410.784 366.082 406.856 364.508C406.152 364.226 405.365 364.234 404.668 364.532C403.971 364.829 403.42 365.391 403.138 366.094C402.856 366.797 402.864 367.583 403.162 368.28C403.46 368.976 404.022 369.526 404.726 369.808C408.409 371.269 411.981 372.996 415.413 374.975C429.713 383.22 437.605 393.972 437.605 405.37C437.605 416.768 429.713 427.52 415.413 435.764C400.637 444.294 380.899 449.062 359.886 449.062C338.873 449.062 319.096 444.351 304.32 435.764C301.198 433.988 298.233 431.947 295.459 429.666C294.876 429.183 294.126 428.95 293.371 429.02C292.617 429.089 291.921 429.455 291.437 430.037C290.953 430.619 290.72 431.369 290.79 432.122C290.859 432.876 291.225 433.571 291.808 434.055C294.838 436.534 298.069 438.758 301.468 440.703C317.099 449.708 337.846 454.685 359.886 454.685Z" fill="#3A3A3A"></path> <path d="M431.191 194.325C420.577 188.203 420.575 168.354 431.188 149.992C441.8 131.629 459.008 121.706 469.622 127.828C480.237 133.949 480.238 153.798 469.625 172.161C459.013 190.523 441.805 200.447 431.191 194.325Z" fill="#0053FF"></path> <path d="M351.019 241.156C340.405 235.035 340.404 215.186 351.016 196.823C361.629 178.46 378.837 168.537 389.451 174.659C400.065 180.781 400.066 200.63 389.454 218.992C378.841 237.355 361.633 247.278 351.019 241.156Z" fill="#0053FF"></path> <path d="M271.568 287.893C260.954 281.771 260.953 261.922 271.565 243.559C282.178 225.197 299.386 215.274 310 221.395C320.614 227.517 320.615 247.366 310.003 265.729C299.39 284.091 282.183 294.015 271.568 287.893Z" fill="#0053FF"></path> <path d="M438.195 198.992C443.004 198.83 447.687 197.408 451.773 194.87C467.556 185.789 480.297 163.582 480.297 145.478C480.297 135.98 476.95 128.932 470.903 125.437C464.856 121.941 457.002 122.606 448.825 127.336C433.061 136.436 420.301 158.643 420.301 176.823C420.301 186.321 423.629 193.388 429.676 196.883C432.281 198.321 435.22 199.048 438.195 198.992ZM462.403 128.837C464.4 128.798 466.37 129.297 468.108 130.281C472.31 132.713 474.649 138.07 474.649 145.478C474.649 161.853 463.087 181.857 448.882 190.044C442.55 193.692 436.731 194.376 432.509 191.944C428.288 189.512 425.987 184.136 425.987 176.747C425.987 160.372 437.53 140.387 451.735 132.2C454.939 130.174 458.615 129.015 462.403 128.837Z" fill="#3A3A3A"></path> <path d="M358.024 245.823C362.833 245.662 367.515 244.24 371.601 241.701C387.385 232.621 400.126 210.414 400.126 192.31C400.126 182.812 396.779 175.764 390.731 172.268C384.684 168.773 376.831 169.438 368.654 174.168C352.889 183.268 340.129 205.475 340.129 223.654C340.129 233.153 343.457 240.22 349.504 243.715C352.11 245.152 355.048 245.879 358.024 245.823ZM382.231 175.669C384.228 175.63 386.199 176.129 387.936 177.113C392.139 179.544 394.478 184.901 394.478 192.31C394.478 208.685 382.916 228.688 368.711 236.876C362.378 240.523 356.559 241.207 352.338 238.776C348.116 236.344 345.815 230.968 345.815 223.578C345.815 207.203 357.358 187.219 371.563 179.031C374.767 177.006 378.444 175.847 382.231 175.669Z" fill="#3A3A3A"></path> <path d="M278.573 292.56C283.382 292.398 288.064 290.976 292.15 288.438C307.934 279.357 320.675 257.15 320.675 239.046C320.675 229.548 317.328 222.5 311.281 219.005C305.233 215.509 297.38 216.174 289.203 220.904C273.438 230.004 260.679 252.211 260.679 270.391C260.679 279.889 264.006 286.956 270.054 290.451C272.659 291.889 275.597 292.616 278.573 292.56ZM302.78 222.405C304.777 222.366 306.748 222.865 308.485 223.849C312.688 226.281 315.027 231.638 315.027 239.046C315.027 255.421 303.465 275.425 289.26 283.612C282.928 287.26 277.109 287.944 272.887 285.512C268.665 283.08 266.364 277.704 266.364 270.315C266.364 253.94 277.907 233.955 292.112 225.768C295.316 223.742 298.993 222.583 302.78 222.405Z" fill="#3A3A3A"></path> <path d="M449.286 171.729C449.463 171.748 449.642 171.748 449.819 171.729C450.209 171.659 450.58 171.508 450.908 171.286C451.235 171.063 451.512 170.774 451.72 170.437L465.218 149.229C465.608 148.582 465.729 147.808 465.555 147.073C465.381 146.338 464.925 145.7 464.286 145.297C463.64 144.904 462.865 144.784 462.13 144.962C461.396 145.14 460.762 145.602 460.369 146.247L448.583 164.795L443.992 160.381C443.695 160.129 443.349 159.941 442.977 159.828C442.604 159.714 442.211 159.678 441.824 159.722C441.437 159.766 441.063 159.889 440.725 160.083C440.387 160.277 440.092 160.538 439.859 160.85C439.626 161.162 439.46 161.518 439.37 161.897C439.28 162.276 439.269 162.67 439.337 163.053C439.406 163.436 439.552 163.802 439.767 164.126C439.982 164.451 440.262 164.728 440.588 164.941L447.67 171.216C448.141 171.552 448.707 171.732 449.286 171.729Z" fill="white"></path> <path d="M369.116 218.56C369.293 218.58 369.471 218.58 369.648 218.56C370.038 218.491 370.409 218.34 370.737 218.117C371.065 217.895 371.342 217.606 371.55 217.269L385.047 196.061C385.437 195.414 385.559 194.64 385.384 193.905C385.21 193.17 384.755 192.532 384.115 192.128C383.469 191.736 382.694 191.616 381.96 191.794C381.225 191.972 380.592 192.434 380.198 193.078L368.412 211.627L363.821 207.213C363.524 206.961 363.179 206.773 362.806 206.659C362.433 206.546 362.041 206.51 361.654 206.554C361.266 206.598 360.892 206.72 360.554 206.914C360.216 207.108 359.922 207.369 359.689 207.682C359.456 207.994 359.289 208.35 359.199 208.729C359.11 209.108 359.098 209.501 359.167 209.885C359.235 210.268 359.381 210.633 359.596 210.958C359.812 211.283 360.091 211.56 360.418 211.772L367.499 218.048C367.971 218.384 368.536 218.563 369.116 218.56Z" fill="white"></path> <path d="M289.664 265.297C289.841 265.316 290.019 265.316 290.196 265.297C290.586 265.227 290.957 265.076 291.285 264.854C291.613 264.631 291.89 264.342 292.098 264.005L305.595 242.797C305.986 242.15 306.107 241.376 305.933 240.641C305.758 239.906 305.303 239.268 304.663 238.865C304.018 238.472 303.243 238.352 302.508 238.53C301.774 238.708 301.14 239.17 300.746 239.814L288.96 258.363L284.37 253.949C284.073 253.697 283.727 253.509 283.354 253.395C282.981 253.282 282.589 253.246 282.202 253.29C281.815 253.334 281.44 253.457 281.102 253.651C280.764 253.845 280.47 254.106 280.237 254.418C280.004 254.73 279.837 255.086 279.747 255.465C279.658 255.844 279.647 256.238 279.715 256.621C279.783 257.004 279.93 257.369 280.145 257.694C280.36 258.019 280.639 258.296 280.966 258.509L288.047 264.784C288.519 265.12 289.085 265.3 289.664 265.297Z" fill="white"></path> <path d="M425.765 229.252C426.267 229.247 426.759 229.109 427.191 228.853L476.386 200.491C477.042 200.114 477.52 199.491 477.716 198.761C477.913 198.03 477.81 197.252 477.432 196.597C477.054 195.942 476.431 195.464 475.699 195.268C474.968 195.072 474.189 195.174 473.534 195.552L424.377 223.933C423.832 224.247 423.406 224.731 423.165 225.311C422.924 225.891 422.882 226.534 423.045 227.14C423.207 227.747 423.566 228.282 424.065 228.664C424.563 229.046 425.175 229.253 425.803 229.252H425.765Z" fill="#3A3A3A"></path> <path d="M425.783 244.717C426.283 244.719 426.776 244.588 427.209 244.337L476.404 215.975C477.031 215.595 477.488 214.988 477.679 214.281C477.87 213.573 477.781 212.819 477.431 212.175C477.06 211.538 476.454 211.071 475.743 210.876C475.031 210.681 474.272 210.772 473.627 211.131L424.394 239.474C423.85 239.787 423.424 240.271 423.183 240.851C422.942 241.431 422.9 242.074 423.062 242.68C423.225 243.287 423.583 243.823 424.082 244.205C424.581 244.587 425.192 244.793 425.821 244.793L425.783 244.717Z" fill="#3A3A3A"></path> <path d="M425.765 260.199C426.265 260.192 426.755 260.062 427.191 259.819L476.386 231.438C477.042 231.06 477.52 230.438 477.716 229.707C477.913 228.977 477.81 228.199 477.432 227.544C477.054 226.889 476.431 226.411 475.699 226.215C474.968 226.019 474.189 226.121 473.534 226.499L424.377 254.88C423.832 255.193 423.406 255.677 423.165 256.257C422.924 256.837 422.882 257.48 423.045 258.087C423.207 258.693 423.566 259.229 424.065 259.611C424.563 259.993 425.175 260.2 425.803 260.199H425.765Z" fill="#3A3A3A"></path> <path d="M347.465 274.409C347.96 274.413 348.447 274.282 348.872 274.029L398.067 245.667C398.723 245.289 399.201 244.666 399.397 243.936C399.593 243.206 399.491 242.427 399.113 241.772C398.734 241.118 398.111 240.639 397.38 240.444C396.649 240.248 395.87 240.35 395.214 240.728L346.02 269.09C345.473 269.404 345.047 269.889 344.806 270.471C344.565 271.053 344.524 271.698 344.689 272.306C344.855 272.913 345.216 273.449 345.719 273.83C346.221 274.21 346.835 274.414 347.465 274.409Z" fill="#3A3A3A"></path> <path d="M347.462 289.89C347.956 289.885 348.44 289.755 348.869 289.51L398.064 261.129C398.698 260.755 399.162 260.15 399.357 259.441C399.552 258.732 399.463 257.975 399.109 257.33C398.729 256.703 398.123 256.246 397.416 256.052C396.709 255.857 395.954 255.941 395.306 256.285L346.111 284.666C345.565 284.98 345.139 285.466 344.898 286.047C344.657 286.629 344.616 287.274 344.781 287.882C344.947 288.489 345.308 289.025 345.81 289.406C346.313 289.786 346.926 289.99 347.557 289.985L347.462 289.89Z" fill="#3A3A3A"></path> <path d="M347.465 305.372C347.962 305.37 348.448 305.232 348.872 304.973L398.067 276.612C398.392 276.424 398.676 276.175 398.904 275.878C399.132 275.581 399.3 275.242 399.397 274.881C399.494 274.519 399.519 274.142 399.47 273.771C399.422 273.399 399.3 273.042 399.113 272.717C398.925 272.393 398.676 272.109 398.379 271.881C398.081 271.653 397.742 271.485 397.38 271.388C397.018 271.291 396.641 271.266 396.269 271.315C395.897 271.364 395.539 271.485 395.214 271.672L346.02 300.053C345.488 300.377 345.075 300.864 344.845 301.441C344.614 302.019 344.577 302.656 344.74 303.256C344.903 303.856 345.257 304.387 345.749 304.769C346.24 305.15 346.842 305.362 347.465 305.372Z" fill="#3A3A3A"></path> <path d="M269.177 319.581C269.677 319.579 270.168 319.448 270.603 319.201L319.836 290.763C320.187 290.591 320.499 290.348 320.752 290.051C321.005 289.753 321.194 289.407 321.308 289.033C321.421 288.659 321.457 288.266 321.412 287.878C321.367 287.49 321.243 287.116 321.047 286.778C320.851 286.44 320.587 286.146 320.273 285.914C319.958 285.681 319.599 285.516 319.218 285.429C318.837 285.341 318.442 285.333 318.058 285.404C317.674 285.475 317.308 285.625 316.984 285.843L267.789 314.205C267.244 314.518 266.818 315.002 266.577 315.582C266.336 316.162 266.294 316.805 266.457 317.412C266.619 318.018 266.978 318.554 267.477 318.936C267.975 319.318 268.587 319.525 269.215 319.524L269.177 319.581Z" fill="#3A3A3A"></path> <path d="M269.162 335.064C269.665 335.065 270.158 334.927 270.588 334.665L319.821 306.303C320.146 306.116 320.43 305.867 320.659 305.57C320.887 305.273 321.054 304.934 321.151 304.573C321.248 304.211 321.273 303.834 321.224 303.463C321.176 303.091 321.054 302.734 320.867 302.409C320.68 302.085 320.43 301.801 320.133 301.573C319.836 301.345 319.496 301.177 319.134 301.08C318.772 300.983 318.395 300.958 318.023 301.007C317.652 301.056 317.293 301.177 316.969 301.364L267.774 329.745C267.229 330.059 266.803 330.543 266.562 331.123C266.321 331.703 266.279 332.346 266.442 332.952C266.604 333.559 266.963 334.095 267.462 334.476C267.96 334.858 268.571 335.065 269.2 335.064H269.162Z" fill="#3A3A3A"></path> <path d="M269.162 350.528C269.663 350.536 270.157 350.404 270.588 350.148L319.821 321.787C320.146 321.599 320.43 321.35 320.659 321.053C320.887 320.756 321.054 320.417 321.151 320.056C321.248 319.694 321.273 319.317 321.224 318.946C321.176 318.574 321.054 318.217 320.867 317.892C320.68 317.568 320.43 317.284 320.133 317.056C319.836 316.828 319.496 316.66 319.134 316.563C318.772 316.466 318.395 316.441 318.023 316.49C317.652 316.539 317.293 316.66 316.969 316.847L267.774 345.209C267.229 345.523 266.803 346.007 266.562 346.587C266.321 347.167 266.279 347.81 266.442 348.416C266.604 349.023 266.963 349.559 267.462 349.94C267.96 350.322 268.571 350.529 269.2 350.528H269.162Z" fill="#3A3A3A"></path> </svg> 