<?xml version="1.0" encoding="UTF-8"?> <svg xmlns="http://www.w3.org/2000/svg" width="423" height="286" viewBox="0 0 423 286" fill="none"> <path d="M390.588 285.736C370.806 285.736 359.073 275.613 358.175 261.032H377.09C377.09 265.892 379.784 272.362 391.486 272.765C399.596 272.765 404.085 267.905 404.085 264.252C403.187 258.587 395.974 258.183 388.792 256.945C382.302 256.178 375.941 254.554 369.877 252.116C366.794 250.39 364.242 247.854 362.495 244.783C360.749 241.711 359.877 238.219 359.971 234.687C359.971 221.716 370.806 211.593 389.69 211.593C407.707 211.593 419.409 220.911 420.276 235.09H402.29C402.29 231.468 401.392 225.369 390.588 225.369C383.375 225.369 378.886 226.576 377.988 231.839C377.988 239.145 393.281 238.743 404.983 241.56C415.787 244.408 423 251.281 423 261.032C423 278.863 408.605 285.736 390.588 285.736Z" fill="#030303"></path> <path d="M45.9097 166.102L108.01 130.036L141.321 187.185H57.6129" fill="#030303"></path> <path fill-rule="evenodd" clip-rule="evenodd" d="M185.585 211.455V283.585H167.412V211.455H185.585Z" fill="#030303"></path> <path d="M17.0884 248.588C17.0884 259.918 26.9947 269.236 37.7679 269.236C49.5006 269.236 58.4782 259.918 58.4782 248.588C58.4782 237.66 49.5006 227.939 37.7679 227.939C32.3474 228.124 27.1988 230.358 23.3608 234.19C19.5228 238.022 17.2812 243.168 17.0884 248.588ZM36.8701 285.861C17.0884 285.861 0 269.236 0 248.588C0 227.939 17.0884 211.717 36.8701 211.717C44.9809 211.717 52.1939 213.761 58.4782 218.188V212.522H76.4953V284.22H58.4782V279.761C53.0916 283.817 44.9809 285.861 36.8701 285.861Z" fill="#030303"></path> <path d="M277.231 187.167L190.828 36.4676L252.93 0L360.94 187.167" fill="#030303"></path> <path d="M99.8994 248.587C99.8994 259.917 108.908 269.235 120.61 269.235C131.383 269.235 141.32 259.917 141.32 248.587C141.12 243.164 138.872 238.019 135.029 234.187C131.186 230.356 126.033 228.123 120.61 227.939C115.135 227.963 109.891 230.144 106.014 234.01C102.137 237.875 99.94 243.113 99.8994 248.587ZM119.712 285.86C114.832 285.868 110 284.907 105.494 283.032C100.989 281.158 96.9012 278.406 93.4681 274.939C90.0349 271.471 87.3251 267.356 85.4956 262.832C83.6661 258.308 82.7535 253.466 82.8109 248.587C82.8109 227.939 99.0016 211.717 119.712 211.717C127.792 211.717 135.005 213.76 141.32 218.187V187.818H159.306V284.219H141.32V279.761C134.867 283.859 127.356 285.98 119.712 285.86Z" fill="#030303"></path> <path d="M118.823 101.69L181.823 66.0584L251.135 187.163H185.413V204.994H167.427V187.163" fill="#030303"></path> <path d="M411.328 205.556C408.977 205.487 406.739 204.529 405.067 202.874C403.395 201.219 402.413 198.991 402.32 196.641C402.413 194.29 403.395 192.062 405.067 190.407C406.739 188.752 408.977 187.794 411.328 187.725C412.513 187.691 413.691 187.899 414.794 188.334C415.896 188.768 416.898 189.422 417.74 190.255C418.582 191.089 419.246 192.084 419.693 193.182C420.139 194.279 420.358 195.456 420.337 196.641C420.358 197.825 420.139 199.002 419.693 200.099C419.246 201.197 418.582 202.193 417.74 203.026C416.898 203.86 415.896 204.514 414.794 204.949C413.691 205.384 412.513 205.59 411.328 205.556ZM411.328 188.964C406.808 188.964 404.115 192.585 404.115 196.641C404.115 200.696 406.808 204.349 411.328 204.349C415.817 204.349 418.51 200.696 418.51 196.641C418.51 192.585 415.817 188.964 411.328 188.964Z" fill="#030303"></path> <path d="M413.186 201.532L411.39 197.476H409.595V201.532H408.233V191.811H412.288C413.186 191.811 414.981 193.049 414.981 194.659C415.012 195.257 414.856 195.85 414.534 196.355C414.212 196.86 413.741 197.252 413.186 197.476L414.981 201.532H413.186ZM411.39 193.049H409.595V196.269H411.39C413.186 196.269 413.186 195.866 413.186 194.659C413.186 193.823 413.186 193.049 411.39 193.049ZM292.453 248.587C292.453 259.917 301.461 269.235 313.163 269.235C323.967 269.235 333.842 259.917 333.842 248.587C333.657 243.164 331.418 238.014 327.578 234.18C323.739 230.347 318.586 228.116 313.163 227.938C307.688 227.963 302.444 230.144 298.567 234.009C294.69 237.875 292.493 243.112 292.453 248.587ZM312.234 285.859C307.357 285.864 302.528 284.9 298.026 283.023C293.525 281.147 289.44 278.394 286.01 274.927C282.581 271.46 279.873 267.347 278.046 262.825C276.218 258.303 275.307 253.463 275.364 248.587C275.364 227.938 291.555 211.716 312.234 211.716C320.345 211.716 327.558 213.76 333.842 218.187V212.521H350.962V284.218H333.842V279.76C327.393 283.867 319.879 285.988 312.234 285.859ZM209.704 248.587C209.704 259.917 219.61 269.235 230.414 269.235C242.116 269.235 251.125 259.917 251.125 248.587C251.084 243.112 248.887 237.875 245.01 234.009C241.133 230.144 235.889 227.963 230.414 227.938C224.988 228.115 219.832 230.345 215.988 234.178C212.143 238.011 209.897 243.161 209.704 248.587ZM251.125 187.817H269.111V284.218H251.125V279.76C245.058 283.971 237.794 286.111 230.414 285.859C209.704 285.859 192.615 269.235 192.615 248.587C192.615 227.938 209.704 211.716 230.414 211.716C238.494 211.716 245.707 213.76 251.125 218.187V187.817Z" fill="#030303"></path> </svg> 