<?xml version="1.0" encoding="UTF-8"?> <svg xmlns="http://www.w3.org/2000/svg" width="100" height="120" viewBox="0 0 100 120" fill="none"> <path d="M72 44C87.4644 44 100 56.5356 100 72C100 87.4644 87.4644 100 72 100C56.5356 100 44 87.4644 44 72C44 56.5356 56.5356 44 72 44ZM63.1044 81.3604C61.9984 80.0248 60.6236 79.5488 58.9632 79.9352L58.5432 80.05L56.8912 82.8948C56.5796 83.402 56.4764 84.0101 56.6032 84.5917C56.73 85.1733 57.0769 85.6833 57.5713 86.0148C58.0657 86.3464 58.6692 86.4737 59.2554 86.3702C59.8416 86.2667 60.365 85.9404 60.716 85.4596L60.8896 85.1992L63.1016 81.3604H63.1044ZM75.388 62.648C74.0216 63.7792 72.644 67.1196 74.576 70.4516L83.088 85.1964C83.3828 85.6973 83.8557 86.0685 84.4123 86.2358C84.9689 86.4032 85.5682 86.3542 86.0903 86.0988C86.6124 85.8434 87.0188 85.4004 87.2284 84.8583C87.438 84.3162 87.4353 83.715 87.2208 83.1748L87.0836 82.8948L84.838 78.9972H88.17C88.4727 78.9979 88.7725 78.9388 89.0523 78.8232C89.3321 78.7077 89.5862 78.5379 89.8001 78.3237C90.014 78.1096 90.1835 77.8552 90.2987 77.5753C90.414 77.2954 90.4727 76.9955 90.4716 76.6928C90.4731 76.1313 90.2687 75.5888 89.8972 75.1678C89.5258 74.7468 89.0129 74.4765 88.4556 74.408L88.1672 74.3912H82.1752L76.032 63.7596L75.388 62.6508V62.648ZM76.1664 54.1248C75.6829 53.8471 75.1152 53.7536 74.5681 53.8617C74.0211 53.9697 73.5316 54.2721 73.19 54.7128L73.0164 54.9704L71.9888 56.7428L70.9836 54.9704C70.6888 54.4695 70.2159 54.0983 69.6593 53.931C69.1027 53.7636 68.5034 53.8126 67.9813 54.068C67.4592 54.3234 67.0528 54.7664 66.8432 55.3085C66.6336 55.8506 66.6363 56.4518 66.8508 56.992L66.988 57.272L69.3344 61.3516L61.8164 74.38H55.9448C55.6423 74.3793 55.3427 74.4383 55.0631 74.5537C54.7836 74.6691 54.5295 74.8386 54.3157 75.0525C54.1018 75.2663 53.9323 75.5204 53.8169 75.7999C53.7015 76.0795 53.6425 76.3791 53.6432 76.6816C53.6432 77.8604 54.5168 78.8264 55.6564 78.9692L55.9448 78.986H76.8888C77.8408 77.194 76.7208 74.6488 74.6208 74.3996L74.282 74.38H67.1336L77.012 57.272C77.3172 56.7425 77.3996 56.1135 77.241 55.5233C77.0824 54.9331 76.6959 54.43 76.1664 54.1248Z" fill="#D7DCE0"></path> <path d="M25.759 0L55.1713 28L25.7619 56C25.2389 55.7908 24.7927 55.439 24.4792 54.9891C24.1657 54.5391 23.999 54.0109 24 53.471V2.52896C24.0002 1.98969 24.1671 1.46239 24.4799 1.01272C24.7927 0.563043 25.2375 0.210855 25.759 0ZM57.2134 29.9434L63.8624 36.2714L32.2723 53.68L57.2134 29.9434ZM66.4533 21.1526L74.5609 25.6222C74.9986 25.8639 75.362 26.2107 75.6145 26.628C75.8671 27.0453 76 27.5184 76 28C76 28.4816 75.8671 28.9547 75.6145 29.372C75.362 29.7893 74.9986 30.1361 74.5609 30.3778L66.4504 34.8474L59.2555 28L66.4533 21.1526ZM32.2723 2.32005L63.8653 19.7259L57.2134 26.0565L32.2723 2.32005Z" fill="#D7DCE0"></path> <path d="M8 48V112H48V48H8ZM4 40H52C53.0609 40 54.0783 40.4214 54.8284 41.1716C55.5786 41.9217 56 42.9391 56 44V116C56 117.061 55.5786 118.078 54.8284 118.828C54.0783 119.579 53.0609 120 52 120H4C2.93913 120 1.92172 119.579 1.17157 118.828C0.421428 118.078 0 117.061 0 116V44C0 42.9391 0.421428 41.9217 1.17157 41.1716C1.92172 40.4214 2.93913 40 4 40ZM28 100C29.0609 100 30.0783 100.421 30.8284 101.172C31.5786 101.922 32 102.939 32 104C32 105.061 31.5786 106.078 30.8284 106.828C30.0783 107.579 29.0609 108 28 108C26.9391 108 25.9217 107.579 25.1716 106.828C24.4214 106.078 24 105.061 24 104C24 102.939 24.4214 101.922 25.1716 101.172C25.9217 100.421 26.9391 100 28 100Z" fill="#030303"></path> </svg> 