<?xml version="1.0" encoding="UTF-8"?> <svg xmlns="http://www.w3.org/2000/svg" width="132" height="128" viewBox="0 0 132 128" fill="none"> <path d="M56 0H128C129.061 0 130.078 0.421427 130.828 1.17157C131.579 1.92172 132 2.93913 132 4V68C132 69.0609 131.579 70.0783 130.828 70.8284C130.078 71.5786 129.061 72 128 72H56C54.9391 72 53.9217 71.5786 53.1716 70.8284C52.4214 70.0783 52 69.0609 52 68V4C52 2.93913 52.4214 1.92172 53.1716 1.17157C53.9217 0.421427 54.9391 0 56 0ZM109.856 50.144L124 36L109.856 21.856L104.2 27.52L112.688 36L104.2 44.484L109.856 50.144ZM71.312 36L79.8 27.516L74.144 21.856L60 36L74.144 50.144L79.8 44.48L71.312 36ZM88.976 56L103.536 16H95.024L80.464 56H88.976Z" fill="#D7DCE0"></path> <path d="M72 80V64H8V80H72ZM72 88H8V120H72V88ZM4 56H76C77.0609 56 78.0783 56.4214 78.8284 57.1716C79.5786 57.9217 80 58.9391 80 60V124C80 125.061 79.5786 126.078 78.8284 126.828C78.0783 127.579 77.0609 128 76 128H4C2.93913 128 1.92172 127.579 1.17157 126.828C0.421427 126.078 0 125.061 0 124V60C0 58.9391 0.421427 57.9217 1.17157 57.1716C1.92172 56.4214 2.93913 56 4 56ZM12 92H24V112H12V92ZM12 68H20V76H12V68ZM28 68H36V76H28V68Z" fill="#030303"></path> </svg> 