<?xml version="1.0" encoding="UTF-8"?> <svg xmlns="http://www.w3.org/2000/svg" width="121" height="124" viewBox="0 0 121 124" fill="none"> <path d="M73.824 0.850625C79.2197 -0.28084 84.7912 -0.283564 90.188 0.842625C90.5475 3.21577 91.4373 5.47738 92.7911 7.45934C94.145 9.4413 95.9281 11.0926 98.008 12.2906C100.086 13.4927 102.409 14.2109 104.803 14.3916C107.197 14.5724 109.601 14.2111 111.836 13.3346C115.509 17.4469 118.291 22.2748 120.008 27.5146C118.133 29.0129 116.62 30.9144 115.582 33.0778C114.543 35.2412 114.005 37.6108 114.008 40.0106C114.008 45.0666 116.352 49.5746 120.016 52.5066C118.289 57.7421 115.504 62.5662 111.832 66.6786C109.597 65.8028 107.194 65.4418 104.801 65.6226C102.408 65.8033 100.086 66.5211 98.008 67.7226C95.9298 68.9202 94.1481 70.5705 92.795 72.551C91.4419 74.5315 90.5522 76.7913 90.192 79.1626C84.7968 80.2967 79.2254 80.3022 73.828 79.1786C73.4702 76.8033 72.5812 74.5394 71.2273 72.5552C69.8734 70.5711 68.0893 68.9178 66.008 67.7186C63.9295 66.5172 61.6068 65.7997 59.2128 65.6197C56.8187 65.4396 54.4149 65.8016 52.18 66.6786C48.5064 62.5652 45.724 57.7359 44.008 52.4946C45.8816 50.9972 47.3938 49.097 48.4325 46.9351C49.4712 44.7732 50.0097 42.4051 50.008 40.0066C50.01 37.6061 49.4708 35.2361 48.4307 33.0727C47.3905 30.9093 45.8761 29.0081 44 27.5106C45.7267 22.2751 48.5125 17.451 52.184 13.3386C54.4186 14.2145 56.8219 14.5754 59.2152 14.3947C61.6085 14.2139 63.9303 13.4961 66.008 12.2946C68.0862 11.097 69.8679 9.44672 71.221 7.46625C72.5741 5.48578 73.4638 3.22599 73.824 0.854625V0.850625ZM82.008 52.0106C85.1906 52.0106 88.2428 50.7463 90.4933 48.4959C92.7437 46.2455 94.008 43.1932 94.008 40.0106C94.008 36.828 92.7437 33.7758 90.4933 31.5253C88.2428 29.2749 85.1906 28.0106 82.008 28.0106C78.8254 28.0106 75.7732 29.2749 73.5227 31.5253C71.2723 33.7758 70.008 36.828 70.008 40.0106C70.008 43.1932 71.2723 46.2455 73.5227 48.4959C75.7732 50.7463 78.8254 52.0106 82.008 52.0106Z" fill="#D7DCE0"></path> <path d="M60 96V88H64V48H12V88.14C12.6625 88.046 13.3309 87.9992 14 88H20V96H14C12.4087 96 10.8826 96.6321 9.75736 97.7574C8.63214 98.8826 8 100.409 8 102C8 103.591 8.63214 105.117 9.75736 106.243C10.8826 107.368 12.4087 108 14 108H28V116H14C10.287 116 6.72602 114.525 4.10051 111.899C1.475 109.274 0 105.713 0 102V52C0 48.8174 1.26428 45.7652 3.51472 43.5147C5.76516 41.2643 8.8174 40 12 40H68C69.0609 40 70.0783 40.4214 70.8284 41.1716C71.5786 41.9217 72 42.9391 72 44V112C72 113.061 71.5786 114.078 70.8284 114.828C70.0783 115.579 69.0609 116 68 116H52V108H64V96H60ZM16 52H24V60H16V52ZM16 64H24V72H16V64ZM44 100V124H36V100H24L40 80L56 100H44Z" fill="#030303"></path> </svg> 