<?xml version="1.0" encoding="UTF-8"?> <svg xmlns="http://www.w3.org/2000/svg" width="295" height="325" viewBox="0 0 295 325" fill="none"> <path d="M285.964 288.417C291.235 288.417 294.749 291.429 295 295.195C295 297.956 292.741 300.215 289.98 300.215C283.956 300.215 285.462 295.697 282.952 295.697C277.329 295.697 272.913 304.339 268.706 313.592L268.059 315.017L267.095 317.164L266.134 319.292C263.874 323.811 262.87 324.564 261.113 324.564C256.846 324.564 256.093 313.268 254.336 308.248C250.822 315.778 243.793 324.564 232.748 324.564C226.222 324.313 219.947 321.049 219.947 311.009C219.947 299.713 227.477 291.68 235.008 291.68C240.781 291.68 244.546 297.705 244.546 301.721C244.295 312.766 229.485 313.017 229.485 315.276C229.485 317.535 233.25 318.288 235.51 318.288C245.048 318.288 251.324 305.988 253.583 297.454C254.085 295.948 255.34 292.936 258.101 292.936C261.113 292.936 259.607 311.511 263.874 311.511C266.636 311.511 270.15 288.417 285.964 288.417ZM137.362 263.065C142.383 262.814 146.399 267.583 146.901 275.113C147.905 295.195 141.127 303.227 137.613 310.507C138.366 313.268 143.136 318.037 147.654 318.037C149.411 318.037 151.419 317.284 151.921 316.531C151.419 315.276 151.168 314.021 151.168 311.762C151.168 300.215 158.95 290.676 165.476 290.676C170.747 290.676 173.76 297.454 173.76 301.972C173.76 307.243 169.241 311.511 162.464 315.527C163.719 316.782 165.978 317.535 167.735 317.535C177.274 317.786 182.545 306.239 186.31 295.948C187.063 293.94 188.319 291.178 190.578 291.178C194.594 291.178 196.1 317.284 202.877 317.284C205.639 317.284 208.149 311.511 208.149 306.992C208.4 303.478 207.145 303.227 207.145 298.458C207.145 293.187 209.906 288.668 213.922 288.668C216.432 288.668 217.185 290.927 217.185 293.689C216.934 304.231 209.153 323.811 197.606 323.811C189.072 323.811 189.825 309.252 186.812 309.252C183.549 309.252 178.78 323.811 161.962 323.811C159.201 323.811 156.188 322.555 153.929 319.794C149.913 322.555 146.399 323.56 142.634 323.56C136.358 323.56 133.597 317.284 131.087 317.284C128.075 317.284 124.56 323.56 114.52 323.56C106.487 323.56 104.981 313.017 102.22 313.017C99.7098 313.017 95.6935 323.56 91.4263 323.56C87.9974 323.56 85.8838 319.199 83.8882 314.734L83.2933 313.393C81.4082 309.171 79.5256 305.235 76.6163 305.235C74.3346 305.235 69.5878 309.485 64.7834 313.863L63.4731 315.058C58.6812 319.425 54.0575 323.55 52.0167 323.309C50.2596 323.058 49.5065 322.053 49.7576 320.296C50.0086 318.037 52.2677 311.762 53.0208 309.001C54.5269 303.98 55.782 298.458 56.535 296.701C57.037 294.944 59.0452 293.689 60.5513 293.94C61.3043 293.94 61.5553 295.195 61.8063 296.45C62.5594 300.466 63.8145 304.733 65.0695 304.733C67.3287 304.733 75.3612 290.174 79.8795 290.174C85.6529 290.174 86.1549 313.268 93.6854 313.268C96.1956 313.268 97.9527 310.256 99.7098 306.741C99.9608 300.717 101.718 291.932 106.738 291.932C110.252 291.932 111.759 299.713 109.248 306.49C108.997 314.523 114.52 316.531 118.034 316.531C120.544 316.531 124.811 315.778 128.326 310.507C126.318 306.239 125.062 297.454 124.811 294.442C124.058 278.377 130.334 263.316 137.362 263.065ZM40.721 268.085C43.7332 267.081 44.9883 268.587 46.2433 272.101C47.7494 277.373 47.7494 284.401 47.2474 294.191C46.4944 307.746 39.4659 324.062 22.1458 323.56C7.0848 323.309 0.558383 313.77 0.0563506 299.462C-0.194666 292.685 0.307367 285.907 3.31956 276.369C5.07668 271.348 6.33176 269.591 11.1011 268.587C14.8663 267.834 14.3643 271.599 13.6112 276.117C11.6031 285.907 10.85 290.676 11.3521 301.972C12.1051 313.77 17.6275 318.539 23.6519 318.539C32.9395 318.79 36.9557 311.511 38.7128 300.717C39.9679 292.183 38.9639 288.166 38.2108 285.405C37.7088 283.899 36.2027 280.636 35.9517 278.126C34.9476 272.603 37.9598 268.838 40.721 268.085ZM162.966 298.458C161.46 298.207 157.946 299.964 157.946 305.235C157.946 309.503 159.452 311.511 160.205 312.264C165.225 310.758 166.48 306.741 166.229 303.478C166.229 300.717 164.723 298.458 162.966 298.458ZM232.748 298.207C226.222 298.207 226.724 308.499 227.728 310.758C232.497 310.005 235.761 307.243 236.514 304.733C237.267 302.223 236.263 298.207 232.748 298.207ZM137.919 272.837L137.613 272.854C134.35 273.105 132.844 283.397 133.346 294.191C133.848 301.219 134.852 302.223 135.856 302.223C137.613 302.223 142.132 289.421 141.63 279.381C141.378 274.862 140.123 272.603 137.613 272.854L137.919 272.837ZM108.746 265.073C111.759 265.073 113.767 266.83 114.018 269.591C114.52 273.356 111.759 277.373 107.993 277.373C104.73 277.373 103.224 275.113 102.722 272.352C102.471 268.336 105.483 265.073 108.746 265.073Z" fill="#030303"></path> <path fill-rule="evenodd" clip-rule="evenodd" d="M172.504 210.351C171.5 208.594 172.253 205.582 169.492 205.582C167.735 205.582 167.484 207.088 167.233 208.343C163.468 207.088 160.205 206.586 157.192 206.586C155.184 206.586 153.427 206.837 151.67 207.339C150.666 205.582 146.148 202.068 142.382 200.813C140.876 209.096 133.597 215.372 122.803 216.376C122.301 221.647 118.034 223.153 114.771 223.153C112.511 223.153 108.746 222.4 108.495 221.396C107.24 213.615 101.467 209.347 98.7056 208.343C98.7056 209.096 98.9566 210.1 98.9566 210.853C98.9566 217.38 94.4383 221.396 86.1548 221.396C84.8997 221.396 83.1426 221.396 81.8875 221.145C91.4261 231.688 98.2035 227.923 102.471 229.931C108.244 232.441 113.013 240.724 131.589 240.724C138.366 240.724 145.144 237.963 149.662 235.202C150.415 237.963 153.176 240.473 157.945 240.473C165.727 240.473 170.245 237.963 170.245 235.955C170.245 235.453 170.245 234.7 168.739 234.7C167.484 234.7 167.484 234.951 163.217 234.951C158.196 234.951 150.164 232.943 146.399 224.157C145.646 222.651 144.642 222.651 144.391 222.651C141.88 222.651 137.864 231.688 122.05 231.688C115.273 231.688 112.26 229.178 112.26 228.676C112.26 228.676 112.26 228.425 112.511 228.425C113.265 228.425 115.524 228.676 118.536 228.676C128.576 228.676 136.609 223.906 141.629 218.635C143.386 216.627 144.139 216.376 145.646 216.376C146.901 216.376 148.156 217.38 148.909 219.137C151.168 224.91 156.439 229.68 161.962 229.68C169.492 229.68 169.743 216.627 171.5 215.874C171.751 215.874 172.253 216.125 172.504 216.125C173.508 216.125 174.763 215.372 174.763 213.866C175.014 211.858 172.755 211.355 172.504 210.351ZM159.954 220.141C157.945 220.141 156.439 218.635 156.439 216.627C156.439 214.619 157.945 212.862 159.954 212.862C161.962 212.862 163.468 214.619 163.468 216.376C163.719 218.635 161.962 220.141 159.954 220.141Z" fill="#030303"></path> <path fill-rule="evenodd" clip-rule="evenodd" d="M133.848 185.25C135.605 185.25 136.358 186.756 136.609 188.262C137.111 187.76 137.864 187.509 138.617 187.509C140.374 187.509 141.378 188.764 141.378 190.27C141.378 191.274 140.876 192.027 140.123 192.529C141.127 193.031 141.88 193.784 141.88 194.789C141.88 196.044 140.876 197.048 139.37 197.048C138.115 197.048 137.111 195.542 135.856 195.542C135.103 195.542 134.099 195.793 133.848 196.295C134.35 197.55 134.601 198.554 134.601 199.809C134.601 206.335 125.815 211.607 116.528 211.607C107.491 211.607 103.977 206.335 103.977 204.076C103.977 203.574 104.228 203.323 104.981 203.323C106.487 203.323 106.738 203.825 111.005 203.825C120.795 203.825 117.281 191.274 126.568 191.274C127.823 191.274 130.584 192.027 131.589 193.784C132.342 193.031 132.593 192.027 132.593 191.274C132.593 189.768 131.589 188.764 131.589 187.509C131.589 186.254 132.593 185.501 133.848 185.25Z" fill="#030303"></path> <path fill-rule="evenodd" clip-rule="evenodd" d="M75.6122 178.724C86.6569 178.724 95.1915 188.011 95.1915 201.315C95.1915 207.339 91.9283 216.125 78.6244 216.125C62.8104 216.125 53.2718 202.821 53.2718 194.287C53.2718 187.007 58.0411 182.489 61.0533 181.736C57.7901 194.789 65.0695 207.339 79.6285 207.339C86.908 207.339 90.4222 203.825 90.4222 197.55C90.4222 190.521 85.6529 183.744 77.3694 183.744C73.3531 183.744 70.3409 186.003 70.3409 189.266C70.3409 194.538 74.8592 197.801 79.6285 197.801C82.6407 197.801 84.6488 196.546 84.6488 194.538C84.6488 194.287 84.6488 193.784 84.3978 193.533C84.1468 193.784 83.3937 193.784 82.3897 193.784C78.6244 193.784 75.6122 191.776 75.6122 189.517C75.6122 187.76 76.8673 186.756 78.3734 186.756C83.8958 186.756 87.661 192.278 87.661 196.295C87.661 200.311 84.6488 203.825 79.6285 203.825C68.8348 203.825 64.0655 195.04 64.0655 189.266C64.3165 182.991 69.5878 178.724 75.6122 178.724Z" fill="#030303"></path> <path fill-rule="evenodd" clip-rule="evenodd" d="M207.898 208.344C205.639 210.101 200.117 214.118 190.829 214.118C185.809 214.118 183.801 212.612 183.047 212.612C182.043 212.612 181.039 213.616 180.035 214.62C177.776 217.13 175.015 221.648 175.015 226.919C175.015 230.434 177.776 233.948 183.047 233.948C200.117 233.948 212.667 223.405 212.667 215.122C212.918 210.352 209.906 208.344 207.898 208.344ZM199.113 224.66L189.323 227.421C190.076 225.413 190.578 223.154 190.578 220.895C190.578 220.142 190.578 219.64 190.327 218.887H191.582C198.861 218.887 201.874 216.126 202.376 216.126C202.878 216.126 203.38 216.377 203.38 217.883C203.38 219.891 202.376 222.652 199.113 224.66Z" fill="#030303"></path> <path fill-rule="evenodd" clip-rule="evenodd" d="M193.339 210.351C197.355 210.351 200.87 209.347 203.129 207.339C203.882 206.837 204.133 205.833 204.133 204.829V202.821C204.133 200.311 200.116 198.805 194.594 198.805C188.068 198.805 184.553 201.817 184.553 203.072V207.088C184.553 208.594 188.319 210.351 193.339 210.351Z" fill="#030303"></path> <path fill-rule="evenodd" clip-rule="evenodd" d="M223.963 167.679C210.659 167.679 214.173 178.975 198.61 182.489C195.849 182.991 194.845 183.995 194.845 185.25C194.845 187.509 196.1 190.521 197.857 190.521C204.635 190.521 214.926 176.715 216.935 176.715C217.688 176.715 218.441 176.715 218.441 178.724C218.441 183.744 203.882 190.27 203.882 193.785C203.882 195.793 208.902 200.311 214.173 200.311C221.453 200.311 227.979 185.752 229.485 185.752C230.74 185.752 230.991 186.505 230.991 187.509C230.991 191.525 225.971 199.307 217.437 202.57C215.679 203.323 215.428 204.076 215.428 204.578C215.428 206.586 217.688 209.348 219.696 209.348C222.206 209.348 239.024 194.789 239.024 183.242C239.526 172.448 231.242 167.679 223.963 167.679ZM229.987 180.23C228.983 180.23 227.979 179.979 227.477 179.477C226.222 178.975 224.214 177.217 224.214 174.707C224.214 172.197 225.469 171.444 226.724 171.444C230.489 171.444 234.757 174.707 234.757 177.468C234.757 179.728 232.749 180.23 229.987 180.23Z" fill="#030303"></path> <path fill-rule="evenodd" clip-rule="evenodd" d="M104.479 186.254H102.22C101.467 186.254 100.212 186.003 99.4586 185.501C97.9525 184.246 97.4505 177.468 94.9403 173.452C91.9281 168.934 88.6649 167.679 84.3977 167.679C81.3855 167.679 77.8712 169.436 77.8712 171.946C77.8712 173.452 78.6243 174.456 84.3977 175.962C91.6771 177.72 95.1913 181.736 95.9444 186.254C96.6974 190.772 97.4505 194.287 99.2076 196.044C101.467 198.554 105.734 200.813 109.75 200.813C113.013 200.813 115.524 199.809 115.524 196.797C115.273 193.534 110.754 186.254 104.479 186.254ZM109.248 196.044C106.487 196.044 102.471 193.283 102.471 191.525C102.471 190.27 103.726 189.517 104.73 189.517C106.989 189.517 111.005 192.278 111.005 194.538C111.005 195.291 110.503 196.044 109.248 196.044Z" fill="#030303"></path> <path fill-rule="evenodd" clip-rule="evenodd" d="M159.2 176.966C157.443 176.966 157.443 179.727 157.443 180.731C157.443 181.735 157.443 181.986 156.69 181.986C155.937 181.986 155.435 181.735 154.682 181.735C154.18 181.735 153.678 182.237 153.678 182.99C153.678 186.756 158.447 189.768 163.216 189.768C169.492 189.768 172.504 187.007 174.261 187.007C175.014 187.007 175.265 187.76 175.265 188.262C175.265 189.266 174.261 190.521 174.261 191.023C174.261 192.529 177.273 191.274 177.273 193.031C177.273 195.29 173.508 197.047 167.735 197.047C156.439 197.047 149.159 189.266 149.159 181.986C149.159 168.432 163.718 172.699 163.718 167.427C163.718 165.67 161.961 164.666 160.706 164.666C162.212 162.658 164.22 162.407 166.229 162.407C167.735 162.407 169.241 162.658 170.496 162.658C172.253 162.658 174.01 161.905 174.01 159.897C174.01 158.642 173.006 157.136 168.739 156.634C169.241 153.873 175.014 155.379 175.014 152.869C175.014 151.111 171.751 149.856 167.735 149.856C152.172 149.856 141.127 162.658 141.127 176.464C141.127 189.015 150.164 202.821 166.982 202.821C183.298 202.821 191.079 189.517 191.079 179.476C188.067 182.237 180.034 182.99 176.018 182.99C164.22 183.241 160.957 176.966 159.2 176.966Z" fill="#030303"></path> <path fill-rule="evenodd" clip-rule="evenodd" d="M172.002 178.724C174.512 178.724 176.269 176.716 176.269 174.456C176.269 170.942 172.755 167.679 167.484 167.679C168.488 168.683 168.739 169.436 168.739 170.44C168.739 171.695 167.986 173.201 167.986 174.707C167.986 176.967 169.492 178.724 172.002 178.724ZM197.354 161.655C198.108 162.659 198.359 163.663 198.359 164.667C198.359 167.177 196.601 169.687 196.601 172.197C196.601 175.209 198.861 177.72 202.375 177.72C206.14 177.72 208.65 174.707 208.65 171.193C208.399 166.173 204.132 162.157 197.354 161.655ZM179.281 152.116C180.536 153.622 181.038 155.128 181.038 156.885C181.038 160.902 178.026 164.918 178.026 168.683C178.026 173.703 181.289 176.967 186.059 176.967C191.079 176.967 194.091 172.699 194.091 167.93C194.091 161.153 188.82 153.873 179.281 152.116ZM186.31 166.424C185.055 166.424 184.051 165.42 184.051 164.165C184.051 163.412 184.553 162.408 184.553 161.404C184.804 160.148 184.553 159.144 185.306 159.144C186.812 159.144 188.569 161.906 188.569 163.663C188.569 165.169 187.816 166.424 186.31 166.424Z" fill="#030303"></path> <path fill-rule="evenodd" clip-rule="evenodd" d="M128.325 155.63C124.309 154.124 122.552 151.864 121.548 147.095C119.54 149.856 118.536 152.366 118.536 153.873C118.536 159.897 126.819 159.897 126.819 163.913C126.819 166.172 122.552 168.683 117.03 168.683C110.754 168.683 106.236 167.678 102.22 163.662C101.216 162.658 100.714 161.654 99.4585 161.654C97.9524 161.654 97.1994 164.164 97.1994 166.674C97.1994 175.209 105.483 185.501 117.03 185.501C131.338 185.501 137.111 175.711 137.111 167.678C137.362 162.909 136.358 158.642 128.325 155.63ZM124.309 179.727C123.054 179.727 122.803 179.225 122.803 177.97C122.803 177.217 123.054 175.711 123.054 174.456C123.054 171.444 124.309 171.695 127.321 170.189C129.58 169.185 130.334 167.93 131.087 167.93C131.84 167.93 132.593 168.432 132.593 169.687C132.593 174.205 127.572 179.727 124.309 179.727Z" fill="#030303"></path> <path fill-rule="evenodd" clip-rule="evenodd" d="M110.001 141.071C108.495 141.071 105.985 139.564 103.475 137.556C100.714 140.317 98.7055 144.083 98.7055 148.35C98.7055 157.136 107.993 164.415 117.03 164.415C118.536 164.415 120.042 164.164 121.548 163.913C116.528 163.411 113.515 159.646 113.515 155.127C113.515 149.354 120.042 144.083 120.042 139.564C120.042 134.042 113.264 133.54 113.264 129.022C113.264 125.257 119.791 122.495 119.54 116.471C119.54 112.957 116.026 108.689 111.256 106.179C112.009 107.685 112.511 109.693 112.511 110.949C112.511 117.977 98.9565 120.989 98.9565 126.512C98.9565 133.54 112.009 136.301 112.009 139.564C112.009 140.317 111.507 141.071 110.001 141.071Z" fill="#030303"></path> <path fill-rule="evenodd" clip-rule="evenodd" d="M246.805 145.59C251.324 145.59 254.838 151.363 254.838 158.14C254.838 165.42 251.324 173.201 245.299 178.724C245.299 166.675 230.489 170.44 230.489 161.655C230.489 157.889 233.25 155.379 236.514 155.379C239.275 155.379 241.534 156.132 243.291 157.889C241.785 156.383 240.781 154.124 240.781 152.116C240.781 148.853 242.789 145.59 246.805 145.59Z" fill="#030303"></path> <path fill-rule="evenodd" clip-rule="evenodd" d="M69.0855 157.889C67.8304 158.14 66.8264 158.391 66.0733 159.144C65.3203 156.383 62.8101 153.873 59.2959 154.626C56.2837 155.128 54.0245 157.889 54.5266 161.403C54.5266 161.905 54.7776 162.658 55.0286 163.16C55.0286 163.16 54.5266 163.16 54.0245 163.411C51.5144 163.913 48.5022 166.423 49.0042 170.189C49.5062 173.452 52.2674 175.711 55.5306 175.46C56.7857 175.209 57.7898 174.958 58.5428 174.456C59.2959 177.468 61.806 179.225 65.0693 178.974C68.3325 178.472 70.5916 175.711 70.3406 172.448C70.3406 171.444 70.0896 170.942 69.8386 170.44H70.5916C73.8548 169.687 76.114 167.177 75.8629 163.913C74.8589 159.897 72.0977 157.387 69.0855 157.889ZM62.5591 170.189C60.551 170.44 59.0449 168.934 58.7938 167.177C58.5428 165.168 59.7979 163.411 61.806 163.16C63.8142 162.909 65.3203 164.415 65.5713 166.172C65.8223 168.181 64.5672 169.938 62.5591 170.189Z" fill="#030303"></path> <path fill-rule="evenodd" clip-rule="evenodd" d="M231.745 142.828C231.745 141.573 234.757 138.561 234.757 137.557C234.757 137.306 234.506 137.055 234.255 137.055C233 137.055 228.732 140.318 222.457 140.318C219.947 140.318 218.19 140.067 218.19 138.059C218.19 136.302 219.696 134.795 222.206 133.791C224.967 132.536 230.489 132.536 230.489 131.281C230.489 130.277 225.218 130.277 225.218 129.273C225.218 128.018 227.226 125.006 227.226 123.751C227.226 123.751 227.226 123.249 226.975 123.249C225.971 123.249 223.461 126.261 221.955 126.261C220.449 126.261 219.194 122.496 217.939 122.496C217.688 122.496 217.186 122.747 217.186 123.5C217.186 125.006 217.939 127.767 217.939 131.532C217.939 134.796 216.181 137.557 214.424 137.557C212.165 137.557 211.412 134.795 211.412 132.536C211.412 129.273 213.169 125.508 213.169 121.994C213.169 121.241 212.918 120.99 212.416 120.99C211.161 120.99 209.153 124.755 207.647 124.755C206.643 124.755 204.886 120.237 203.38 120.237C203.129 120.237 202.878 120.99 202.878 121.994C202.878 123.249 203.129 125.006 203.129 125.759C203.129 126.763 201.874 127.014 200.367 127.014C199.363 127.014 197.355 127.014 197.355 127.767C197.355 128.52 199.363 129.273 201.121 130.528C204.384 132.787 209.655 135.047 209.655 140.318C209.655 145.087 202.878 148.35 198.108 149.354C195.849 149.605 193.59 150.107 193.59 150.861C193.59 151.865 199.614 152.116 199.614 153.371C199.614 154.124 196.853 157.638 196.853 158.642C196.853 158.893 197.104 158.893 197.104 158.893C198.108 158.893 201.121 156.383 202.376 156.383C204.133 156.383 203.882 161.654 205.137 161.654C206.643 161.654 206.141 153.873 206.643 151.865C207.647 148.35 210.157 144.836 212.416 144.836C215.177 144.836 215.428 149.605 215.428 151.865C215.428 156.383 212.165 161.152 212.165 163.411C212.165 163.662 212.416 163.913 212.667 163.913C213.671 163.913 215.93 160.901 217.186 160.901C218.441 160.901 221.202 165.922 222.206 165.922C222.708 165.922 222.959 165.419 222.959 164.917C222.959 163.411 222.206 160.901 222.206 159.395C222.206 157.638 227.979 158.642 227.979 157.387C227.979 156.885 225.469 155.881 223.963 154.877C220.7 152.869 216.935 148.601 216.935 145.087C216.935 143.832 217.688 142.828 218.692 142.828C225.72 142.828 228.732 153.622 229.987 153.622C231.242 153.622 230.489 148.852 230.991 148.099C231.242 147.848 231.996 147.597 232.749 147.597C234.004 147.597 235.51 147.848 236.514 147.848C237.267 147.848 237.518 147.848 237.518 147.597C237.267 146.091 231.745 144.334 231.745 142.828Z" fill="#030303"></path> <path fill-rule="evenodd" clip-rule="evenodd" d="M203.882 139.815C203.882 137.556 194.092 130.026 192.084 130.026C191.582 130.026 191.331 130.277 191.331 130.779C191.331 131.532 191.582 132.536 191.582 133.289C191.582 135.046 190.829 135.297 189.072 135.297C187.064 135.297 183.801 134.544 183.801 131.281C183.801 125.005 195.849 126.512 197.104 120.738C191.833 120.738 189.323 117.224 185.809 117.224C184.554 117.224 182.043 117.977 182.043 121.24C182.043 122.244 182.294 124.001 182.294 125.508C182.294 127.014 182.043 128.018 180.286 128.018C178.78 128.018 178.529 126.261 178.529 124.252C178.529 122.495 178.78 120.487 178.78 119.232C178.78 109.945 168.489 113.71 167.485 106.179C164.974 110.698 164.221 113.961 164.221 116.722C164.221 126.512 177.525 125.508 177.525 132.285C177.525 134.042 176.27 135.046 175.015 135.046C172.756 135.046 171.25 130.277 167.736 130.277C165.978 130.277 164.723 131.532 164.723 134.293C164.723 136.301 165.225 137.807 165.225 139.815C165.225 143.832 163.468 145.589 161.711 147.346C173.76 146.342 174.513 137.305 178.027 137.305C179.031 137.305 179.533 138.058 179.533 138.56C179.533 140.066 177.023 142.577 177.023 145.087C177.023 148.35 180.788 150.107 183.299 150.107C186.311 150.107 187.315 149.103 187.315 147.095C187.315 144.836 183.299 141.824 183.299 139.313C183.299 138.058 184.554 137.807 186.311 137.807C190.076 137.807 191.331 138.309 191.331 139.062C191.331 140.066 189.825 142.075 189.825 142.577C189.825 142.828 190.076 143.581 190.829 143.581C193.59 144.083 203.882 141.824 203.882 139.815Z" fill="#030303"></path> <path fill-rule="evenodd" clip-rule="evenodd" d="M77.1183 105.929C75.3612 109.192 74.8592 113.459 74.8592 115.969C74.8592 131.281 93.1834 145.589 93.1834 155.128C93.1834 158.893 90.4222 163.411 85.4019 163.411C80.8836 163.411 78.3734 159.897 78.3734 156.885C78.3734 154.626 79.8795 152.618 80.6325 152.618C80.8836 152.618 80.8836 152.869 80.8836 153.371C80.8836 154.626 81.8876 156.383 83.8958 156.132C85.9039 156.132 86.9079 154.877 86.9079 153.12C86.9079 145.589 71.847 132.536 71.847 114.714C71.0939 116.722 70.0899 119.233 70.0899 122.998C70.0899 131.532 76.3653 140.569 76.3653 148.852C76.3653 152.116 73.8551 155.128 70.5919 155.128C66.8266 155.128 65.5716 152.116 65.5716 150.359C65.5716 149.104 66.0736 147.848 66.5756 147.848C67.0777 147.848 66.8267 149.857 68.8348 149.857C71.0939 149.857 71.847 148.35 71.847 145.589C71.847 138.059 67.5797 132.787 67.5797 125.006C67.5797 123.751 67.5797 122.496 67.8307 121.492C65.5716 124.253 65.3206 128.269 65.3206 131.783V141.071C65.3206 147.346 62.3084 150.108 58.5431 150.108C56.033 150.108 53.7738 148.099 53.7738 144.836C53.7738 144.334 54.0248 142.828 54.5269 142.828C55.2799 142.828 55.7819 144.836 57.7901 144.836C61.8063 144.836 62.0573 141.071 62.0573 133.29C61.5553 123.751 65.0695 113.459 77.1183 105.929Z" fill="#030303"></path> <path fill-rule="evenodd" clip-rule="evenodd" d="M52.2679 101.41C53.523 101.41 54.025 102.666 54.025 103.67C54.025 107.937 48.5026 120.488 48.5026 124.002C48.5026 124.504 48.7536 125.006 49.2557 125.006C51.5148 125.006 56.0331 115.216 57.5392 110.447C58.2923 107.937 59.5473 106.682 60.5514 106.682C61.5555 106.682 62.3085 107.686 62.3085 109.694C62.3085 114.463 57.7902 126.01 53.774 133.541C50.7618 139.565 45.7414 148.099 45.7414 152.869C45.7414 155.379 46.2435 157.889 49.7577 160.901C43.9843 160.65 41.4742 159.897 39.215 155.63C29.4254 174.707 57.2882 172.95 47.7496 190.019C45.9925 187.007 32.1866 183.744 32.1866 165.922C32.1866 150.61 45.9925 141.573 45.9925 135.047C45.9925 133.792 45.4904 132.787 44.2353 131.783C41.2232 129.273 41.2232 127.265 38.713 127.265C36.9559 127.265 34.9477 131.281 36.9559 134.796C37.7089 136.051 38.211 136.804 38.211 137.808C38.211 140.318 34.1947 147.095 31.4335 147.095C28.6723 147.095 26.4132 140.067 26.4132 129.022C26.4132 119.233 28.6723 109.192 31.4335 109.192C32.1866 109.192 32.4376 109.694 32.4376 110.447C32.4376 111.702 32.1866 113.961 32.1866 117.978C32.1866 122.245 33.1906 122.496 33.9437 122.496C36.9559 122.496 36.4538 103.67 41.4742 103.67C42.7293 103.67 42.9803 104.925 42.9803 106.18C42.9803 110.447 40.9721 116.722 40.9721 119.986C40.9721 121.743 41.4742 122.245 42.2272 122.245C44.7374 121.994 48.5026 101.41 52.2679 101.41Z" fill="#030303"></path> <path fill-rule="evenodd" clip-rule="evenodd" d="M256.344 126.01C252.077 126.01 249.818 133.541 245.55 133.792C248.06 122.998 258.854 117.225 258.854 107.184C258.854 95.6373 249.316 91.621 245.299 89.1108C238.773 79.5722 234.004 72.0417 223.21 72.0417C218.692 72.0417 215.679 72.7948 212.667 72.7948C206.643 72.7948 204.635 70.5356 204.384 70.5356C204.384 70.5356 204.133 70.5356 204.133 71.0377C204.133 79.5722 208.651 98.6495 227.728 98.6495C238.02 98.6495 242.287 94.6332 244.797 94.6332C247.307 94.6332 255.591 97.3944 255.591 107.184C255.591 112.455 251.324 117.978 249.818 117.978C248.311 117.978 246.805 115.468 246.805 112.957C246.805 110.196 248.311 104.925 248.311 101.662C248.311 100.407 248.06 99.9045 247.307 99.9045C245.801 99.9045 238.02 104.925 238.02 110.949C238.02 116.221 245.801 119.484 248.814 120.99C245.801 125.759 244.044 129.022 242.789 133.541C242.789 130.026 239.526 123.249 238.522 120.237C233.753 106.682 231.995 104.172 221.704 102.917C223.21 108.439 240.781 121.492 240.781 134.796C240.781 135.549 240.781 136.804 240.53 137.306C235.259 121.743 226.222 117.978 222.959 114.212C217.688 108.188 220.7 102.415 212.165 99.1515C212.667 99.9045 212.918 100.909 212.918 101.662C212.918 104.674 211.412 108.188 211.412 110.698C211.412 120.237 222.206 117.225 228.732 122.496C235.008 127.516 238.522 135.8 241.032 145.087C243.542 141.071 245.048 136.051 249.316 136.051C252.077 136.051 253.081 139.565 253.081 142.326V143.581C257.348 139.816 259.607 133.792 259.607 129.775C259.356 127.767 258.352 126.01 256.344 126.01ZM239.275 90.6169C238.271 90.6169 236.765 90.1149 235.51 90.1149C232.497 90.1149 230.238 94.3822 228.732 94.3822C228.23 94.3822 227.979 93.8801 227.979 93.3781C227.979 91.621 230.991 89.6129 230.991 88.3578C230.991 87.6047 229.736 87.3537 229.234 87.3537C226.222 87.3537 221.955 91.621 219.445 91.621C218.943 91.621 218.441 91.37 218.441 90.868C218.441 89.6129 221.704 88.1068 221.704 86.8517C221.704 85.5966 220.449 85.5966 219.445 85.5966C217.939 85.5966 214.926 86.3497 213.169 86.3497C212.165 86.3497 211.412 86.0987 211.412 85.3456C211.412 83.5885 217.185 84.5926 217.185 82.5844C217.185 81.5804 215.428 79.5722 215.428 78.5682C215.428 78.0661 215.93 77.8151 216.432 77.8151C218.441 77.8151 220.7 83.5885 222.959 83.5885C223.963 83.5885 224.214 82.8354 224.214 81.5804C224.214 80.3253 223.963 79.8233 223.963 78.8192C223.963 77.8151 224.465 77.5641 224.716 77.5641C226.222 77.5641 227.477 85.5966 231.744 85.5966C233.502 85.5966 232.246 80.5763 234.004 80.5763C235.008 80.5763 235.259 82.0824 235.259 82.8354C235.761 88.1068 240.53 88.3578 240.53 90.3659C240.279 90.1149 240.028 90.6169 239.275 90.6169Z" fill="#030303"></path> <path fill-rule="evenodd" clip-rule="evenodd" d="M179.282 78.8192C181.29 78.8192 182.796 80.3253 182.796 82.0824C182.796 83.8395 181.29 85.3456 179.282 85.3456C177.525 85.3456 175.768 83.8395 175.768 82.0824C175.768 80.3253 177.525 78.8192 179.282 78.8192ZM202.376 110.447C200.619 110.447 198.862 111.953 198.862 113.71C198.862 115.719 200.619 116.974 202.376 116.974C204.384 116.974 205.89 115.468 205.89 113.459C205.89 111.702 204.384 110.447 202.376 110.447ZM190.829 104.172C187.315 104.172 184.554 106.933 184.554 110.196C184.554 113.459 187.315 116.221 190.829 116.221C194.343 116.221 197.104 113.459 197.104 110.196C197.104 106.933 194.343 104.172 190.829 104.172ZM179.784 101.411C177.776 101.411 176.27 102.917 176.27 104.925C176.27 106.933 178.027 108.439 179.784 108.439C181.792 108.439 183.299 106.933 183.299 104.925C183.299 102.917 181.792 101.411 179.784 101.411ZM201.874 106.933C204.133 106.933 206.141 105.176 206.141 102.917C206.141 100.658 204.133 98.9005 201.874 98.9005C199.615 98.9005 197.606 100.658 197.606 102.917C197.606 104.925 199.615 106.933 201.874 106.933ZM169.242 94.1312C166.48 94.1312 163.97 96.3903 163.97 99.1515C163.97 101.913 166.229 104.172 169.242 104.172C172.003 104.172 174.513 101.913 174.513 99.1515C174.262 96.3903 172.003 94.1312 169.242 94.1312ZM188.068 97.8964C188.068 99.9045 189.574 101.411 191.582 101.411C193.59 101.411 195.096 99.9045 195.096 97.8964C195.096 95.8883 193.59 94.3822 191.582 94.3822C189.574 94.3822 188.068 96.1393 188.068 97.8964ZM181.039 98.9005C184.052 98.9005 186.562 96.6413 186.562 93.6291C186.562 90.6169 184.052 88.3578 181.039 88.3578C178.027 88.3578 175.517 90.6169 175.517 93.6291C175.517 96.3903 177.776 98.9005 181.039 98.9005ZM201.121 95.3863C203.129 95.3863 204.886 93.6291 204.886 91.621C204.886 89.6129 203.129 87.8558 201.121 88.1068C199.113 88.1068 197.355 89.8639 197.355 91.872C197.355 93.8802 199.113 95.3863 201.121 95.3863ZM170.748 90.3659C172.756 90.3659 174.262 88.8598 174.262 86.8517C174.262 84.8436 172.756 83.3375 170.748 83.3375C168.74 83.3375 167.233 84.8436 167.233 86.8517C166.982 88.8598 168.74 90.3659 170.748 90.3659ZM191.331 90.1149C194.594 90.1149 197.104 87.6047 197.104 84.5925C197.104 81.5804 194.594 79.0702 191.331 79.0702C188.068 79.0702 185.558 81.5804 185.558 84.5925C185.558 87.6047 188.068 90.1149 191.331 90.1149ZM195.598 77.0621C197.606 77.0621 199.113 75.556 199.113 73.7989C199.113 72.0417 197.606 70.5356 195.598 70.5356C193.59 70.5356 192.084 72.0417 192.084 73.7989C192.335 75.807 193.841 77.0621 195.598 77.0621Z" fill="#030303"></path> <path fill-rule="evenodd" clip-rule="evenodd" d="M94.1873 81.5808C96.4465 81.5808 100.463 85.346 101.467 89.3623C100.965 89.3623 100.463 89.1113 100.212 89.1113C97.1995 89.1113 95.6934 91.8725 93.4343 96.6418C98.7056 93.1275 103.475 90.3664 108.997 90.3664C113.767 90.3664 117.532 93.1275 117.532 97.3948C117.532 99.1519 116.528 101.16 115.524 103.168C114.771 99.1519 111.507 97.3948 105.734 97.3948C102.471 97.3948 98.4546 97.8968 95.1914 99.1519C105.483 100.658 106.989 104.172 106.989 107.435C106.989 112.958 101.216 115.719 97.4506 117.476C97.7016 115.97 98.2036 114.213 98.2036 112.456C98.2036 109.193 96.9485 105.176 91.6772 101.662C90.9241 105.176 87.9119 107.435 87.9119 110.197C87.9119 111.201 88.665 111.703 89.167 111.703C89.167 113.209 88.414 117.727 88.414 118.982C88.414 121.241 88.916 121.743 90.1711 121.994C90.9241 124.003 90.9241 127.517 91.4262 129.274C91.6772 130.278 92.4302 130.529 93.1833 130.529C93.9363 132.286 94.9404 135.047 96.4465 136.051C96.6975 136.302 97.1995 137.055 97.1995 137.557C97.1995 139.063 94.6894 140.821 93.1833 140.821C92.6812 140.821 91.9282 140.57 91.1752 138.812C90.6731 137.557 86.1548 134.796 85.9038 133.29C86.1548 133.039 86.4059 132.537 86.4059 131.784C86.4059 129.274 82.3896 126.513 82.3896 122.496C82.8916 122.245 83.3936 121.492 83.3936 120.739C83.3936 118.48 81.1345 114.213 81.1345 111.201C82.1386 111.201 82.6406 111.201 82.6406 109.695C82.8916 106.682 83.3937 102.415 86.1548 99.905C85.4018 99.905 84.6487 99.654 83.6447 99.654C78.1223 99.654 69.8388 102.666 66.5756 109.695C66.3245 108.691 66.3246 107.686 66.3246 106.682C66.3246 100.909 69.8388 97.1438 72.6 95.8887C73.855 95.3867 75.6122 95.1357 77.3693 95.1357C80.3815 95.1357 83.6447 95.6377 87.1589 96.3908C84.1467 92.3745 79.3774 89.6133 75.3611 89.6133C73.604 89.6133 72.0979 90.1153 71.5959 91.6214C71.3449 90.8684 71.3449 89.6133 71.3449 88.6092C71.3449 84.342 72.851 81.8318 76.6162 81.8318C82.1386 81.8318 87.1589 88.3582 89.9201 94.3826V93.6296C89.9201 85.095 90.1711 80.8277 93.6853 80.5767L94.1873 81.5808Z" fill="#030303"></path> <path fill-rule="evenodd" clip-rule="evenodd" d="M24.4051 95.8884C24.4051 102.666 26.6642 105.929 30.4295 105.929C33.4417 105.929 37.4579 103.921 42.2272 99.9047C38.462 100.658 35.7008 101.16 33.1907 101.16C29.9274 101.16 27.1663 99.9047 24.4051 95.8884ZM50.5108 86.6008C48.2516 87.1029 43.9843 89.613 43.9843 94.1313C43.9843 97.3945 46.4945 99.4027 49.7577 99.4027C51.5148 99.4027 52.7699 99.1516 53.523 98.3986C51.0128 95.8884 50.0087 93.3783 50.0087 90.6171C50.0087 88.86 50.2597 87.6049 50.5108 86.6008ZM58.2923 79.3214C56.2841 81.5805 54.025 85.5968 54.025 89.613C54.025 94.3823 57.0372 98.3986 61.8065 98.3986C66.3248 98.3986 68.5839 94.6333 68.5839 90.8681C68.835 84.8437 63.0616 80.5764 58.2923 79.3214ZM27.6683 87.8559V89.111C27.6683 93.3783 29.9274 95.6374 33.1907 95.6374C35.4498 95.6374 38.211 94.3823 40.7211 91.3701C39.7171 91.6212 38.462 91.6212 37.4579 91.6212C33.6927 91.8722 29.9274 90.8681 27.6683 87.8559ZM46.2435 64.7624C43.2313 64.7624 39.466 65.0134 35.4498 67.5236C27.4173 72.5439 28.4213 80.5764 27.1663 82.8356C26.9152 83.0866 26.9152 83.3376 26.9152 83.8397C26.9152 84.5927 27.9193 85.5968 28.6724 85.5968C29.4254 85.5968 29.9274 85.3458 30.1785 85.3458C32.4376 85.3458 34.9478 86.8518 38.713 86.8518C40.9722 86.8518 43.4823 86.0988 46.4945 84.5927C53.2719 81.3295 55.7821 73.297 55.7821 72.0419C55.7821 70.2848 54.276 70.5358 53.2719 69.0297C52.0169 67.5236 52.5189 66.0175 51.7658 65.2645C51.2638 64.7624 50.0087 64.7624 48.2516 64.7624H46.2435ZM40.7211 82.5846C37.7089 82.5846 34.1947 78.8193 34.1947 75.5561C34.1947 73.799 35.7008 71.5399 36.7049 71.5399C36.9559 71.5399 37.2069 71.7909 37.4579 72.5439C37.96 76.8112 40.9722 79.3214 43.7333 80.5764C43.9843 80.8275 44.2354 80.8274 44.2354 81.0785C43.9843 81.8315 42.2272 82.5846 40.7211 82.5846ZM51.7658 74.301C51.7658 75.5561 51.0128 77.0622 49.5067 77.0622C46.2435 77.0622 43.7333 72.2929 43.4823 69.5317C43.4823 67.7746 44.4864 67.7746 45.9925 67.7746C46.7455 67.7746 46.9965 67.7746 47.4986 68.0256C48.2516 68.5277 48.2516 70.2848 49.2557 71.5399C50.0087 72.5439 51.7658 73.548 51.7658 74.301ZM58.7943 70.2848C58.7943 72.2929 60.5514 73.799 62.5595 73.799C64.5677 73.799 66.3248 72.2929 66.3248 70.2848C66.3248 68.2766 64.5677 66.7705 62.5595 66.7705C60.5514 66.5195 58.7943 68.2766 58.7943 70.2848ZM57.5392 65.7665C59.5474 65.7665 61.3045 64.2604 61.3045 62.2522C61.3045 60.2441 59.5474 58.738 57.5392 58.738C55.5311 58.738 53.774 60.2441 53.774 62.2522C54.025 64.0094 55.5311 65.7665 57.5392 65.7665ZM32.1866 64.0094C35.4498 64.0094 38.211 62.0012 38.211 62.0012C32.6886 60.4951 29.6764 56.7299 29.6764 51.4586V49.9525C26.1622 51.4586 24.6561 54.2197 24.6561 56.9809C24.9071 61.2482 28.1703 64.0094 32.1866 64.0094ZM48.5026 59.9931C49.0047 58.487 49.2557 56.7299 49.2557 54.7218C49.2557 50.4545 47.2475 43.9281 40.7211 43.9281C36.9559 43.9281 34.4457 46.6893 34.4457 49.9525C34.6967 57.2319 42.2272 59.9931 48.5026 59.9931Z" fill="#030303"></path> <path fill-rule="evenodd" clip-rule="evenodd" d="M254.838 57.7335C250.822 65.766 240.781 67.5231 237.518 67.0211C238.522 75.3046 250.822 86.3493 254.085 86.0983C256.344 85.8473 257.097 75.3046 257.097 67.0211C257.097 62.2518 257.348 58.4865 254.838 57.7335ZM255.089 49.952C255.089 46.9398 253.834 44.6806 250.32 44.1786C250.822 44.9317 251.073 45.6847 251.073 46.9398C251.073 51.7091 244.044 56.9804 236.263 56.9804C233.501 56.9804 232.497 58.9886 232.748 59.9926C232.748 62.5028 235.008 63.5068 238.271 63.5068C247.056 63.2558 255.089 56.2274 255.089 49.952Z" fill="#030303"></path> <path fill-rule="evenodd" clip-rule="evenodd" d="M236.263 53.7172C239.777 53.7172 247.307 50.705 247.307 46.6888C247.307 45.4337 246.805 44.1786 244.797 44.1786C242.036 44.1786 238.271 46.9398 234.505 46.9398C233.25 46.9398 231.744 46.9398 230.238 46.4378C231.744 47.4418 231.493 49.952 232.246 51.7091C233.501 53.7172 235.008 53.7172 236.263 53.7172Z" fill="#030303"></path> <path fill-rule="evenodd" clip-rule="evenodd" d="M189.072 55.7253C189.072 63.7578 183.55 67.021 178.529 67.021C177.274 67.021 176.27 66.77 175.266 66.268C176.27 65.2639 177.274 63.7578 177.274 62.7537C177.274 62.0007 176.772 61.7497 176.019 61.7497C175.517 61.7497 174.262 62.0007 173.258 62.0007C170.748 62.0007 168.74 60.9966 166.48 58.7375C164.974 60.9966 164.221 64.0088 164.221 67.021C164.221 71.7903 165.978 76.5596 167.987 76.8107C168.991 76.8107 168.991 73.5474 170.748 73.5474C171.25 73.5474 173.258 75.0535 177.525 75.0535C183.801 75.0535 190.829 71.2883 190.829 61.4987C190.578 60.2436 190.076 57.2314 189.072 55.7253Z" fill="#030303"></path> <path fill-rule="evenodd" clip-rule="evenodd" d="M174.764 50.705C176.019 50.705 178.529 51.2071 179.282 52.4621C178.278 52.9642 177.274 54.2193 177.274 55.2233C177.274 55.7254 177.525 56.2274 178.027 56.4784C180.286 57.4825 181.541 59.2396 182.294 60.7457C186.311 58.4865 187.817 52.2111 187.817 48.6969C187.817 47.6928 187.817 46.1867 186.813 46.1867C186.06 46.1867 185.307 47.1908 184.303 47.1908C183.55 47.1908 181.29 44.1786 175.768 44.1786C169.493 44.1786 166.731 48.9479 166.731 52.9642C166.731 53.9682 166.982 55.2233 167.233 55.9764C168.489 53.4662 170.999 50.705 174.764 50.705Z" fill="#030303"></path> <path fill-rule="evenodd" clip-rule="evenodd" d="M111.256 55.9763C106.738 55.9763 102.722 59.7416 99.7097 64.7619C99.9607 63.7578 99.9607 62.7538 99.9607 61.7497C99.9607 54.7213 96.1954 48.6969 89.418 48.6969C83.8956 48.6969 78.6243 51.9601 76.6162 58.4865C77.1182 57.9845 79.1263 56.7294 80.6324 56.7294C82.3896 56.7294 82.8916 58.2355 82.8916 60.7456C82.8916 62.2517 82.6406 64.2599 81.8875 66.017C80.8835 69.0292 78.8753 69.7822 77.8713 69.7822C73.604 69.7822 75.6121 62.5028 73.353 62.5028C71.5959 62.5028 71.0938 66.519 71.0938 68.0251C71.0938 73.0454 74.357 78.3168 81.6365 78.3168C89.418 78.3168 93.6853 74.5515 98.2036 69.7822C99.2076 75.0536 101.969 84.3412 109.75 84.3412C114.018 84.3412 117.03 80.8269 117.281 76.5597C116.779 77.0617 116.026 77.5637 115.022 77.5637C113.516 77.5637 113.014 75.3046 113.014 73.2964C113.014 70.0332 114.018 66.519 115.524 66.519C116.277 66.519 116.779 67.021 117.03 69.5312C117.281 71.2883 117.03 73.5475 118.285 73.5475C119.54 73.5475 120.042 69.7822 120.042 67.5231C119.791 60.9967 117.03 55.7253 111.256 55.9763ZM85.4018 73.0454C84.6487 73.0454 84.3977 72.2924 84.3977 71.7904C84.3977 68.2761 88.1629 52.7131 90.9241 52.7131C91.4261 52.7131 91.6772 53.2152 91.6772 53.9682C91.6772 56.7294 88.4139 73.0454 85.4018 73.0454ZM96.9485 66.268C94.6893 68.7782 93.4343 70.0332 92.4302 70.0332C91.9282 70.0332 91.4261 69.0292 91.4261 68.0251C91.4261 66.268 92.6812 58.9885 95.4424 58.9885C96.4465 58.9885 97.1995 60.9967 97.1995 62.7538C97.1995 64.2599 97.1995 65.2639 96.9485 66.268ZM102.22 72.5434C101.467 72.5434 100.714 71.0373 100.714 68.0251C102.22 65.5149 102.973 64.5109 103.977 64.5109C104.228 64.5109 104.73 64.7619 104.73 66.268C104.479 69.5312 103.224 72.5434 102.22 72.5434ZM106.738 77.8147C106.236 77.8147 105.734 77.0617 105.734 75.0536C105.734 70.2843 108.746 61.4987 110.503 61.4987C111.005 61.4987 111.256 62.7538 111.256 64.0089C111.507 69.2802 108.997 77.8147 106.738 77.8147Z" fill="#030303"></path> <path fill-rule="evenodd" clip-rule="evenodd" d="M221.955 45.6852C220.198 45.6852 217.437 47.6933 215.428 47.6933C212.667 47.6933 213.42 43.9281 210.408 43.9281C209.655 43.9281 208.902 44.1791 208.149 44.6811C201.874 47.9443 196.853 46.6893 195.849 47.4423C195.598 47.6933 195.347 47.6933 195.347 48.4464C195.347 55.4748 202.376 66.0175 213.922 66.0175C221.955 66.0175 228.481 63.2563 228.481 58.487C228.23 54.4707 224.465 45.6852 221.955 45.6852ZM214.675 59.2401C208.149 59.2401 204.133 55.4748 204.133 53.2157C204.133 52.9647 204.384 52.7136 204.635 52.7136C205.639 52.7136 208.4 54.2197 212.165 54.7218C216.432 55.4748 218.692 55.4748 219.947 55.4748C221.202 55.4748 221.704 55.7258 221.704 56.2279C221.453 57.483 218.441 59.2401 214.675 59.2401Z" fill="#030303"></path> <path fill-rule="evenodd" clip-rule="evenodd" d="M257.097 3.51421C252.579 3.51421 252.077 2.25913 249.064 2.25913C245.55 2.25913 243.04 4.7693 243.04 8.53454C243.04 9.78962 243.542 11.7977 243.542 14.3079C243.542 17.3201 243.04 20.3323 240.279 20.3323C237.769 20.3323 236.765 18.5752 236.765 16.5671C236.765 13.0528 238.522 10.5427 238.522 8.28353C238.522 4.01625 233.501 2.76117 227.979 2.76117C221.453 2.76117 214.424 4.51828 214.424 5.52234C214.424 7.02844 223.712 6.02438 230.489 14.8099C226.222 14.8099 217.938 16.8181 217.938 18.0732C217.938 19.5792 232.999 21.0853 232.999 27.3608C232.999 31.377 229.736 31.879 228.481 31.879C223.461 31.879 220.951 26.6077 219.696 26.6077C219.445 26.6077 218.943 26.8587 218.943 27.3608C218.943 28.1138 219.696 30.373 219.696 32.6321C219.696 38.4055 213.42 38.9075 213.42 40.1626C213.42 40.6646 213.671 40.6646 214.424 40.9156C218.943 41.6687 223.712 41.9197 227.979 41.9197C244.044 41.9197 256.846 36.8994 256.846 22.8425C256.846 15.061 254.336 12.5508 254.336 8.78556C253.834 7.53048 254.838 4.7693 257.097 3.51421ZM234.757 34.1382H231.493C241.785 32.3811 247.558 26.3567 247.558 18.3242C249.818 19.0772 251.324 21.3364 251.324 23.8465C251.073 28.6158 246.805 34.1382 234.757 34.1382ZM249.064 9.78962C247.809 9.78962 246.805 8.78556 246.805 7.53048C246.805 6.2754 247.809 5.27133 249.064 5.27133C250.32 5.27133 251.324 6.2754 251.324 7.53048C251.324 8.78556 250.32 9.78962 249.064 9.78962Z" fill="#030303"></path> <path fill-rule="evenodd" clip-rule="evenodd" d="M194.594 0.502025C188.57 0.502025 184.052 3.51422 181.541 3.51422C180.035 3.51422 178.027 0 176.772 0C176.27 0 175.768 1.00406 175.768 2.51016V3.01219C175.768 4.26727 175.517 6.52642 174.764 6.52642C172.505 6.52642 163.97 0.502032 163.97 2.51016C163.97 4.51829 169.744 10.7937 169.744 12.2998C169.744 13.8059 164.221 15.312 164.221 16.5671C164.221 18.5752 170.246 18.8262 170.246 21.3364C170.246 23.8465 163.97 25.8547 163.97 27.6118C163.97 29.1179 170.246 28.1138 170.246 29.8709C170.246 31.628 165.727 37.9034 165.727 39.6606C165.727 40.1626 165.727 40.1626 166.229 40.1626C167.987 40.1626 173.258 34.3892 174.513 34.3892C176.019 34.3892 176.27 37.9034 176.521 39.9116C176.772 40.9156 176.772 41.1667 177.274 41.1667C178.278 41.1667 180.035 37.1504 181.29 37.1504C183.047 37.1504 187.566 41.9197 195.347 41.9197C206.392 41.9197 216.684 34.3892 216.684 21.0854C216.935 8.03251 207.396 0.502025 194.594 0.502025ZM179.282 29.1179C179.031 29.1179 178.78 28.8669 178.78 28.3648L178.529 24.8506C178.529 24.5996 178.278 24.0976 177.776 24.0976H174.011C173.509 24.0976 173.258 24.0976 173.258 23.8465C173.258 23.0935 177.023 20.5833 177.023 20.0813C177.023 19.0772 173.509 17.3201 173.509 16.065C173.509 15.814 173.76 15.814 174.011 15.814C175.015 15.814 176.772 16.065 178.027 16.065C179.282 16.065 179.282 11.0447 180.286 11.0447C181.039 11.0447 182.043 15.814 183.048 15.814C184.303 15.814 186.311 14.5589 187.315 14.5589C187.566 14.5589 187.566 14.5589 187.566 14.81C187.566 15.312 185.307 17.8221 185.307 18.5752C185.307 19.3282 190.327 20.3323 190.327 21.0854C190.327 22.0894 185.056 21.8384 185.056 22.5915C185.056 23.0935 187.064 25.6036 187.064 26.6077C187.064 26.8587 187.064 26.8587 186.813 26.8587C186.06 26.8587 183.299 25.6036 182.545 25.6036C181.541 25.6036 180.035 29.1179 179.282 29.1179ZM194.845 36.8994C188.57 36.8994 184.303 33.8872 184.303 32.1301C184.303 31.377 184.805 30.875 185.558 30.875C187.566 30.875 191.833 33.8872 193.339 33.8872C193.59 33.8872 194.092 33.6362 194.092 33.1341C194.092 31.628 192.586 28.8669 192.586 27.6118C192.586 27.3608 192.837 27.1097 193.339 27.1097C195.849 27.1097 199.364 28.1138 201.372 28.1138C202.125 28.1138 202.125 27.8628 202.125 27.3608C202.125 25.3526 196.1 21.5874 196.1 20.3323C196.1 19.3282 203.38 17.5711 203.38 16.065C203.38 14.3079 193.339 15.563 193.339 13.8059C193.339 12.5508 195.347 10.5427 195.347 9.53861C195.347 9.03658 195.096 9.03658 194.343 9.03658C193.59 9.03658 189.072 10.7937 187.315 10.7937C186.311 10.7937 185.307 10.5427 185.307 9.28759C185.307 7.27946 188.821 5.02032 194.343 5.02032C203.38 5.02032 208.651 11.0447 208.651 21.0854C208.902 33.6362 199.866 36.8994 194.845 36.8994Z" fill="#030303"></path> <path fill-rule="evenodd" clip-rule="evenodd" d="M99.4589 26.1057C102.973 26.1057 113.516 30.875 118.285 30.875C120.042 30.875 121.046 29.8709 121.046 28.8669C121.046 23.3445 106.236 13.5549 105.985 9.53862C105.985 9.03659 106.236 8.78557 106.487 8.53455C108.998 5.77337 119.54 4.01626 119.54 1.75711C119.54 0.50203 117.281 0.50203 116.277 0.50203C107.742 0.50203 95.4427 3.51423 95.4427 6.52642C95.4427 9.53862 106.487 17.0691 106.487 20.8343C106.487 21.8384 105.734 22.0894 104.73 22.0894C101.718 22.0894 94.9406 18.3242 91.6774 18.3242C90.1713 18.3242 89.6693 19.3283 89.6693 20.8343C89.6693 25.1016 94.9406 33.3852 94.9406 35.8953C94.9406 36.1463 94.9406 36.6484 94.4386 36.6484C92.6815 36.6484 85.151 27.6118 82.3898 27.6118C81.3858 27.6118 81.3858 28.8669 81.3858 30.875V33.8872C81.3858 35.8953 81.3858 37.1504 80.3817 37.1504C78.1225 37.1504 76.8675 30.624 74.6083 30.624C72.3492 30.624 71.8471 42.4217 69.588 42.4217C66.8268 42.4217 69.086 29.6199 66.5758 29.6199C63.8146 29.6199 60.5514 38.1545 58.5433 38.1545C57.7902 38.1545 57.5392 37.4014 57.5392 36.8994C57.5392 34.3892 59.0453 30.122 59.0453 27.6118C59.0453 26.3567 58.7943 25.6037 57.5392 25.6037C54.778 25.6037 48.5026 30.122 46.2435 30.122C45.9925 30.122 45.4904 29.8709 45.4904 29.6199C45.4904 27.3608 55.5311 20.5833 55.5311 17.5711C55.5311 14.5589 41.7252 16.5671 41.7252 13.0528C41.7252 10.2917 51.5148 7.27947 51.5148 4.26727C51.5148 1.75711 39.9681 0.50203 35.4498 0.50203C30.1784 0.50203 27.1663 1.25508 27.1663 2.76118C27.1663 5.02033 39.466 5.77337 39.466 7.7815C39.466 9.78963 26.6642 15.061 26.6642 18.0732C26.6642 20.8343 44.4864 18.3242 44.4864 21.0854C44.4864 24.0976 28.9234 37.4014 28.9234 41.9197C28.9234 42.9238 29.6764 43.4258 30.6805 43.4258C35.4498 43.4258 47.7496 34.3892 51.0128 34.3892C52.2679 34.3892 52.2679 35.8953 52.2679 37.1504C52.2679 39.4096 51.5148 43.1748 51.5148 45.685C51.5148 47.6931 52.0169 49.1992 53.774 49.1992C57.0372 49.1992 60.3004 43.4258 62.5595 43.4258C65.5717 43.4258 63.8146 59.9929 68.0819 59.9929C71.8471 59.9929 73.3532 41.9197 75.6124 41.9197C77.8715 41.9197 79.8797 47.191 82.1388 47.191C84.9 47.191 83.6449 38.1545 86.4061 38.1545C89.6693 38.1545 98.7059 48.9482 102.973 48.9482C104.228 48.9482 104.73 47.9441 104.73 46.689C104.73 41.9197 97.9528 31.126 97.9528 27.6118C98.2038 26.3567 98.4549 26.1057 99.4589 26.1057Z" fill="#030303"></path> <path fill-rule="evenodd" clip-rule="evenodd" d="M105.232 32.3806C104.981 32.3806 104.73 32.6316 104.73 32.8826C104.73 36.1458 116.277 51.4578 118.285 51.4578C120.042 51.4578 121.548 48.1946 121.548 45.6845C121.548 44.9314 121.297 44.1784 121.046 43.6763C119.289 41.1662 107.742 32.3806 105.232 32.3806ZM37.7089 23.595C37.7089 22.842 36.2028 22.591 34.9478 22.591C32.9396 22.591 30.1784 23.093 28.9234 24.0971C27.9193 24.8501 27.1662 27.3603 27.1662 29.1174C27.1662 30.1215 27.4173 31.1255 28.4213 31.1255C30.6805 31.3765 37.7089 25.3521 37.7089 23.595ZM54.025 12.2993C56.0331 12.2993 59.2963 11.2952 61.5555 11.2952C62.8106 11.2952 64.0656 11.5463 64.0656 12.8013C64.0656 15.0605 59.0453 19.0767 59.0453 20.8339C59.0453 21.3359 59.5473 21.5869 60.0494 21.5869C61.8065 21.5869 65.0697 17.0686 67.8309 17.0686C72.6002 17.0686 69.588 27.3603 72.0981 27.3603C74.8593 27.3603 73.6043 17.3196 77.6205 17.3196C80.8837 17.3196 83.1429 24.3481 85.402 24.3481C85.904 24.3481 86.4061 23.846 86.4061 23.344C86.4061 21.3359 83.6449 17.5706 83.6449 15.0605C83.6449 13.5544 84.649 12.8013 86.1551 12.8013C88.1632 12.8013 91.1754 14.0564 92.6815 14.0564C93.1835 14.0564 93.6856 13.8054 93.6856 13.3034C93.6856 11.0442 85.653 8.78507 85.653 6.02389C85.653 3.26271 90.1713 3.26272 90.1713 2.00764C90.1713 1.5056 87.4102 1.00357 83.6449 1.00357C77.6205 1.00357 78.6246 5.77288 73.8553 5.77288C69.086 5.77288 70.341 0.752556 64.3166 0.752556C60.5514 0.752556 57.2882 1.5056 57.2882 2.25865C57.2882 3.26271 61.5555 2.76069 61.5555 5.77288C61.5555 9.03609 52.2679 9.78913 52.2679 11.7973C52.2679 12.0483 53.0209 12.2993 54.025 12.2993ZM111.508 11.0442C111.508 12.5503 117.281 16.0645 119.791 16.0645C121.297 16.0645 121.799 14.0564 121.799 11.7973C121.799 9.03608 120.544 9.03609 118.285 9.03609C115.273 9.03609 111.508 9.78914 111.508 11.0442Z" fill="#030303"></path> </svg> 