    <svg width="800px" height="630px" viewBox="0 0 800 630" version="1.1" xmlns="http://www.w3.org/2000/svg" xmlns:xlink="http://www.w3.org/1999/xlink">
    <style type="text/css">
        <!--  ========== Intro Animation -->
        @keyframes owb_intro_shape {
            0%   {opacity: 0;}
            100% {opacity: 1;}
        }

        .owb_shapes_intro {
            opacity: 0;
            animation: owb_intro_shape 1.4s ease forwards 1s;
        }
        .owb_shapes_intro:nth-of-type(2) {
            animation-delay: 2s;
        }

        <!--  ========== Shape 1 (Oval) -->
        @keyframes rotate_owb_top_shape_oval {
            0%   {transform: rotate(0);}
            25%  {transform: rotate(10deg);}
            73%  {transform: rotate(-10deg);}
            100% {transform: rotate(10deg);}
        }

        #owb_top_shape_oval {
            animation: rotate_owb_top_shape_oval 15s cubic-bezier(0.445, 0.050, 0.550, 0.950) 2.4s alternate infinite;
        }

        <!--  ========== Shape 2 (Poligon) -->
        @keyframes rotate_owb_top_shape_polygon {
            0%  {transform: rotate(0);}
            33%  {transform: rotate(-20deg);}
            66%  {transform: rotate(0deg);}
            100% {transform: rotate(-20deg);}
        }
        #owb_top_shape_polygon {
            animation: rotate_owb_top_shape_polygon 15s cubic-bezier(0.445, 0.050, 0.550, 0.950) 3.4s alternate infinite;
        }

        <!--  ========== Squares containers -->
        @keyframes owb_top_squares_1 {
            0%   {transform: rotate(0);}
            33%  {transform: rotate(7deg);}
            66%  {transform: rotate(-2deg);}
            100% {transform: rotate(3deg);}
        }
        @keyframes owb_top_squares_2 {
            0%   {transform: rotate(0);}
            33%  {transform: rotate(-8deg);}
            66%  {transform: rotate(3deg);}
            100% {transform: rotate(-4deg);}
        }

        #owb_top_squares_1 {
            animation: owb_top_squares_1 30s 2s cubic-bezier(0.445, 0.050, 0.550, 0.950) infinite alternate;
        }
        #owb_top_squares_2 {
            animation: owb_top_squares_2 20s 3s cubic-bezier(0.445, 0.050, 0.550, 0.950) infinite alternate;
        }

        <!-- ========== Single squares -->
        @keyframes owb_top_squares_poly {
            0% {
                opacity: 0;
                transform: scale(.8) rotate(-20deg);
            }

            100% {
                opacity: 1;
                transform: scale(1) rotate(0deg);
            }
        }

        #owb_top_squares_1 polygon, #owb_top_squares_2 polygon {
            opacity: 0;
            animation: owb_top_squares_poly 1s cubic-bezier(0.445, 0.050, 0.550, 0.950) forwards;
            transform-origin: center center;
        }
    </style>
    <defs>
        <!-- Shape 1 - Definition -->
        <linearGradient spreadMethod="pad" id="owb_top_shape_1_gradient" x1="0%" y1="0%" x2="0%" y2="100%">
            <stop offset="0%" style="stop-opacity:0.5">
                <animate attributeName="stop-color" values="#E7DDE6;#FDDCA3;#aadbe0;#EFABAE;#aadbe0;#FDDCA3;#E7DDE6" dur="30s" repeatCount="indefinite"/>
            </stop>
            <stop offset="100%" style="stop-opacity:1">
                <animate attributeName="stop-color" values="#E7DDE6;#FDDCA3;#aadbe0;#EFABAE;#aadbe0;#FDDCA3;#E7DDE6" dur="30s" repeatCount="indefinite"/>
            </stop>
        </linearGradient>
        <path id="owb_top_shape_oval" fill="url(#owb_top_shape_1_gradient)">
            <animate attributeName="d" dur="30s" repeatCount="indefinite" values="M 378.1,121.2 C 408.4,150 417.2,197.9 411,245.8 404.8,293.7 383.5,341.7 353.4,370.7 303.2,419.1 198.7,427.7 144.5,383.8 86.18,336.5 67.13,221.3 111.9,161 138.6,125 188.9,99.62 240.7,90.92 292.4,82.24 345.6,90.32 378.1,121.2 Z;
            M 418.1,159.8 C 460.9,222.9 497,321.5 452.4,383.4 417.2,432.4 371.2,405.6 271.3,420.3 137.2,440 90.45,500.6 42.16,442.8 -9.572,381 86.33,289.1 117.7,215.5 144.3,153.4 145.7,54.21 212.7,36.25 290.3,15.36 373.9,94.6 418.1,159.8 Z;
            M 451.5,185.8 C 441.5,266.2 339.6,305 272.3,350.2 207.7,393.6 226.7,444.7 182.6,447.9 132.8,451.4 83.97,399.9 66.37,353.1 34.6,268.4 41.16,141.8 112,85.44 186.1,26.33 313.8,54.1 396,101.4 425.2,118.2 455.6,152.4 451.5,185.8 Z;
            M 368.1,46.42 C 461,96.69 473.7,266.2 422.3,358.4 379.1,436 259.6,484.8 175,457.5 107.5,435.7 12.65,329.8 60.93,277.7 95.18,240.8 154,379.3 194.2,348.9 250.7,306 116,204.1 148.4,140.9 184.8,70.02 298,8.455 368.1,46.42 Z;
            M 378.1,121.2 C 408.4,150 417.2,197.9 411,245.8 404.8,293.7 383.5,341.7 353.4,370.7 303.2,419.1 198.7,427.7 144.5,383.8 86.18,336.5 67.13,221.3 111.9,161 138.6,125 188.9,99.62 240.7,90.92 292.4,82.24 345.6,90.32 378.1,121.2 Z"/>
        </path>

        <!-- Shape 2 - Definition -->
        <linearGradient spreadMethod="pad" id="owb_top_shape_2_gradient" x1="0%" y1="0%" x2="0%" y2="100%">
            <stop offset="0%" style="stop-opacity:0.5">
                <animate attributeName="stop-color" values="#FDDCA3;#EFABAE;#D2B6CE;#aadbe0;#FDDCA3" dur="30s" repeatCount="indefinite"/>
            </stop>
            <stop offset="100%" style="stop-opacity:1">
                <animate attributeName="stop-color" values="#FDDCA3;#EFABAE;#D2B6CE;#aadbe0;#FDDCA3" dur="30s" repeatCount="indefinite"/>
            </stop>
        </linearGradient>
        <polygon id="owb_top_shape_polygon" fill="url(#owb_top_shape_2_gradient)">
            <animate
                attributeName="points"
                dur="15s"
                repeatCount="indefinite"
                values="41 41 150.363333 41 259 41 259 150 259 259 150 259 41 259 41 150.363333;
                72 79 150.5 0 226 79 300 150 226 223 150 300 72 223 0 150.5;
                26 92 150.5 16 271.5 92 271.5 150 271.5 210.5 150.5 283.5 26 210.5 26 150;
                88 114.5 150 0 210.5 114.5 257 207 300 300 150 300 0 300 45 207;
                26 92 150.5 16 271.5 92 271.5 150 271.5 210.5 150.5 283.5 26 210.5 26 150;
                72 79 150.5 0 226 79 300 150 226 223 150 300 72 223 0 150.5;
                41 41 150.363333 41 259 41 259 150 259 259 150 259 41 259 41 150.363333;
                "/>
        </polygon>

        <!-- Shape 3 - Definition -->
        <linearGradient spreadMethod="pad" id="owb_top_squares_1_gradient" x1="0%" y1="0%" x2="0%" y2="100%">
            <stop offset="0%" style="stop-opacity:0.5;">
                <animate attributeName="stop-color" values="#D2B6CE; #333; #FDDCA3; #D2B6CE" dur="30s" repeatCount="indefinite"/>
            </stop>
            <stop offset="100%" style="stop-opacity:1;">
                <animate attributeName="stop-color" values="#D2B6CE; #333; #FDDCA3; #D2B6CE" dur="30s" repeatCount="indefinite"/>
            </stop>
        </linearGradient>
        <g id="owb_top_squares_1" fill="url(#owb_top_squares_1_gradient)" opacity=".5" fill-rule="evenodd">
            <polygon style="animation-delay: 0.0s" points="122 114 122 122 114 122 114 114"/>
            <polygon style="animation-delay: 0.1s" points="108 114 108 122 100 122 100 114"/>
            <polygon style="animation-delay: 0.2s" points="94 114 94 122 86 122 86 114"/>
            <polygon style="animation-delay: 0.3s" points="79 114 79 122 71 122 71 114"/>
            <polygon style="animation-delay: 0.4s" points="65 114 65 122 57 122 57 114"/>
            <polygon style="animation-delay: 0.5s" points="122 100 122 108 114 108 114 100"/>
            <polygon style="animation-delay: 0.6s" points="108 100 108 108 100 108 100 100"/>
            <polygon style="animation-delay: 0.7s" points="94 100 94 108 86 108 86 100"/>
            <polygon style="animation-delay: 0.8s" points="79 100 79 108 71 108 71 100"/>
            <polygon style="animation-delay: 0.9s" points="65 100 65 108 57 108 57 100"/>
            <polygon style="animation-delay: 1.0s" points="122 86 122 94 114 94 114 86"/>
            <polygon style="animation-delay: 1.1s" points="108 86 108 94 100 94 100 86"/>
            <polygon style="animation-delay: 1.2s" points="94 86 94 94 86 94 86 86"/>
            <polygon style="animation-delay: 1.3s" points="79 86 79 94 71 94 71 86"/>
            <polygon style="animation-delay: 1.4s" points="65 86 65 94 57 94 57 86"/>
            <polygon style="animation-delay: 1.5s" points="122 71 122 79 114 79 114 71"/>
            <polygon style="animation-delay: 1.6s" points="108 71 108 79 100 79 100 71"/>
            <polygon style="animation-delay: 1.7s" points="94 71 94 79 86 79 86 71"/>
            <polygon style="animation-delay: 1.8s" points="79 71 79 79 71 79 71 71"/>
            <polygon style="animation-delay: 1.9s" points="65 71 65 79 57 79 57 71"/>
            <polygon style="animation-delay: 2.0s" points="122 57 122 65 114 65 114 57"/>
            <polygon style="animation-delay: 2.1s" points="108 57 108 65 100 65 100 57"/>
            <polygon style="animation-delay: 2.2s" points="94 57 94 65 86 65 86 57"/>
            <polygon style="animation-delay: 2.3s" points="79 57 79 65 71 65 71 57"/>
            <polygon style="animation-delay: 2.4s" points="65 57 65 65 57 65 57 57"/>
        </g>

        <!-- Shape 4 - Definition -->
        <linearGradient spreadMethod="pad" id="owb_top_squares_2_gradient" x1="0%" y1="0%" x2="0%" y2="100%">
            <stop offset="0%" style="stop-opacity:0.5;">
                <animate attributeName="stop-color" values="#55dfff; #EFABAE; #8AD4D2;#D2B6CE; #333; #55dfff" dur="30s" repeatCount="indefinite"/>
            </stop>
            <stop offset="100%" style="stop-opacity:1;">
                <animate attributeName="stop-color" values="#55dfff; #EFABAE; #8AD4D2;#D2B6CE; #333; #55dfff" dur="30s" repeatCount="indefinite"/>
            </stop>
        </linearGradient>
        <g id="owb_top_squares_2" fill="url(#owb_top_squares_2_gradient)" opacity=".8" fill-rule="evenodd">
            <polygon style="animation-delay: 2.0s" points="122 114 122 122 114 122 114 114"/>
            <polygon style="animation-delay: 2.1s" points="108 114 108 122 100 122 100 114"/>
            <polygon style="animation-delay: 2.2s" points="94 114 94 122 86 122 86 114"/>
            <polygon style="animation-delay: 2.3s" points="79 114 79 122 71 122 71 114"/>
            <polygon style="animation-delay: 2.4s" points="65 114 65 122 57 122 57 114"/>
            <polygon style="animation-delay: 2.5s" points="122 100 122 108 114 108 114 100"/>
            <polygon style="animation-delay: 2.6s" points="108 100 108 108 100 108 100 100"/>
            <polygon style="animation-delay: 2.7s" points="94 100 94 108 86 108 86 100"/>
            <polygon style="animation-delay: 2.8s" points="79 100 79 108 71 108 71 100"/>
            <polygon style="animation-delay: 2.9s" points="65 100 65 108 57 108 57 100"/>
            <polygon style="animation-delay: 2.0s" points="122 86 122 94 114 94 114 86"/>
            <polygon style="animation-delay: 2.1s" points="108 86 108 94 100 94 100 86"/>
            <polygon style="animation-delay: 2.2s" points="94 86 94 94 86 94 86 86"/>
            <polygon style="animation-delay: 2.3s" points="79 86 79 94 71 94 71 86"/>
            <polygon style="animation-delay: 2.4s" points="65 86 65 94 57 94 57 86"/>
            <polygon style="animation-delay: 2.5s" points="122 71 122 79 114 79 114 71"/>
            <polygon style="animation-delay: 2.6s" points="108 71 108 79 100 79 100 71"/>
            <polygon style="animation-delay: 2.7s" points="94 71 94 79 86 79 86 71"/>
            <polygon style="animation-delay: 2.8s" points="79 71 79 79 71 79 71 71"/>
            <polygon style="animation-delay: 2.9s" points="65 71 65 79 57 79 57 71"/>
            <polygon style="animation-delay: 2.0s" points="122 57 122 65 114 65 114 57"/>
            <polygon style="animation-delay: 2.1s" points="108 57 108 65 100 65 100 57"/>
            <polygon style="animation-delay: 2.2s" points="94 57 94 65 86 65 86 57"/>
            <polygon style="animation-delay: 2.3s" points="79 57 79 65 71 65 71 57"/>
            <polygon style="animation-delay: 2.4s" points="65 57 65 65 57 65 57 57"/>
        </g>
    </defs>

    <use class="owb_shapes_intro" x="80" y="160" transform="matrix(.5,0,0,.5,0,0)" xlink:href="#owb_top_shape_oval"/>
    <use class="owb_shapes_intro" x="950" y="800" transform="matrix(.5,0,0,.5,0,0)" xlink:href="#owb_top_shape_polygon"/>
    <use x="500" y="80" xlink:href="#owb_top_squares_1"/>
    <use x="30" y="400" xlink:href="#owb_top_squares_2"/>
</svg>